<?xml version="1.0" encoding="UTF-8"?>
<svg width="12px" height="6px" viewBox="0 0 12 6" version="1.1" xmlns="http://www.w3.org/2000/svg" xmlns:xlink="http://www.w3.org/1999/xlink">
    <!-- Generator: Sketch 55.2 (78181) - https://sketchapp.com -->
    <title>Icon/Arrow_Right</title>
    <desc>Created with Sketch.</desc>
    <g id="Page-1" stroke="none" stroke-width="1" fill="none" fill-rule="evenodd">
        <g id="1.-Dashboard_Clients" transform="translate(-1406.000000, -27.000000)">
            <g id="Header">
                <g>
                    <g id="Icon/Arrow_Right" transform="translate(1412.000000, 30.000000) rotate(-90.000000) translate(-1412.000000, -30.000000) translate(1400.000000, 18.000000)">
                        <rect id="Rectangle" fill-opacity="0" fill="#D5D3D3" x="0" y="0" width="24" height="24"></rect>
                        <path d="M7.23810713,9.18057115 C6.92361275,8.91100453 6.45013776,8.94742569 6.18057115,9.26192007 C5.91100453,9.57641445 5.94742569,10.0498894 6.26192007,10.319456 L11.5119201,14.819456 C11.7927874,15.0601994 12.2072398,15.0601994 12.4881071,14.819456 L17.7381071,10.319456 C18.0526015,10.0498894 18.0890227,9.57641445 17.819456,9.26192007 C17.5498894,8.94742569 17.0764144,8.91100453 16.7619201,9.18057115 L12.0000136,13.2622053 L7.23810713,9.18057115 Z" id="Path-2" fill="#272B2E" fill-rule="nonzero" transform="translate(12.000014, 12.000007) scale(-1, 1) rotate(-90.000000) translate(-12.000014, -12.000007) "></path>
                    </g>
                </g>
            </g>
        </g>
    </g>
</svg>