<?xml version="1.0" encoding="utf-8"?>
<!-- Generator: Adobe Illustrator 26.4.0, SVG Export Plug-In . SVG Version: 6.00 Build 0)  -->
<svg version="1.1" id="Layer_1" xmlns="http://www.w3.org/2000/svg" xmlns:xlink="http://www.w3.org/1999/xlink" x="0px" y="0px"
	 viewBox="0 0 27 27" style="enable-background:new 0 0 27 27;" xml:space="preserve">
<style type="text/css">
	.st0{fill-rule:evenodd;clip-rule:evenodd;fill:#FFFFFF;stroke:#FFA500;stroke-width:0.25;}
	.st1{fill:none;stroke:#FFA500;stroke-width:0.25;stroke-linecap:round;stroke-linejoin:round;}
	.st2{fill:#FFFFFF;stroke:#FFA500;stroke-width:0.25;stroke-linejoin:round;}
</style>
<g id="Page-1">
	<g id="Icons-1" transform="translate(-614.000000, -464.000000)">
		<g id="Icon_x2F_Crop-loss-survey_x2F_Selected" transform="translate(614.999610, 465.000129)">
			<path id="Shape" class="st0" d="M4,10.1c-0.2,0.9,0,2,1.3,3.5c0.9-0.8,1.4-1.8,1.4-2.8S6.3,8.9,5.3,8.3C4.7,8.6,4.2,9.2,4,10.1z
				 M5.3,7.8c1.2,0.7,1.8,1.8,1.8,3s-0.6,2.4-1.7,3.3v2.1c0.2-0.5,0.6-1,1-1.4c0.9-0.9,2.3-1.5,4-1h0.1V14c0.1,0.7,0,1.7-0.8,2.6
				s-2.1,1.6-4.3,1.6v-0.3l0,0v3.8c0.2-0.5,0.6-1,1-1.4c0.9-0.9,2.3-1.5,4-1h0.1v0.2c0.1,0.7,0,1.7-0.8,2.6s-2.1,1.6-4.3,1.6v0.6H5
				v-0.6c-2.2,0-3.5-0.7-4.2-1.6c-0.8-0.9-0.9-2-0.8-2.6v-0.1h0.1c1.3-0.4,2.7,0.2,3.7,1c0.5,0.4,0.9,1,1.1,1.5v-3.7
				c-2.2,0-3.5-0.7-4.2-1.6C0,15.7-0.1,14.6,0,14v-0.1h0.1c1.3-0.4,2.7,0.2,3.7,1c0.5,0.4,0.9,1,1.1,1.5v-2.2
				c-1.5-1.6-1.8-3-1.5-4.1s1-1.8,1.6-2.2l0.1-0.1L5.3,7.8z M4.5,16.6c0.2,0.4,0.3,0.7,0.3,1c-2,0-3.1-0.6-3.7-1.3s-0.7-1.4-0.6-1.9
				c1.1-0.3,2.2,0.2,3,0.9C4,15.8,4.3,16.2,4.5,16.6z M4.8,23.1c0-0.3-0.1-0.7-0.3-1.1c-0.2-0.5-0.6-1-1-1.3c-0.8-0.8-2-1.2-3-1
				c-0.1,0.6,0.1,1.3,0.6,2C1.7,22.5,2.8,23.1,4.8,23.1z M5.8,22c-0.2,0.4-0.2,0.8-0.2,1.2c2,0,3.1-0.7,3.7-1.4
				c0.6-0.7,0.8-1.5,0.7-2.1c-1.3-0.4-2.5,0.2-3.3,1C6.3,21,6,21.5,5.8,22z M5.6,17.6c0-0.3,0-0.7,0.2-1.2s0.5-1,0.9-1.4
				c0.8-0.8,2-1.3,3.3-1c0,0.6-0.1,1.4-0.7,2.1C8.7,17,7.6,17.6,5.6,17.6z"/>
			<path id="Path" class="st1" d="M8.1,25.3c-1.2-0.5-4.2-0.5-5.5,0"/>
			<path id="Shape_00000163769460452915764980000009137333548887912618_" class="st0" d="M18.1,13.9c-0.2,0.6,0,1.5,0.9,2.6
				c0.7-0.6,1-1.4,1-2.1c0-0.7-0.3-1.4-1-1.8C18.7,12.9,18.3,13.3,18.1,13.9z M19.2,12.2c1,0.5,1.4,1.4,1.4,2.3
				c0,0.9-0.5,1.8-1.3,2.5v1.5c0.2-0.4,0.4-0.7,0.7-1c0.7-0.7,1.8-1.2,3.1-0.8h0.1v0.1c0.1,0.5,0,1.3-0.6,2C22,19.5,20.9,20,19.2,20
				v-0.3l0,0v2.8c0.2-0.4,0.4-0.7,0.7-1c0.7-0.7,1.8-1.2,3.1-0.8h0.1v0.1c0.1,0.5,0,1.3-0.6,2S20.8,24,19.1,24v1h-0.3v-0.9
				c-1.7,0-2.7-0.5-3.3-1.2c-0.6-0.7-0.6-1.5-0.6-2v-0.1H15c1.1-0.3,2.1,0.1,2.9,0.8c0.4,0.3,0.6,0.7,0.8,1.1V20
				c-1.7,0-2.7-0.5-3.3-1.2c-0.6-0.7-0.6-1.5-0.6-2v-0.1h0.1c1.1-0.3,2.1,0.1,2.9,0.8c0.4,0.3,0.6,0.7,0.8,1.1V17l0,0
				c-1.2-1.2-1.4-2.3-1.2-3.1c0.2-0.8,0.8-1.4,1.2-1.7l0.1-0.1L19.2,12.2z M18.5,18.8c0.1,0.3,0.2,0.6,0.2,0.8c-1.5,0-2.3-0.5-2.8-1
				c-0.4-0.5-0.5-1.1-0.5-1.5c0.8-0.2,1.6,0.2,2.3,0.7C18.1,18.1,18.3,18.4,18.5,18.8z M18.7,23.7c0-0.2-0.1-0.5-0.2-0.8
				c-0.2-0.3-0.4-0.7-0.8-1c-0.6-0.6-1.5-0.9-2.3-0.7c0,0.4,0.1,1,0.5,1.5C16.4,23.2,17.2,23.6,18.7,23.7z M19.5,22.9
				c-0.1,0.3-0.2,0.6-0.1,0.8c1.5,0,2.3-0.5,2.8-1.1c0.4-0.5,0.6-1.1,0.5-1.5c-1-0.3-1.9,0.1-2.5,0.7C19.9,22.1,19.7,22.5,19.5,22.9
				z M19.4,19.6c0-0.2,0-0.5,0.1-0.8c0.1-0.4,0.4-0.7,0.7-1c0.6-0.6,1.5-1,2.5-0.7c0,0.4-0.1,1-0.5,1.5
				C21.7,19.1,20.9,19.5,19.4,19.6z"/>
			<path id="Path_00000080169650363311631920000010610460505974137273_" class="st1" d="M21,25.2c-1.4-0.4-2.2-0.4-3.6,0"/>
			<path id="Shape_00000126283474389693933790000003192756230377628602_" class="st2" d="M2.9,0C2.8,0,2.7,0,2.7,0.1
				c-0.1,0.1,0,0.2,0.1,0.3L2.9,0z M9.3,4.2L9.2,4.4h0.1h0.1L9.3,4.2z M17.3,2.2L17.4,2h-0.1h-0.1L17.3,2.2z M25.4,6.9
				c0.1,0,0.2-0.1,0.1-0.2L25,4.9c0-0.1-0.1-0.2-0.2-0.1c-0.1,0-0.2,0.1-0.1,0.2l0.4,1.5L23.5,7c-0.1,0-0.2,0.1-0.1,0.2
				c0,0.1,0.1,0.2,0.2,0.1L25.4,6.9z M2.7,0.4l6.5,4L9.4,4L2.9,0L2.7,0.4z M9.4,4.4l8-2L17.3,2l-8,2L9.4,4.4z M17.2,2.4l8,4.5
				l0.2-0.3l-8-4.5L17.2,2.4z"/>
		</g>
	</g>
</g>
</svg>
