<?xml version="1.0" encoding="UTF-8"?>
<svg width="25px" height="31px" viewBox="0 0 25 31" version="1.1" xmlns="http://www.w3.org/2000/svg" xmlns:xlink="http://www.w3.org/1999/xlink">
    <!-- Generator: Sketch 55.2 (78181) - https://sketchapp.com -->
    <title>Icon/Crop health monitoring/Selected</title>
    <desc>Created with Sketch.</desc>
    <defs>
        <path d="M0.641,0.269 C0.641,0.12 0.76,0 0.907,0 C1.055,0 1.174,0.12 1.174,0.269 L1.174,0.807 C1.174,0.955 1.055,1.076 0.907,1.076 C0.76,1.076 0.641,0.955 0.641,0.807 L0.641,0.269 Z" id="path-1"></path>
        <path d="M0.641,0.414 C0.641,0.265 0.76,0.145 0.907,0.145 C1.055,0.145 1.174,0.265 1.174,0.414 L1.174,0.952 C1.174,1.1 1.055,1.221 0.907,1.221 C0.76,1.221 0.641,1.1 0.641,0.952 L0.641,0.414 Z" id="path-3"></path>
        <path d="M1.255,0.641 C1.359,0.536 1.528,0.536 1.632,0.641 C1.736,0.746 1.736,0.917 1.632,1.022 L1.255,1.402 C1.151,1.507 0.982,1.507 0.878,1.402 C0.774,1.297 0.774,1.127 0.878,1.022 L1.255,0.641 Z" id="path-5"></path>
        <path d="M1.494,0.646 C1.39,0.541 1.221,0.541 1.117,0.646 C1.013,0.751 1.013,0.922 1.117,1.027 L1.494,1.407 C1.599,1.512 1.767,1.512 1.872,1.407 C1.976,1.302 1.976,1.132 1.872,1.027 L1.494,0.646 Z" id="path-7"></path>
        <path d="M1.516,0.673 C1.663,0.673 1.782,0.793 1.782,0.942 C1.782,1.09 1.663,1.211 1.516,1.211 L0.982,1.211 C0.835,1.211 0.716,1.09 0.716,0.942 C0.716,0.793 0.835,0.673 0.982,0.673 L1.516,0.673 Z" id="path-9"></path>
        <path d="M1.107,0.573 C0.96,0.573 0.841,0.693 0.841,0.841 C0.841,0.99 0.96,1.11 1.107,1.11 L1.641,1.11 C1.788,1.11 1.907,0.99 1.907,0.841 C1.907,0.693 1.788,0.573 1.641,0.573 L1.107,0.573 Z" id="path-11"></path>
        <path d="M1.691,1.05 C1.803,1.145 1.818,1.315 1.724,1.429 C1.629,1.543 1.461,1.557 1.348,1.462 L0.939,1.116 C0.826,1.021 0.812,0.851 0.906,0.737 C1.001,0.623 1.169,0.609 1.282,0.704 L1.691,1.05 Z" id="path-13"></path>
        <path d="M0.769,1.022 C0.656,1.117 0.641,1.287 0.736,1.401 C0.831,1.515 0.999,1.53 1.112,1.434 L1.52,1.088 C1.633,0.993 1.648,0.823 1.553,0.709 C1.459,0.596 1.29,0.581 1.178,0.676 L0.769,1.022 Z" id="path-15"></path>
    </defs>
    <g id="Page-1" stroke="none" stroke-width="1" fill="none" fill-rule="evenodd">
        <g id="Icons-1" transform="translate(-813.000000, -462.000000)">
            <g id="Icon/Crop-health-monitoring/Selected" transform="translate(814.000222, 462.000000)">
                <path d="M13.9067777,7.8 C15.3797777,7.8 16.5737777,6.596 16.5737777,5.11 C16.5737777,3.625 15.3797777,2.421 13.9067777,2.421 C12.4347777,2.421 11.2407777,3.625 11.2407777,5.11 C11.2407777,6.596 12.4347777,7.8 13.9067777,7.8 Z" id="Path" stroke="#FFFFFF"></path>
                <g id="Clipped" transform="translate(12.999778, 0.000000)">
                    <mask id="mask-2" fill="white">
                        <use xlink:href="#path-1"></use>
                    </mask>
                    <g id="Path"></g>
                    <path d="M0.641,0.269 C0.641,0.12 0.76,0 0.907,0 C1.055,0 1.174,0.12 1.174,0.269 L1.174,0.807 C1.174,0.955 1.055,1.076 0.907,1.076 C0.76,1.076 0.641,0.955 0.641,0.807 L0.641,0.269 Z" id="Path" stroke="#FFFFFF" stroke-width="0.5" fill="#FFFFFF" fill-rule="nonzero" stroke-linejoin="round" mask="url(#mask-2)"></path>
                </g>
                <g id="Clipped" transform="translate(12.999778, 9.000000)">
                    <mask id="mask-4" fill="white">
                        <use xlink:href="#path-3"></use>
                    </mask>
                    <g id="Path"></g>
                    <path d="M0.641,0.414 C0.641,0.265 0.76,0.145 0.907,0.145 C1.055,0.145 1.174,0.265 1.174,0.414 L1.174,0.952 C1.174,1.1 1.055,1.221 0.907,1.221 C0.76,1.221 0.641,1.1 0.641,0.952 L0.641,0.414 Z" id="Path" stroke="#FFFFFF" stroke-width="0.5" fill="#FFFFFF" fill-rule="nonzero" stroke-linejoin="round" mask="url(#mask-4)"></path>
                </g>
                <g id="Clipped" transform="translate(15.999778, 1.000000)">
                    <mask id="mask-6" fill="white">
                        <use xlink:href="#path-5"></use>
                    </mask>
                    <g id="Path"></g>
                    <path d="M1.255,0.641 C1.359,0.536 1.528,0.536 1.632,0.641 C1.736,0.746 1.736,0.917 1.632,1.022 L1.255,1.402 C1.151,1.507 0.982,1.507 0.878,1.402 C0.774,1.297 0.774,1.127 0.878,1.022 L1.255,0.641 Z" id="Path" stroke="#FFFFFF" stroke-width="0.5" fill="#FFFFFF" fill-rule="nonzero" stroke-linejoin="round" mask="url(#mask-6)"></path>
                </g>
                <g id="Clipped" transform="translate(8.999778, 1.000000)">
                    <mask id="mask-8" fill="white">
                        <use xlink:href="#path-7"></use>
                    </mask>
                    <g id="Path"></g>
                    <path d="M1.494,0.646 C1.39,0.541 1.221,0.541 1.117,0.646 C1.013,0.751 1.013,0.922 1.117,1.027 L1.494,1.407 C1.599,1.512 1.767,1.512 1.872,1.407 C1.976,1.302 1.976,1.132 1.872,1.027 L1.494,0.646 Z" id="Path" stroke="#FFFFFF" stroke-width="0.5" fill="#FFFFFF" fill-rule="nonzero" stroke-linejoin="round" mask="url(#mask-8)"></path>
                </g>
                <g id="Clipped" transform="translate(16.999778, 4.000000)">
                    <mask id="mask-10" fill="white">
                        <use xlink:href="#path-9"></use>
                    </mask>
                    <g id="Path"></g>
                    <path d="M1.516,0.673 C1.663,0.673 1.782,0.793 1.782,0.942 C1.782,1.09 1.663,1.211 1.516,1.211 L0.982,1.211 C0.835,1.211 0.716,1.09 0.716,0.942 C0.716,0.793 0.835,0.673 0.982,0.673 L1.516,0.673 Z" id="Path" stroke="#FFFFFF" stroke-width="0.5" fill="#FFFFFF" fill-rule="nonzero" stroke-linejoin="round" mask="url(#mask-10)"></path>
                </g>
                <g id="Clipped" transform="translate(7.999778, 4.000000)">
                    <mask id="mask-12" fill="white">
                        <use xlink:href="#path-11"></use>
                    </mask>
                    <g id="Path"></g>
                    <path d="M1.107,0.573 C0.96,0.573 0.841,0.693 0.841,0.841 C0.841,0.99 0.96,1.11 1.107,1.11 L1.641,1.11 C1.788,1.11 1.907,0.99 1.907,0.841 C1.907,0.693 1.788,0.573 1.641,0.573 L1.107,0.573 Z" id="Path" stroke="#FFFFFF" stroke-width="0.5" fill="#FFFFFF" fill-rule="nonzero" stroke-linejoin="round" mask="url(#mask-12)"></path>
                </g>
                <g id="Clipped" transform="translate(15.999778, 7.000000)">
                    <mask id="mask-14" fill="white">
                        <use xlink:href="#path-13"></use>
                    </mask>
                    <g id="Path"></g>
                    <path d="M1.691,1.05 C1.803,1.145 1.818,1.315 1.724,1.429 C1.629,1.543 1.461,1.557 1.348,1.462 L0.939,1.116 C0.826,1.021 0.812,0.851 0.906,0.737 C1.001,0.623 1.169,0.609 1.282,0.704 L1.691,1.05 Z" id="Path" stroke="#FFFFFF" stroke-width="0.5" fill="#FFFFFF" fill-rule="nonzero" stroke-linejoin="round" mask="url(#mask-14)"></path>
                </g>
                <g id="Clipped" transform="translate(8.999778, 7.000000)">
                    <mask id="mask-16" fill="white">
                        <use xlink:href="#path-15"></use>
                    </mask>
                    <g id="Path"></g>
                    <path d="M0.769,1.022 C0.656,1.117 0.641,1.287 0.736,1.401 C0.831,1.515 0.999,1.53 1.112,1.434 L1.52,1.088 C1.633,0.993 1.648,0.823 1.553,0.709 C1.459,0.596 1.29,0.581 1.178,0.676 L0.769,1.022 Z" id="Path" stroke="#FFFFFF" stroke-width="0.5" fill="#FFFFFF" fill-rule="nonzero" stroke-linejoin="round" mask="url(#mask-16)"></path>
                </g>
                <path d="M6.86377775,13.984 C7.07777775,14.912 6.86877775,16.163 5.51977775,17.711 C4.57277775,16.854 4.07477775,15.751 4.05677775,14.717 C4.03877775,13.673 4.50877775,12.686 5.53077775,12.063 C6.03077775,12.423 6.65477775,13.077 6.86377775,13.984 Z M5.43177775,11.603 C4.18077775,12.303 3.59077775,13.482 3.61277775,14.725 C3.63377775,15.936 4.23177775,17.194 5.32677775,18.136 L5.32677775,20.483 C5.10277775,19.929 4.74377775,19.374 4.27777775,18.902 C3.31077775,17.925 1.86177775,17.292 0.185777747,17.822 L0.0557777472,17.863 L0.0337777472,17.999 C-0.0832222528,18.704 0.0827777472,19.809 0.863777747,20.74 C1.65177775,21.679 3.04177775,22.413 5.32577775,22.413 L5.32577775,22.133 L5.32677775,22.133 L5.32677775,26.226 C5.10277775,25.674 4.74377775,25.119 4.27877775,24.649 C3.31177775,23.671 1.86277775,23.038 0.186777747,23.568 L0.0567777472,23.609 L0.0347777472,23.745 C-0.0822222528,24.45 0.0837777472,25.556 0.864777747,26.486 C1.65277775,27.425 3.04277775,28.159 5.32677775,28.159 L5.32677775,29.464 L5.75177775,29.464 L5.75177775,27.873 L5.75177775,27.872 L5.75177775,28.159 C8.03377775,28.159 9.38277775,27.445 10.1277777,26.52 C10.8667777,25.603 10.9807777,24.516 10.8657777,23.82 L10.8437777,23.687 L10.7167777,23.644 C9.33177775,23.179 7.93177775,23.807 6.94477775,24.733 C6.44777775,25.199 6.04277775,25.75 5.78377775,26.304 C5.77277775,26.326 5.76277775,26.349 5.75177775,26.372 L5.75177775,22.413 C8.03277775,22.413 9.38177775,21.699 10.1267777,20.774 C10.8647777,19.857 10.9797777,18.769 10.8647777,18.074 L10.8427777,17.941 L10.7157777,17.898 C9.33077775,17.433 7.93077775,18.061 6.94377775,18.986 C6.44677775,19.452 6.04177775,20.004 5.78277775,20.557 C5.77177775,20.579 5.76177775,20.601 5.75177775,20.623 L5.75177775,18.122 C7.25577775,16.448 7.55777775,15.015 7.29677775,13.883 C7.03677775,12.754 6.23177775,11.986 5.66177775,11.611 L5.54977775,11.537 L5.43177775,11.603 Z M6.18377775,20.749 C5.97477775,21.195 5.88277775,21.617 5.91677775,21.964 C7.99977775,21.93 9.15977775,21.264 9.78177775,20.491 C10.3787777,19.75 10.5067777,18.878 10.4447777,18.283 C9.31477775,17.969 8.13677775,18.48 7.24677775,19.315 C6.78677775,19.745 6.41777775,20.252 6.18377775,20.749 Z M5.91777775,27.71 C5.88377775,27.363 5.97577775,26.941 6.18477775,26.495 C6.41877775,25.998 6.78777775,25.491 7.24677775,25.061 C8.13777775,24.226 9.31577775,23.716 10.4457777,24.03 C10.5077777,24.625 10.3797777,25.496 9.78277775,26.238 C9.16077775,27.01 8.00077775,27.676 5.91777775,27.71 Z M4.93677775,26.45 C5.11577775,26.913 5.18077775,27.353 5.13177775,27.709 C3.06677775,27.669 1.86777775,26.988 1.20377775,26.197 C0.564777747,25.435 0.399777747,24.546 0.455777747,23.956 C1.88077775,23.561 3.11277775,24.104 3.96377775,24.965 C4.40377775,25.41 4.73677775,25.936 4.93677775,26.45 Z M5.13077775,21.963 C5.17977775,21.607 5.11477775,21.167 4.93477775,20.703 C4.73577775,20.189 4.40277775,19.664 3.96277775,19.219 C3.11177775,18.358 1.87877775,17.815 0.453777747,18.21 C0.398777747,18.8 0.562777747,19.688 1.20277775,20.45 C1.86677775,21.242 3.06577775,21.923 5.13077775,21.963 Z" id="Shape" stroke="#FFFFFF" stroke-width="0.5" fill="#FFFFFF"></path>
                <path d="M3.50677775,30.104 C4.09977775,29.805 6.08477775,29.386 7.50677775,30.104" id="Path" stroke="#FFFFFF" stroke-linecap="round" stroke-linejoin="round"></path>
                <path d="M18.1187777,18.928 C17.9677777,19.56 18.1067777,20.422 19.0637777,21.5 C19.7277777,20.902 20.0727777,20.145 20.0857777,19.439 C20.0987777,18.722 19.7697777,18.045 19.0537777,17.609 C18.6957777,17.866 18.2657777,18.315 18.1187777,18.928 Z M19.1527777,17.159 C20.1027777,17.671 20.5517777,18.535 20.5357777,19.446 C20.5197777,20.345 20.0517777,21.276 19.2027777,21.964 L19.2027777,23.422 C19.3727777,23.06 19.6237777,22.703 19.9397777,22.395 C20.6697777,21.683 21.7687777,21.22 23.0387777,21.607 L23.1707777,21.647 L23.1937777,21.78 C23.2827777,22.3 23.1557777,23.109 22.5637777,23.79 C21.9647777,24.478 20.9127777,25.008 19.2037777,25.008 L19.2037777,24.749 L19.2027777,24.75 L19.2027777,27.534 C19.3727777,27.173 19.6237777,26.817 19.9387777,26.509 C20.6687777,25.798 21.7677777,25.334 23.0377777,25.721 L23.1697777,25.761 L23.1927777,25.894 C23.2817777,26.414 23.1547777,27.224 22.5627777,27.904 C21.9637777,28.592 20.9127777,29.122 19.2027777,29.122 L19.2027777,29.999 L18.8867777,29.999 L18.8867777,29.122 C17.1787777,29.122 16.1577777,28.607 15.5897777,27.927 C15.0287777,27.256 14.9417777,26.459 15.0287777,25.948 L15.0507777,25.818 L15.1797777,25.776 C16.2377777,25.433 17.2997777,25.898 18.0417777,26.568 C18.3967777,26.889 18.6897777,27.266 18.8867777,27.648 L18.8867777,25.008 C17.1797777,25.008 16.1587777,24.492 15.5907777,23.813 C15.0287777,23.141 14.9417777,22.345 15.0297777,21.833 L15.0517777,21.703 L15.1807777,21.662 C16.2377777,21.319 17.3007777,21.783 18.0417777,22.454 C18.3967777,22.774 18.6897777,23.151 18.8867777,23.533 L18.8867777,21.964 L18.8777777,21.955 C17.7207777,20.73 17.4797777,19.672 17.6807777,18.829 C17.8787777,18.001 18.4897777,17.44 18.9207777,17.167 L19.0347777,17.095 L19.1527777,17.159 Z M18.5117777,23.783 C18.6527777,24.074 18.7177777,24.344 18.7087777,24.569 C17.2097777,24.534 16.3827777,24.067 15.9397777,23.537 C15.5217777,23.037 15.4217777,22.451 15.4567777,22.039 C16.2557777,21.843 17.0937777,22.193 17.7357777,22.774 C18.0717777,23.078 18.3417777,23.434 18.5117777,23.783 Z M18.7077777,28.683 C18.7177777,28.459 18.6517777,28.188 18.5107777,27.898 C18.3407777,27.549 18.0707777,27.192 17.7347777,26.888 C17.0927777,26.308 16.2557777,25.958 15.4557777,26.153 C15.4207777,26.565 15.5207777,27.151 15.9387777,27.651 C16.3817777,28.181 17.2087777,28.648 18.7077777,28.683 Z M19.5487777,27.861 C19.4267777,28.165 19.3787777,28.449 19.4007777,28.682 C20.8877777,28.643 21.7447777,28.166 22.2187777,27.621 C22.6677777,27.105 22.7927777,26.508 22.7647777,26.1 C21.7487777,25.845 20.8697777,26.221 20.2577777,26.818 C19.9357777,27.131 19.6937777,27.501 19.5487777,27.861 Z M19.4017777,24.568 C19.3797777,24.335 19.4277777,24.05 19.5497777,23.747 C19.6947777,23.386 19.9367777,23.017 20.2577777,22.704 C20.8707777,22.107 21.7497777,21.73 22.7657777,21.986 C22.7937777,22.394 22.6687777,22.991 22.2197777,23.507 C21.7457777,24.051 20.8887777,24.529 19.4017777,24.568 Z" id="Shape" stroke="#FFFFFF" stroke-width="0.5" fill="#FFFFFF"></path>
                <path d="M20.9697777,30.22 C19.6197777,29.836 18.7197777,29.836 17.3697777,30.22" id="Path" stroke="#FFFFFF" stroke-width="0.9" stroke-linecap="round" stroke-linejoin="round"></path>
            </g>
        </g>
    </g>
</svg>