<?xml version="1.0" encoding="UTF-8"?>
<svg width="25px" height="31px" viewBox="0 0 25 31" version="1.1" xmlns="http://www.w3.org/2000/svg" xmlns:xlink="http://www.w3.org/1999/xlink">
    <!-- Generator: Sketch 55.2 (78181) - https://sketchapp.com -->
    <title>Icon/Crop Health Monitoring</title>
    <desc>Created with Sketch.</desc>
    <defs>
        <path d="M0.533333333,0.268965517 C0.533333333,0.120421241 0.652725333,0 0.8,0 C0.947274667,0 1.06666667,0.120421241 1.06666667,0.268965517 L1.06666667,0.806896552 C1.06666667,0.955440828 0.947274667,1.07586207 0.8,1.07586207 C0.652725333,1.07586207 0.533333333,0.955440828 0.533333333,0.806896552 L0.533333333,0.268965517 Z" id="path-1"></path>
        <path d="M0.533333333,0.806896552 C0.533333333,0.658352276 0.652725333,0.537931034 0.8,0.537931034 C0.947274667,0.537931034 1.06666667,0.658352276 1.06666667,0.806896552 L1.06666667,1.34482759 C1.06666667,1.49340414 0.947274667,1.6137931 0.8,1.6137931 C0.652725333,1.6137931 0.533333333,1.49340414 0.533333333,1.34482759 L0.533333333,0.806896552 Z" id="path-3"></path>
        <path d="M0.947413333,0.565505379 C1.051552,0.460468966 1.22037333,0.460468966 1.32458667,0.565505379 C1.42869333,0.670541793 1.42869333,0.84084 1.32458667,0.945876414 L0.947413333,1.32625821 C0.843274667,1.43129462 0.674432,1.43129462 0.570293333,1.32625821 C0.466154667,1.22122179 0.466154667,1.05091283 0.570293333,0.945876414 L0.947413333,0.565505379 Z" id="path-5"></path>
        <path d="M0.586997333,0.570518897 C0.482858667,0.465482483 0.314016,0.465482483 0.209877333,0.570518897 C0.105738667,0.67555531 0.105738667,0.845853517 0.209877333,0.95090069 L0.586997333,1.33127172 C0.691136,1.43630814 0.859978667,1.43630814 0.964128,1.33127172 C1.06826667,1.22623531 1.06826667,1.0559371 0.964128,0.95090069 L0.586997333,0.570518897 Z" id="path-7"></path>
        <path d="M1.14165333,0.369494069 C1.28896,0.369494069 1.40832,0.48991531 1.40832,0.638459586 C1.40832,0.787014621 1.28896,0.907425103 1.14165333,0.907425103 L0.60832,0.907425103 C0.461013333,0.907425103 0.341653333,0.787014621 0.341653333,0.638459586 C0.341653333,0.48991531 0.461013333,0.369494069 0.60832,0.369494069 L1.14165333,0.369494069 Z" id="path-9"></path>
        <path d="M0.266666667,0.268965517 C0.119392,0.268965517 0,0.389386759 0,0.537931034 C0,0.68647531 0.119392,0.806896552 0.266666667,0.806896552 L0.8,0.806896552 C0.947274667,0.806896552 1.06666667,0.68647531 1.06666667,0.537931034 C1.06666667,0.389386759 0.947274667,0.268965517 0.8,0.268965517 L0.266666667,0.268965517 Z" id="path-11"></path>
        <path d="M1.38325333,0.518705379 C1.496,0.614188138 1.51072,0.783830069 1.41610667,0.897624 C1.32138667,1.01141793 1.15317333,1.02626483 1.04040533,0.930782069 L0.63184,0.585 C0.519029333,0.489517241 0.504309333,0.319864552 0.598976,0.206081379 C0.693642667,0.0922874483 0.861845333,0.0774405517 0.974666667,0.17292331 L1.38325333,0.518705379 Z" id="path-13"></path>
        <path d="M0.928234667,1.56672414 C0.815413333,1.6622069 0.800704,1.83185959 0.895370667,1.94564276 C0.990037333,2.05943669 1.15824,2.07428359 1.27106133,1.97880083 L1.679616,1.63301876 C1.79243733,1.537536 1.80714667,1.36789407 1.71248,1.25410014 C1.61781333,1.14030621 1.44961067,1.12545931 1.33678933,1.22094207 L0.928234667,1.56672414 Z" id="path-15"></path>
    </defs>
    <g id="Page-1" stroke="none" stroke-width="1" fill="none" fill-rule="evenodd" opacity="0.800000012">
        <g id="1.-Dashboard_Clients" transform="translate(-16.000000, -365.000000)">
            <g id="Navigation_Expanded">
                <g transform="translate(0.000000, 58.000000)">
                    <g id="Icon/Crop-Health-Monitoring" transform="translate(17.000000, 307.000000)">
                        <g id="Group-10" transform="translate(8.840741, 0.000000)">
                            <path d="M5.06666667,7.8 C6.539426,7.8 7.73333333,6.59580036 7.73333333,5.11034483 C7.73333333,3.62488929 6.539426,2.42068966 5.06666667,2.42068966 C3.59390733,2.42068966 2.39999959,3.62488929 2.39999959,5.11034483 C2.39999959,6.59580036 3.59390733,7.8 5.06666667,7.8 Z" id="Oval" stroke="#FFFFFF" fill="#115284" fill-rule="nonzero"></path>
                            <g id="Clipped" transform="translate(4.266667, 0.000000)">
                                <mask id="mask-2" fill="white">
                                    <use xlink:href="#path-1"></use>
                                </mask>
                                <use id="Path" stroke="#FFFFFF" stroke-width="0.5" fill="#FFFFFF" stroke-linejoin="round" xlink:href="#path-1"></use>
                                <g id="Group-9" mask="url(#mask-2)" fill="#FFFFFF" fill-rule="nonzero" stroke="#FFFFFF">
                                    <g transform="translate(-10.133333, 3.062069)" id="Shape">
                                        <path d="M5.86666667,8.75172414 L5.86666667,9.28965517 L6.93333333,9.28965517 L6.93333333,8.75172414 L5.86666667,8.75172414 Z M6.4,9.28965517 L6.4,8.75172414 L5.33333333,8.75172414 L5.33333333,9.28965517 L6.4,9.28965517 Z M6.13333333,9.02068966 C6.280608,9.02068966 6.4,9.14107862 6.4,9.28965517 L5.33333333,9.28965517 C5.33333333,9.73527724 5.69150933,10.0965517 6.13333333,10.0965517 L6.13333333,9.02068966 Z M5.86666667,9.28965517 C5.86666667,9.14107862 5.98605867,9.02068966 6.13333333,9.02068966 L6.13333333,10.0965517 C6.57515733,10.0965517 6.93333333,9.73527724 6.93333333,9.28965517 L5.86666667,9.28965517 Z M6.13333333,9.02068966 C5.98605867,9.02068966 5.86666667,8.90026841 5.86666667,8.75172414 L6.93333333,8.75172414 C6.93333333,8.30609131 6.57515733,7.94482759 6.13333333,7.94482759 L6.13333333,9.02068966 Z M6.13333333,7.94482759 C5.69150933,7.94482759 5.33333333,8.30609131 5.33333333,8.75172414 L6.4,8.75172414 C6.4,8.90026841 6.280608,9.02068966 6.13333333,9.02068966 L6.13333333,7.94482759 Z"></path>
                                        <path d="M9.48074667,0.979298483 L9.10362667,1.35966952 L9.85792,2.12042234 L10.2349867,1.74005131 L9.48074667,0.979298483 Z M9.48074667,1.74005131 L9.85792,1.35966952 L9.10362667,0.598927448 L8.72650667,0.979298483 L9.48074667,1.74005131 Z M9.48074667,1.35966952 C9.58488533,1.46470593 9.58488533,1.6350149 9.48074667,1.74005131 L8.72650667,0.979298483 C8.41408,1.29440772 8.41408,1.8053131 8.72650667,2.12042234 L9.48074667,1.35966952 Z M9.10362667,1.35966952 C9.20776533,1.2546331 9.376608,1.2546331 9.48074667,1.35966952 L8.72650667,2.12042234 C9.03892267,2.43553159 9.54545067,2.43553159 9.85792,2.12042234 L9.10362667,1.35966952 Z M9.48074667,1.35966952 C9.376608,1.2546331 9.376608,1.0843349 9.48074667,0.979298483 L10.2349867,1.74005131 C10.5474133,1.42493131 10.5474133,0.91403669 10.2349867,0.598927448 L9.48074667,1.35966952 Z M10.2349867,0.598927448 C9.92256,0.283807448 9.41604267,0.283807448 9.10362667,0.598927448 L9.85792,1.35966952 C9.75370667,1.46470593 9.58488533,1.46470593 9.48074667,1.35966952 L10.2349867,0.598927448 Z"></path>
                                        <path d="M2.72033067,0.984312 L3.09746133,1.36469379 L2.34321067,2.12543586 L1.96609067,1.74506483 L2.72033067,0.984312 Z M2.72033067,1.74506483 L2.34321067,1.36469379 L3.09746133,0.603940966 L3.47458133,0.984312 L2.72033067,1.74506483 Z M2.72033067,1.36469379 C2.616192,1.46973021 2.616192,1.64002841 2.72033067,1.74506483 L3.47458133,0.984312 C3.78699733,1.299432 3.78699733,1.81032662 3.47458133,2.12543586 L2.72033067,1.36469379 Z M3.09746133,1.36469379 C2.993312,1.25964662 2.82446933,1.25964662 2.72033067,1.36469379 L3.47458133,2.12543586 C3.16216533,2.44055586 2.65562667,2.44055586 2.34321067,2.12543586 L3.09746133,1.36469379 Z M2.72033067,1.36469379 C2.82446933,1.25964662 2.82446933,1.08934841 2.72033067,0.984312 L1.96609067,1.74506483 C1.653664,1.42995559 1.653664,0.919050207 1.96609067,0.603940966 L2.72033067,1.36469379 Z M1.96609067,0.603940966 C2.27850667,0.288831724 2.78503467,0.288831724 3.09746133,0.603940966 L2.34321067,1.36469379 C2.44734933,1.46973021 2.616192,1.46973021 2.72033067,1.36469379 L1.96609067,0.603940966 Z"></path>
                                        <path d="M10.7416533,4.01087338 L10.20832,4.01087338 L10.20832,5.08673545 L10.7416533,5.08673545 L10.7416533,4.01087338 Z M10.20832,4.54880441 L10.7416533,4.54880441 L10.7416533,3.47294234 L10.20832,3.47294234 L10.20832,4.54880441 Z M10.474992,4.2798389 C10.474992,4.42839393 10.3556267,4.54880441 10.20832,4.54880441 L10.20832,3.47294234 C9.76650667,3.47294234 9.40832533,3.83420607 9.40832533,4.2798389 L10.474992,4.2798389 Z M10.20832,4.01087338 C10.3556267,4.01087338 10.474992,4.13129462 10.474992,4.2798389 L9.40832533,4.2798389 C9.40832533,4.72548248 9.76650667,5.08673545 10.20832,5.08673545 L10.20832,4.01087338 Z M10.4749867,4.2798389 C10.4749867,4.13129462 10.5943467,4.01087338 10.7416533,4.01087338 L10.7416533,5.08673545 C11.1834667,5.08673545 11.5416533,4.72548248 11.5416533,4.2798389 L10.4749867,4.2798389 Z M11.5416533,4.2798389 C11.5416533,3.83420607 11.1834667,3.47294234 10.7416533,3.47294234 L10.7416533,4.54880441 C10.5943467,4.54880441 10.4749867,4.42839393 10.4749867,4.2798389 L11.5416533,4.2798389 Z"></path>
                                        <path d="M1.33333333,3.91034483 L1.86666667,3.91034483 L1.86666667,4.9862069 L1.33333333,4.9862069 L1.33333333,3.91034483 Z M1.86666667,4.44827586 L1.33333333,4.44827586 L1.33333333,3.37241379 L1.86666667,3.37241379 L1.86666667,4.44827586 Z M1.6,4.17931034 C1.6,4.32785462 1.719392,4.44827586 1.86666667,4.44827586 L1.86666667,3.37241379 C2.30849067,3.37241379 2.66666667,3.73367752 2.66666667,4.17931034 L1.6,4.17931034 Z M1.86666667,3.91034483 C1.719392,3.91034483 1.6,4.03076607 1.6,4.17931034 L2.66666667,4.17931034 C2.66666667,4.62494317 2.30849067,4.9862069 1.86666667,4.9862069 L1.86666667,3.91034483 Z M1.6,4.17931034 C1.6,4.03076607 1.480608,3.91034483 1.33333333,3.91034483 L1.33333333,4.9862069 C0.891509333,4.9862069 0.533333333,4.62494317 0.533333333,4.17931034 L1.6,4.17931034 Z M0.533333333,4.17931034 C0.533333333,3.73367752 0.891509333,3.37241379 1.33333333,3.37241379 L1.33333333,4.44827586 C1.480608,4.44827586 1.6,4.32785462 1.6,4.17931034 L0.533333333,4.17931034 Z"></path>
                                        <path d="M9.91658667,7.3876709 L9.508,7.04188883 L8.82235733,7.86605297 L9.230912,8.21182428 L9.91658667,7.3876709 Z M9.16517333,7.45396552 L9.57373867,7.79974759 L10.2594133,6.97558345 L9.85077333,6.62981214 L9.16517333,7.45396552 Z M9.540864,7.42081821 C9.44619733,7.53461214 9.27799467,7.54944828 9.16517333,7.45396552 L9.85077333,6.62981214 C9.51236267,6.34336386 9.00775467,6.38789379 8.72375467,6.72926483 L9.540864,7.42081821 Z M9.508,7.04188883 C9.6208,7.13737159 9.63552,7.30702428 9.540864,7.42081821 L8.72375467,6.72926483 C8.43975467,7.07064662 8.48389333,7.57959393 8.82235733,7.86605297 L9.508,7.04188883 Z M9.540864,7.42081821 C9.63552,7.30702428 9.80373333,7.29217738 9.91658667,7.3876709 L9.230912,8.21182428 C9.569376,8.49827255 10.0740267,8.45374262 10.3579733,8.11237159 L9.540864,7.42081821 Z M10.3579733,8.11237159 C10.6420267,7.77098979 10.5978667,7.26203172 10.2594133,6.97558345 L9.57373867,7.79974759 C9.46091733,7.70426483 9.44619733,7.53461214 9.540864,7.42081821 L10.3579733,8.11237159 Z"></path>
                                        <path d="M1.99490133,7.35982759 L2.403456,7.01404552 L3.08909867,7.83820966 L2.680544,8.18398097 L1.99490133,7.35982759 Z M2.74628267,7.42612221 L2.337728,7.77190428 L1.65208533,6.94774014 L2.06064,6.60196883 L2.74628267,7.42612221 Z M2.370592,7.3929749 C2.46525867,7.50676883 2.63346133,7.52161572 2.74628267,7.42612221 L2.06064,6.60196883 C2.399104,6.31552055 2.90370133,6.36005048 3.18770133,6.70142152 L2.370592,7.3929749 Z M2.403456,7.01404552 C2.29064533,7.10952828 2.27592533,7.27918097 2.370592,7.3929749 L3.18770133,6.70142152 C3.471712,7.04280331 3.42756267,7.55176138 3.08909867,7.83820966 L2.403456,7.01404552 Z M2.370592,7.3929749 C2.27592533,7.27918097 2.10772267,7.26434483 1.99490133,7.35982759 L2.680544,8.18398097 C2.34208,8.47042924 1.83748267,8.42589931 1.55348267,8.08452828 L2.370592,7.3929749 Z M1.55348267,8.08452828 C1.269472,7.74314648 1.31362133,7.23419917 1.65208533,6.94774014 L2.337728,7.77190428 C2.45053867,7.67642152 2.46525867,7.50676883 2.370592,7.3929749 L1.55348267,8.08452828 Z"></path>
                                    </g>
                                </g>
                            </g>
                            <g id="Clipped" transform="translate(4.266667, 8.606897)">
                                <mask id="mask-4" fill="white">
                                    <use xlink:href="#path-3"></use>
                                </mask>
                                <use id="Path" stroke="#FFFFFF" stroke-width="0.5" fill="#FFFFFF" stroke-linejoin="round" xlink:href="#path-3"></use>
                            </g>
                            <g id="Clipped" transform="translate(7.466667, 1.075862)">
                                <mask id="mask-6" fill="white">
                                    <use xlink:href="#path-5"></use>
                                </mask>
                                <use id="Path" stroke="#FFFFFF" stroke-width="0.5" fill="#FFFFFF" stroke-linejoin="round" xlink:href="#path-5"></use>
                            </g>
                            <g id="Clipped" transform="translate(1.066667, 1.075862)">
                                <mask id="mask-8" fill="white">
                                    <use xlink:href="#path-7"></use>
                                </mask>
                                <use id="Path" stroke="#FFFFFF" stroke-width="0.5" fill="#FFFFFF" stroke-linejoin="round" xlink:href="#path-7"></use>
                            </g>
                            <g id="Clipped" transform="translate(8.533333, 4.303448)">
                                <mask id="mask-10" fill="white">
                                    <use xlink:href="#path-9"></use>
                                </mask>
                                <use id="Path" stroke="#FFFFFF" stroke-width="0.5" fill="#FFFFFF" stroke-linejoin="round" xlink:href="#path-9"></use>
                            </g>
                            <g id="Clipped" transform="translate(0.000000, 4.303448)">
                                <mask id="mask-12" fill="white">
                                    <use xlink:href="#path-11"></use>
                                </mask>
                                <use id="Path" stroke="#FFFFFF" stroke-width="0.5" fill="#FFFFFF" stroke-linejoin="round" xlink:href="#path-11"></use>
                            </g>
                            <g id="Clipped" transform="translate(7.466667, 7.531034)">
                                <mask id="mask-14" fill="white">
                                    <use xlink:href="#path-13"></use>
                                </mask>
                                <use id="Path" stroke="#FFFFFF" stroke-width="0.5" fill="#FFFFFF" stroke-linejoin="round" xlink:href="#path-13"></use>
                            </g>
                            <g id="Clipped" transform="translate(0.000000, 6.455172)">
                                <mask id="mask-16" fill="white">
                                    <use xlink:href="#path-15"></use>
                                </mask>
                                <use id="Path" stroke="#FFFFFF" stroke-width="0.5" fill="#FFFFFF" stroke-linejoin="round" xlink:href="#path-15"></use>
                            </g>
                        </g>
                        <g id="Group-8" transform="translate(0.000000, 11.537323)" stroke="#FFFFFF">
                            <path d="M6.8641187,2.44702138 C7.07780759,3.37495241 6.8689187,4.62555241 5.52029648,6.1739869 C4.57274092,5.31652483 4.07505203,4.21367655 4.05709648,3.18004207 C4.03905203,2.13520069 4.50936314,1.14824966 5.53060759,0.52606069 C6.03078537,0.885497241 6.65522981,1.54006966 6.8641187,2.44702138 Z M5.43247426,0.0654482759 C4.18065203,0.765583448 3.59122981,1.94450414 3.61274092,3.18784207 C3.6337187,4.3981869 4.23176314,5.65622828 5.32669648,6.59868345 L5.32669648,8.94594552 C5.10296314,8.39214552 4.7441187,7.83664207 4.27762981,7.36496621 C3.31087426,6.38763517 1.8617187,5.75493862 0.186252033,6.28462138 L0.0559409221,6.32586276 L0.0335409221,6.46169034 C-0.0829035224,7.16620069 0.0828742554,8.27200759 0.864029811,9.20280759 C1.65185203,10.1415869 3.04198537,10.8756834 5.3257187,10.8756834 L5.3257187,10.5958697 L5.32669648,10.5961386 L5.32669648,14.6889869 C5.10287426,14.1362628 4.74447426,13.5819248 4.27887426,13.1112352 C3.3121187,12.1338145 1.86305203,11.5011179 0.187496478,12.0308007 L0.0572742554,12.0720421 L0.0347853665,12.2078697 C-0.0816590779,12.9124697 0.0841186998,14.0181869 0.865274255,14.9489869 C1.65309648,15.8877662 3.04314092,16.6218628 5.32669648,16.6218628 L5.32669648,17.9269731 L5.75238537,17.9269731 L5.75238537,16.3352352 L5.75238537,16.3351455 L5.75238537,16.6219524 C8.03398537,16.6219524 9.38287426,15.9077593 10.1277631,14.9829662 C10.8665187,14.0659731 10.9810965,12.9783662 10.8661631,12.2828214 L10.8441187,12.1496834 L10.7171854,12.1070076 C9.33247426,11.6414283 7.93194092,12.2696421 6.9449187,13.1952421 C6.4481187,13.66118 6.04305203,14.2130076 5.78358537,14.7662697 C5.7729187,14.7889524 5.7625187,14.8116352 5.75238537,14.8344076 L5.75238537,10.8756834 C8.03327426,10.8755041 9.38198537,10.1614007 10.1267854,9.2367869 C10.865452,8.31979379 10.9800298,7.23209724 10.8650965,6.53664207 L10.843052,6.40350414 L10.7161187,6.36082828 C9.33140759,5.89524897 7.93087426,6.5233731 6.94385203,7.44906276 C6.44705203,7.91491103 6.04207426,8.46682828 5.7825187,9.02000069 C5.77220759,9.04196621 5.76216314,9.06384207 5.75238537,9.08580759 L5.75238537,6.58496621 C7.25585203,4.91029724 7.5577187,3.47787655 7.29700759,2.34553172 C7.03718537,1.2170869 6.23167426,0.448437241 5.66162981,0.0736875862 L5.54954092,7.10542736e-15 L5.43247426,0.0654482759 Z M6.18429648,9.2117731 C5.97505203,9.65771793 5.88322981,10.0792766 5.91682981,10.4261524 C7.99985203,10.3926214 9.15976314,9.72630414 9.78180759,8.95410414 C10.3791409,8.21265586 10.5072298,7.34111793 10.4449187,6.7459869 C9.31522981,6.43210414 8.13682981,6.94242138 7.2465187,7.77729034 C6.78740759,8.20781448 6.41762981,8.71427655 6.18429648,9.2117731 Z M5.91789648,16.1723317 C5.88420759,15.8254559 5.9761187,15.4039869 6.18527426,14.9579524 C6.41869648,14.4604559 6.78847426,13.9540834 7.24749648,13.5235593 C8.13789648,12.6886007 9.31629648,12.1782834 10.4458965,12.4921662 C10.5082965,13.0872972 10.3801187,13.9588352 9.78287426,14.7003731 C9.16082981,15.4724834 8.00082981,16.1388903 5.91789648,16.1723317 Z M4.93665203,14.9123179 C5.11629648,15.3759248 5.18145203,15.8155041 5.13202981,16.1717041 C3.06687426,16.131449 1.86847426,15.4506076 1.20447426,14.6594007 C0.564740922,13.8971524 0.400296478,13.0090283 0.455585367,12.4184697 C1.88074092,12.0238972 3.11282981,12.5670283 3.96420759,13.4278076 C4.40420759,13.8725869 4.73745203,14.3982352 4.93665203,14.9123179 Z M5.13078537,10.4255248 C5.18020759,10.0693248 5.11496314,9.62974552 4.9353187,9.16613862 C4.73620759,8.65205586 4.40296314,8.12640759 3.96296314,7.68162828 C3.11158537,6.82084897 1.87949648,6.27762828 0.454340922,6.67229034 C0.399052033,7.26284897 0.563496478,8.15088345 1.20322981,8.91313172 C1.86722981,9.70433862 3.06562981,10.3852697 5.13078537,10.4255248 Z" id="Shape" stroke-width="0.5" fill="#FFFFFF"></path>
                            <path d="M3.50740759,18.5661248 C4.10002981,18.2673041 6.08518537,17.8488834 7.50740759,18.5661248" id="Path" stroke-linecap="round" stroke-linejoin="round"></path>
                        </g>
                        <g id="Group-4" transform="translate(14.999859, 17.094626)" stroke="#FFFFFF">
                            <path d="M3.11946112,1.8332125 C2.96835112,2.4656625 3.10758112,3.3275375 4.06419112,4.4053625 C4.72767112,3.8070375 5.07354112,3.05025 5.08623112,2.3438625 C5.09910112,1.6268875 4.77060112,0.9499875 4.05438112,0.514675 C3.69636112,0.7709625 3.26580112,1.22045 3.11946112,1.8332125 Z M4.15356112,0.063875 C5.10351112,0.5760125 5.55252112,1.4405125 5.53614112,2.351475 C5.51994112,3.25045 5.05257112,4.1811 4.20306112,4.86885 L4.20306112,6.3268625 C4.37352112,5.9651375 4.62417112,5.60805 4.94007112,5.300225 C5.67006112,4.5887625 6.76887112,4.1250125 8.03949112,4.5122 L8.17143112,4.5523625 L8.19411112,4.684925 C8.28330112,5.2052 8.15622112,6.0144875 7.56393112,6.6948875 C6.96471112,7.3829875 5.91360112,7.913325 4.20387112,7.913325 L4.20387112,7.654675 L4.20306112,7.65485 L4.20306112,10.4391875 C4.37352112,10.078075 4.62381112,9.721775 4.93908112,9.414475 C5.66916112,8.7031 6.76788112,8.23935 8.03850112,8.6265375 L8.17044112,8.6667 L8.19321112,8.7992625 C8.28231112,9.3195375 8.15532112,10.128825 7.56294112,10.8091375 C6.96381112,11.497325 5.91270112,12.027575 4.20306112,12.027575 L4.20306112,12.9038 L3.88689112,12.9038 L3.88689112,12.0276625 C2.17950112,12.0276625 1.15809112,11.5119375 0.590371122,10.8325875 C0.0289511216,10.16085 -0.0583488784,9.3643375 0.0293111216,8.8529875 L0.0515411216,8.72305 L0.180061122,8.6814 C1.23783112,8.338575 2.30037112,8.80285 3.04197112,9.4731875 C3.39693112,9.79405 3.69015112,10.1714375 3.88689112,10.553725 L3.88689112,7.913325 C2.17986112,7.91315 1.15863112,7.3975125 0.591001122,6.7183375 C0.0295811216,6.0465125 -0.0577188784,5.2500875 0.0299411216,4.73865 L0.0522611216,4.6087125 L0.180781122,4.5670625 C1.23846112,4.224325 2.30100112,4.6885125 3.04260112,5.35885 C3.39711112,5.6793625 3.69015112,6.0563125 3.88689112,6.4381625 L3.88689112,4.8692875 L3.87861112,4.8605375 C2.72157112,3.6353625 2.47965112,2.577575 2.68107112,1.73425 C2.87889112,0.9064125 3.49062112,0.3450125 3.92154112,0.071925 L4.03503112,1.0658141e-14 L4.15356112,0.063875 Z M3.51186112,6.6885875 C3.65316112,6.9789125 3.71850112,7.2494625 3.70887112,7.4738125 C2.21028112,7.4393375 1.38273112,6.9719125 0.940291122,6.44245 C0.521881122,5.941775 0.422071122,5.355875 0.456901122,4.9441 C1.25655112,4.748625 2.09364112,5.09845 2.73615112,5.679275 C3.07212112,5.9829 3.34203112,6.3396375 3.51186112,6.6885875 Z M3.70824112,11.5880625 C3.71787112,11.3638 3.65253112,11.09325 3.51123112,10.802925 C3.34140112,10.4538875 3.07140112,10.0972375 2.73552112,9.793525 C2.09301112,9.2127875 1.25592112,8.8629625 0.456271122,9.0584375 C0.421351122,9.470125 0.521251122,10.0561125 0.939571122,10.5567 C1.38210112,11.08625 2.20956112,11.553675 3.70824112,11.5880625 Z M4.54875112,10.766525 C4.42680112,11.0698 4.37901112,11.35435 4.40106112,11.5875375 C5.88822112,11.5486 6.74547112,11.0709375 7.21941112,10.5265125 C7.66860112,10.0106125 7.79352112,9.4131625 7.76517112,9.0054125 C6.74889112,8.75 5.87031112,9.126425 5.25768112,9.723525 C4.93656112,10.036425 4.69365112,10.4059375 4.54875112,10.766525 Z M4.40196112,7.4732 C4.38000112,7.2400125 4.42779112,6.95555 4.54974112,6.6521875 C4.69464112,6.2916875 4.93755112,5.9220875 5.25858112,5.6091875 C5.87130112,5.0120875 6.74979112,4.6356625 7.76607112,4.891075 C7.79451112,5.298825 7.66959112,5.896275 7.22040112,6.412175 C6.74646112,6.9566 5.88921112,7.4342625 4.40196112,7.4732 Z" id="Shape" stroke-width="0.5" fill="#FFFFFF"></path>
                            <path d="M5.96985112,13.125 C4.61985112,12.741575 3.71985112,12.741575 2.36985112,13.125" id="Path" stroke-width="0.899999976" stroke-linecap="round" stroke-linejoin="round"></path>
                        </g>
                    </g>
                </g>
            </g>
        </g>
    </g>
</svg>