<?xml version="1.0" encoding="UTF-8"?>
<svg width="36px" height="34px" viewBox="0 0 36 34" version="1.1" xmlns="http://www.w3.org/2000/svg" xmlns:xlink="http://www.w3.org/1999/xlink">
    <!-- Generator: Sketch 55.2 (78181) - https://sketchapp.com -->
    <title>Icon/Graph view_Selected</title>
    <desc>Created with Sketch.</desc>
    <g id="Page-1" stroke="none" stroke-width="1" fill="none" fill-rule="evenodd">
        <g id="Icons-2" transform="translate(-66.000000, -634.000000)" fill-rule="nonzero">
            <g id="Icon/Graph-view_Selected" transform="translate(66.000000, 634.000000)">
                <path d="M30.7279,0 L5.1878,0 C2.3227,0 8.52651283e-14,2.328 8.52651283e-14,5.2 L8.52651283e-14,28.8 C8.52651283e-14,31.672 2.3227,34 5.1878,34 L30.7279,34 C33.593,34 35.916,31.672 35.916,28.8 L35.916,5.2 C35.916,2.328 33.593,0 30.7279,0 Z" id="Path" fill="#327F93"></path>
                <path d="M23.9417,19.996 C23.9417,18.893 24.8351,18 25.9372,18 L25.9372,18 C27.0393,18 27.9328,18.893 27.9328,19.996 L27.9328,26.004 C27.9328,27.107 27.0393,28 25.9372,28 L25.9372,28 C24.8351,28 23.9417,27.107 23.9417,26.004 L23.9417,19.996 Z" id="Path" fill="#FFFFFF"></path>
                <path d="M15.9616,15.996 C15.9616,14.893 16.8551,14 17.9572,14 L17.9572,14 C19.0593,14 19.9527,14.893 19.9527,15.996 L19.9527,26.004 C19.9527,27.107 19.0593,28 17.9572,28 L17.9572,28 C16.8551,28 15.9616,27.107 15.9616,26.004 L15.9616,15.996 Z" id="Path" fill="#FFFFFF"></path>
                <path d="M7.9791,8.996 C7.9791,7.893 8.8725,7 9.9746,7 L9.9746,7 C11.0767,7 11.9702,7.893 11.9702,8.996 L11.9702,26.004 C11.9702,27.107 11.0767,28 9.9746,28 L9.9746,28 C8.8725,28 7.9791,27.107 7.9791,26.004 L7.9791,8.996 Z" id="Path" fill="#FFFFFF"></path>
            </g>
        </g>
    </g>
</svg>