<?xml version="1.0" encoding="UTF-8"?>
<svg width="15px" height="21px" viewBox="0 0 15 21" version="1.1" xmlns="http://www.w3.org/2000/svg" xmlns:xlink="http://www.w3.org/1999/xlink">
    <!-- Generator: Sketch 55.2 (78181) - https://sketchapp.com -->
    <title>Icon/Location</title>
    <desc>Created with Sketch.</desc>
    <g id="Page-1" stroke="none" stroke-width="1" fill="none" fill-rule="evenodd">
        <g id="Icons-2" transform="translate(-66.000000, -334.000000)">
            <g id="Icon/Location" transform="translate(67.000000, 335.000000)">
                <path d="M6.6383,18.822 C11.0638,13.076 13.2766,8.993 13.2766,6.573 C13.2766,2.943 10.3045,0 6.6383,0 C2.9721,0 7.10542736e-14,2.943 7.10542736e-14,6.573 C7.10542736e-14,8.993 2.2128,13.076 6.6383,18.822 Z" id="Path" stroke="#272B2E" stroke-width="1.2" stroke-linecap="round" stroke-linejoin="round"></path>
                <path d="M6.6383,7.058 C7.6382,7.058 8.4488,6.268 8.4488,5.294 C8.4488,4.319 7.6382,3.529 6.6383,3.529 C5.6384,3.529 4.8279,4.319 4.8279,5.294 C4.8279,6.268 5.6384,7.058 6.6383,7.058 Z" id="Path" fill="#272B2E" fill-rule="nonzero"></path>
            </g>
        </g>
    </g>
</svg>