<?xml version="1.0" encoding="UTF-8"?>
<svg width="17px" height="20px" viewBox="0 0 17 20" version="1.1" xmlns="http://www.w3.org/2000/svg" xmlns:xlink="http://www.w3.org/1999/xlink">
    <!-- Generator: Sketch 55.2 (78181) - https://sketchapp.com -->
    <title>Icon/Logout_Header</title>
    <desc>Created with Sketch.</desc>
    <g id="Page-1" stroke="none" stroke-width="1" fill="none" fill-rule="evenodd">
        <g id="Icons-2" transform="translate(-449.000000, -1016.000000)" fill="#272B2E" fill-rule="nonzero">
            <g id="Icon/Logout_Header" transform="translate(449.400000, 1016.400000)">
                <path d="M8.6,1.2 C8.931,1.2 9.2,0.93 9.2,0.6 C9.2,0.27 8.931,5.86197757e-14 8.6,5.86197757e-14 L8.6,1.2 Z M8.6,19.2 C8.931,19.2 9.2,18.93 9.2,18.6 C9.2,18.27 8.931,18 8.6,18 L8.6,19.2 Z M3.6,1.2 L8.6,1.2 L8.6,5.86197757e-14 L3.6,5.86197757e-14 L3.6,1.2 Z M8.6,18 L3.6,18 L3.6,19.2 L8.6,19.2 L8.6,18 Z M1.2,15.6 L1.2,3.6 L-1.13686838e-13,3.6 L-1.13686838e-13,15.6 L1.2,15.6 Z M3.6,18 C2.275,18 1.2,16.93 1.2,15.6 L-1.13686838e-13,15.6 C-1.13686838e-13,17.59 1.612,19.2 3.6,19.2 L3.6,18 Z M3.6,5.86197757e-14 C1.612,5.86197757e-14 -1.13686838e-13,1.61 -1.13686838e-13,3.6 L1.2,3.6 C1.2,2.27 2.275,1.2 3.6,1.2 L3.6,5.86197757e-14 Z" id="Shape"></path>
                <path d="M6.6,9 C6.269,9 6,9.27 6,9.6 C6,9.93 6.269,10.2 6.6,10.2 L6.6,9 Z M16.024,10.02 C16.259,9.79 16.259,9.41 16.024,9.18 L12.206,5.36 C11.972,5.12 11.592,5.12 11.357,5.36 C11.123,5.59 11.123,5.97 11.357,6.21 L14.751,9.6 L11.357,12.99 C11.123,13.23 11.123,13.61 11.357,13.84 C11.592,14.08 11.972,14.08 12.206,13.84 L16.024,10.02 Z M6.6,10.2 L15.6,10.2 L15.6,9 L6.6,9 L6.6,10.2 Z" id="Shape"></path>
            </g>
        </g>
    </g>
</svg>