<?xml version="1.0" encoding="UTF-8"?>
<svg width="22px" height="26px" viewBox="0 0 22 26" version="1.1" xmlns="http://www.w3.org/2000/svg" xmlns:xlink="http://www.w3.org/1999/xlink">
    <!-- Generator: Sketch 55.2 (78181) - https://sketchapp.com -->
    <title>Icon/Notification_Header</title>
    <desc>Created with Sketch.</desc>
    <g id="Page-1" stroke="none" stroke-width="1" fill="none" fill-rule="evenodd">
        <g id="Icons-2" transform="translate(-75.000000, -1013.000000)" fill="#272B2E" fill-rule="nonzero">
            <g id="Icon/Notification_Header" transform="translate(74.999986, 1013.000000)">
                <path d="M10.965214,0 C9.18071398,0 7.72861398,1.55 7.72861398,3.46 L7.72861398,4.5 L9.40271398,4.5 L9.40271398,3.46 C9.40271398,2.54 10.103914,1.79 10.965214,1.79 C11.826814,1.79 12.528014,2.54 12.528014,3.46 L12.528014,4.5 L14.202114,4.5 L14.202114,3.46 C14.202114,1.55 12.749814,0 10.965214,0 Z" id="Path"></path>
                <path d="M13.253914,21.8 C13.253914,23.13 12.239914,24.21 10.993814,24.21 L10.938014,24.21 C9.69201398,24.21 8.67801398,23.13 8.67801398,21.8 L7.00391398,21.8 C7.00391398,24.12 8.76871398,26 10.938014,26 L10.993814,26 C13.163114,26 14.927914,24.12 14.927914,21.8 L13.253914,21.8 Z" id="Path"></path>
                <path d="M21.797514,21.46 L19.419414,17.51 L19.419414,12.43 C19.419414,7.4 15.626814,3.31 10.965314,3.31 C6.30351398,3.31 2.51111398,7.4 2.51111398,12.43 L2.51111398,17.51 L0.133113984,21.46 C-0.032686016,21.74 -0.044386016,22.09 0.102413984,22.37 C0.249113984,22.66 0.530713984,22.84 0.837013984,22.84 L21.093614,22.84 C21.399914,22.84 21.681414,22.66 21.827914,22.37 C21.974914,22.09 21.963214,21.74 21.797514,21.46 Z M2.37021398,21.05 L4.05211398,18.25 C4.13891398,18.11 4.18521398,17.94 4.18521398,17.77 L4.18521398,12.43 C4.18521398,8.39 7.22671398,5.1 10.965314,5.1 C14.704114,5.1 17.745314,8.39 17.745314,12.43 L17.745314,17.77 C17.745314,17.94 17.791414,18.11 17.878214,18.25 L19.560114,21.05 L2.37021398,21.05 Z" id="Shape"></path>
            </g>
        </g>
    </g>
</svg>