<?xml version="1.0" encoding="UTF-8"?>
<svg width="36px" height="34px" viewBox="0 0 36 34" version="1.1" xmlns="http://www.w3.org/2000/svg" xmlns:xlink="http://www.w3.org/1999/xlink">
    <!-- Generator: Sketch 55.2 (78181) - https://sketchapp.com -->
    <title>Icon/Table view_Selected</title>
    <desc>Created with Sketch.</desc>
    <g id="Page-1" stroke="none" stroke-width="1" fill="none" fill-rule="evenodd">
        <g id="Icons-2" transform="translate(-191.000000, -634.000000)">
            <g id="Icon/Table-view_Selected" transform="translate(191.000000, 634.000000)">
                <path d="M30.8,0 L5.2,0 C2.328,0 0,2.328 0,5.2 L0,28.8 C0,31.672 2.328,34 5.2,34 L30.8,34 C33.672,34 36,31.672 36,28.8 L36,5.2 C36,2.328 33.672,0 30.8,0 Z" id="Path" fill="#327F93" fill-rule="nonzero"></path>
                <path d="M6.707,6 L29.707,6 C30.811,6 31.707,6.895 31.707,8 L31.707,26 C31.707,27.105 30.811,28 29.707,28 L6.707,28 C5.602,28 4.707,27.105 4.707,26 L4.707,8 C4.707,6.895 5.602,6 6.707,6 Z" id="Path" stroke="#FFFFFF" stroke-width="1.2" stroke-linecap="round" stroke-linejoin="round"></path>
                <path d="M6.707,6 L29.707,6 C30.811,6 31.707,6.895 31.707,8 L31.707,10 L4.707,10 L4.707,8 C4.707,6.895 5.602,6 6.707,6 Z" id="Path" fill="#FFFFFF"></path>
                <path d="M12.707,13 L7.707,13 C7.154,13 6.707,13.448 6.707,14 C6.707,14.552 7.154,15 7.707,15 L12.707,15 C13.259,15 13.707,14.552 13.707,14 C13.707,13.448 13.259,13 12.707,13 Z" id="Path" fill="#FFFFFF" fill-rule="nonzero"></path>
                <path d="M20.707,13 L15.707,13 C15.154,13 14.707,13.448 14.707,14 C14.707,14.552 15.154,15 15.707,15 L20.707,15 C21.259,15 21.707,14.552 21.707,14 C21.707,13.448 21.259,13 20.707,13 Z" id="Path" fill="#FFFFFF" fill-rule="nonzero"></path>
                <path d="M28.707,13 L23.707,13 C23.154,13 22.707,13.448 22.707,14 C22.707,14.552 23.154,15 23.707,15 L28.707,15 C29.259,15 29.707,14.552 29.707,14 C29.707,13.448 29.259,13 28.707,13 Z" id="Path" fill="#FFFFFF" fill-rule="nonzero"></path>
                <path d="M12.707,18 L7.707,18 C7.154,18 6.707,18.448 6.707,19 C6.707,19.552 7.154,20 7.707,20 L12.707,20 C13.259,20 13.707,19.552 13.707,19 C13.707,18.448 13.259,18 12.707,18 Z" id="Path" fill="#FFFFFF" fill-rule="nonzero"></path>
                <path d="M20.707,18 L15.707,18 C15.154,18 14.707,18.448 14.707,19 C14.707,19.552 15.154,20 15.707,20 L20.707,20 C21.259,20 21.707,19.552 21.707,19 C21.707,18.448 21.259,18 20.707,18 Z" id="Path" fill="#FFFFFF" fill-rule="nonzero"></path>
                <path d="M28.707,18 L23.707,18 C23.154,18 22.707,18.448 22.707,19 C22.707,19.552 23.154,20 23.707,20 L28.707,20 C29.259,20 29.707,19.552 29.707,19 C29.707,18.448 29.259,18 28.707,18 Z" id="Path" fill="#FFFFFF" fill-rule="nonzero"></path>
                <path d="M12.707,23 L7.707,23 C7.154,23 6.707,23.448 6.707,24 C6.707,24.552 7.154,25 7.707,25 L12.707,25 C13.259,25 13.707,24.552 13.707,24 C13.707,23.448 13.259,23 12.707,23 Z" id="Path" fill="#FFFFFF" fill-rule="nonzero"></path>
                <path d="M20.707,23 L15.707,23 C15.154,23 14.707,23.448 14.707,24 C14.707,24.552 15.154,25 15.707,25 L20.707,25 C21.259,25 21.707,24.552 21.707,24 C21.707,23.448 21.259,23 20.707,23 Z" id="Path" fill="#FFFFFF" fill-rule="nonzero"></path>
                <path d="M28.707,23 L23.707,23 C23.154,23 22.707,23.448 22.707,24 C22.707,24.552 23.154,25 23.707,25 L28.707,25 C29.259,25 29.707,24.552 29.707,24 C29.707,23.448 29.259,23 28.707,23 Z" id="Path" fill="#FFFFFF" fill-rule="nonzero"></path>
            </g>
        </g>
    </g>
</svg>