<?xml version="1.0" encoding="UTF-8"?>
<svg width="22px" height="22px" viewBox="0 0 22 22" version="1.1" xmlns="http://www.w3.org/2000/svg" xmlns:xlink="http://www.w3.org/1999/xlink">
    <!-- Generator: Sketch 55.2 (78181) - https://sketchapp.com -->
    <title>Icon/User</title>
    <desc>Created with Sketch.</desc>
    <g id="Page-1" stroke="none" stroke-width="1" fill="none" fill-rule="evenodd">
        <g id="Icons-2" transform="translate(-301.000000, -205.000000)" stroke="#272B2E">
            <g id="Icon/User" transform="translate(302.000023, 206.000000)">
                <path d="M9.81397695,8.223 C12.182977,8.223 14.103977,6.382 14.103977,4.112 C14.103977,1.841 12.182977,0 9.81397695,0 C7.44497695,0 5.52397695,1.841 5.52397695,4.112 C5.52397695,6.382 7.44497695,8.223 9.81397695,8.223 Z" id="Path" stroke-width="2"></path>
                <path d="M10.215977,19.885 C10.478977,19.885 10.691977,19.681 10.691977,19.428 C10.691977,19.176 10.478977,18.971 10.215977,18.971 L10.215977,19.885 Z M1.07797695,15.232 L1.53497695,15.364 L1.07797695,15.232 Z M10.081977,8.582 L10.065977,8.126 L10.081977,8.582 Z M10.215977,18.971 C7.87897695,18.971 6.02097695,19.047 4.60797695,19.075 C3.16397695,19.104 2.23397695,19.08 1.65297695,18.917 C1.37697695,18.839 1.22497695,18.742 1.13497695,18.639 C1.04697695,18.539 0.977976955,18.39 0.958976955,18.133 C0.916976955,17.584 1.10897695,16.727 1.53497695,15.364 L0.621976955,15.101 C0.203976955,16.438 -0.0490230453,17.455 0.00797695468,18.2 C0.0379769547,18.589 0.153976955,18.941 0.404976955,19.227 C0.654976955,19.511 0.995976955,19.685 1.38497695,19.794 C2.13397695,20.004 3.22197695,20.017 4.62797695,19.989 C6.06597695,19.96 7.89197695,19.885 10.215977,19.885 L10.215977,18.971 Z M1.53497695,15.364 C1.83797695,14.395 2.33397695,12.878 3.56597695,11.57 C4.78297695,10.278 6.75697695,9.15 10.098977,9.039 L10.065977,8.126 C6.48497695,8.245 4.26097695,9.469 2.85897695,10.958 C1.47197695,12.43 0.927976955,14.123 0.621976955,15.101 L1.53497695,15.364 Z M10.098977,9.039 C11.027977,9.008 12.071977,9.215 13.266977,9.594 C14.456977,9.971 14.930977,9.159 13.565977,8.726 C12.205977,8.295 11.023977,8.094 10.065977,8.126 L10.098977,9.039 Z" id="Shape" fill="#272B2E" fill-rule="nonzero"></path>
                <path d="M9.78397695,19.885 C9.52097695,19.885 9.30797695,19.681 9.30797695,19.428 C9.30797695,19.176 9.52097695,18.971 9.78397695,18.971 L9.78397695,19.885 Z M18.921977,15.232 L18.464977,15.364 L18.921977,15.232 Z M9.91797695,8.582 L9.93397695,8.126 L9.91797695,8.582 Z M9.78397695,18.971 C12.120977,18.971 13.978977,19.047 15.391977,19.075 C16.835977,19.104 17.765977,19.08 18.346977,18.917 C18.622977,18.839 18.774977,18.742 18.864977,18.639 C18.952977,18.539 19.021977,18.39 19.040977,18.133 C19.082977,17.584 18.890977,16.727 18.464977,15.364 L19.377977,15.101 C19.795977,16.438 20.048977,17.455 19.991977,18.2 C19.961977,18.589 19.845977,18.941 19.594977,19.227 C19.344977,19.511 19.003977,19.685 18.614977,19.794 C17.865977,20.004 16.777977,20.017 15.371977,19.989 C13.933977,19.96 12.107977,19.885 9.78397695,19.885 L9.78397695,18.971 Z M18.464977,15.364 C18.161977,14.395 17.665977,12.878 16.433977,11.57 C15.216977,10.278 13.242977,9.15 9.90097695,9.039 L9.93397695,8.126 C13.514977,8.245 15.738977,9.469 17.140977,10.958 C18.527977,12.43 19.071977,14.123 19.377977,15.101 L18.464977,15.364 Z M9.90097695,9.039 C8.97197695,9.008 7.85197695,9.215 6.65697695,9.594 C5.46697695,9.971 4.99297695,9.159 6.35797695,8.726 C7.71797695,8.295 8.97597695,8.094 9.93397695,8.126 L9.90097695,9.039 Z" id="Shape" fill="#272B2E" fill-rule="nonzero"></path>
            </g>
        </g>
    </g>
</svg>