<?xml version="1.0" encoding="utf-8"?>
<!-- Generator: Adobe Illustrator 26.4.0, SVG Export Plug-In . SVG Version: 6.00 Build 0)  -->
<svg version="1.1" id="Layer_1" xmlns="http://www.w3.org/2000/svg" xmlns:xlink="http://www.w3.org/1999/xlink" x="0px" y="0px"
	 viewBox="0 0 25 30" style="enable-background:new 0 0 25 30;" xml:space="preserve">
<style type="text/css">
	.st0{fill-rule:evenodd;clip-rule:evenodd;fill:#FFFFFF;stroke:#175788;stroke-width:0.25;}
	.st1{fill:none;stroke:#175788;stroke-width:0.25;stroke-linecap:round;stroke-linejoin:round;}
	.st2{fill:#FFFFFF;stroke:#175788;stroke-width:0.25;}
	.st3{fill:none;stroke:#175788;stroke-width:0.25;}
</style>
<g id="Page-1">
	<g id="Icons-1" transform="translate(-1044.000000, -462.000000)">
		<g id="Icon_x2F_Crop-cutting-experiments_x2F_Selected" transform="translate(1044.998880, 463.203512)">
			<path id="Shape" class="st0" d="M18.1,16.7c-0.2,0.6,0,1.5,0.9,2.6c0.7-0.6,1-1.4,1-2.1s-0.3-1.4-1-1.8
				C18.7,15.7,18.3,16.1,18.1,16.7z M19.2,15c1,0.5,1.4,1.4,1.4,2.3s-0.5,1.8-1.3,2.5v1.5c0.2-0.4,0.4-0.7,0.7-1
				c0.7-0.7,1.8-1.2,3.1-0.8h0.1v0.1c0.1,0.5,0,1.3-0.6,2s-1.6,1.2-3.4,1.2v-0.3l0,0v2.8c0.2-0.4,0.4-0.7,0.7-1
				c0.7-0.7,1.8-1.2,3.1-0.8h0.1v0.1c0.1,0.5,0,1.3-0.6,2s-1.6,1.2-3.4,1.2v0.9h-0.3v-0.9c-1.7,0-2.7-0.5-3.3-1.2
				c-0.6-0.7-0.7-1.5-0.6-2v-0.1H15c1.1-0.3,2.1,0.1,2.9,0.8c0.4,0.3,0.6,0.7,0.8,1.1v-2.6c-1.7,0-2.7-0.5-3.3-1.2
				c-0.6-0.7-0.7-1.5-0.6-2v-0.1h0.1c1.1-0.3,2.1,0.1,2.9,0.8c0.4,0.3,0.6,0.7,0.8,1.1v-1.6l0,0c-1.2-1.2-1.4-2.3-1.2-3.1
				c0.2-0.8,0.8-1.4,1.2-1.7l0.1-0.1L19.2,15z M18.5,21.6c0.1,0.3,0.2,0.6,0.2,0.8c-1.5,0-2.3-0.5-2.8-1c-0.4-0.5-0.5-1.1-0.5-1.5
				c0.8-0.2,1.6,0.2,2.3,0.7C18.1,20.9,18.3,21.2,18.5,21.6z M18.7,26.5c0-0.2-0.1-0.5-0.2-0.8c-0.2-0.3-0.4-0.7-0.8-1
				c-0.6-0.6-1.5-0.9-2.3-0.7c0,0.4,0.1,1,0.5,1.5C16.4,26,17.2,26.4,18.7,26.5z M19.6,25.7c-0.1,0.3-0.2,0.6-0.1,0.8
				c1.5,0,2.4-0.5,2.8-1.1c0.5-0.5,0.6-1.1,0.6-1.5c-1-0.3-1.9,0.1-2.5,0.7C19.9,24.9,19.7,25.3,19.6,25.7z M19.4,22.4
				c0-0.2,0-0.5,0.1-0.8c0.1-0.4,0.4-0.7,0.7-1c0.6-0.6,1.5-1,2.5-0.7c0,0.4-0.1,1-0.6,1.5C21.8,21.8,20.9,22.3,19.4,22.4z"/>
			<path id="Path" class="st1" d="M21,28c-1.3-0.4-2.2-0.4-3.6,0"/>
			<path id="Shape_00000161629687915035719920000018050375697852823229_" class="st0" d="M6.9,11.8c0.2,0.9,0,2.2-1.3,3.7
				c-0.9-0.9-1.4-2-1.5-3c0-1,0.4-2,1.5-2.7C6,10.3,6.7,10.9,6.9,11.8z M5.4,9.5c-1.2,0.7-1.8,1.9-1.8,3.1s0.6,2.5,1.7,3.4v2.3
				c-0.2-0.6-0.6-1.1-1-1.6c-1-1-2.4-1.6-4.1-1.1H0.1v0.1c-0.1,0.7,0,1.8,0.8,2.7c0.8,0.9,2.2,1.7,4.5,1.7V20l0,0v4.1
				c-0.2-0.6-0.6-1.1-1-1.6c-1-1-2.4-1.6-4.1-1.1H0.2v0.1c-0.1,0.7,0,1.8,0.8,2.7C1.7,25.3,3,26,5.3,26v1.3h0.4v-1.6l0,0V26
				c2.3,0,3.6-0.7,4.4-1.6c0.7-0.9,0.8-2,0.7-2.7v-0.1h-0.1c-1.4-0.5-2.8,0.2-3.8,1.1c-0.5,0.5-0.9,1-1.2,1.6c0,0,0,0,0,0.1v-4
				c2.3,0,3.6-0.7,4.4-1.6c0.7-0.9,0.8-2,0.7-2.7V16h-0.1c-1.4-0.5-2.8,0.2-3.8,1.1c-0.5,0.5-0.9,1-1.2,1.6c0,0,0,0,0,0.1V16
				c1.5-1.7,1.8-3.1,1.6-4.2c-0.3-1.2-1.1-2-1.6-2.3L5.6,9.4L5.4,9.5z M6.2,18.6C6,19,5.9,19.5,5.9,19.8c2.1,0,3.2-0.7,3.9-1.5
				c0.6-0.7,0.7-1.6,0.7-2.2c-1.1-0.3-2.3,0.2-3.2,1C6.8,17.6,6.4,18.1,6.2,18.6z M5.9,25.6c0-0.3,0.1-0.8,0.3-1.2
				c0.2-0.5,0.6-1,1.1-1.4c0.9-0.8,2.1-1.3,3.2-1c0.1,0.6-0.1,1.5-0.7,2.2C9.2,24.9,8,25.5,5.9,25.6z M4.9,24.3
				c0.2,0.5,0.2,0.9,0.2,1.3c-2.1,0-3.3-0.7-3.9-1.5s-0.8-1.7-0.7-2.2c1.4-0.4,2.7,0.1,3.5,1C4.4,23.3,4.7,23.8,4.9,24.3z M5.1,19.8
				c0-0.4,0-0.8-0.2-1.3s-0.5-1-1-1.5c-0.9-0.9-2.1-1.4-3.5-1c-0.1,0.6,0.1,1.5,0.7,2.2C1.9,19.1,3.1,19.8,5.1,19.8z"/>
			<path id="Path_00000108991907080248016780000004928754099199217811_" class="st1" d="M3.5,28c0.6-0.3,2.6-0.7,4,0"/>
			<path id="Shape_00000116196441260672577840000003397097755713740455_" class="st2" d="M14.1,9.9c-0.1,0.2,0,0.4,0.2,0.4
				c0.2,0.1,0.4,0,0.4-0.2L14.1,9.9z M18.3,2.3L18.4,2l-0.6-0.3L17.7,2L18.3,2.3z M15.2,8.1l-0.3-0.2l0,0L15.2,8.1z M14.7,10.2
				l0.8-2L14.9,8l-0.8,2L14.7,10.2z M15.5,8.2l2.8-6L17.7,2l-2.8,6L15.5,8.2z"/>
			<path id="Shape_00000005962786016383845550000009618535970289491133_" class="st2" d="M11.5,6.2c-0.2,0-0.3,0.2-0.3,0.4
				c0,0.2,0.2,0.3,0.4,0.3L11.5,6.2z M11.7,6.8l9-1.9l-0.1-0.7l-9,1.9L11.7,6.8z"/>
			<path id="Path_00000111899610137379747380000017961761357301270150_" class="st3" d="M18.7,1.9c0.5-0.2,0.7-0.8,0.5-1.3
				s-0.8-0.7-1.3-0.5s-0.7,0.8-0.5,1.3C17.6,1.9,18.2,2.1,18.7,1.9z"/>
			<path id="Path_00000178912693163501716850000014710903611546985112_" class="st3" d="M21.5,5.4c0.5-0.1,0.9-0.5,0.9-1.1
				c-0.1-0.5-0.5-1-1.1-0.9s-1,0.5-0.9,1.1C20.5,5,21,5.4,21.5,5.4z"/>
		</g>
	</g>
</g>
</svg>
