<?xml version="1.0" encoding="utf-8"?>
<!-- Generator: Adobe Illustrator 26.4.0, SVG Export Plug-In . SVG Version: 6.00 Build 0)  -->
<svg version="1.1" id="Layer_1" xmlns="http://www.w3.org/2000/svg" xmlns:xlink="http://www.w3.org/1999/xlink" x="0px" y="0px"
	 viewBox="0 0 25 31" style="enable-background:new 0 0 25 31;" xml:space="preserve">
<style type="text/css">
	.st0{fill:none;stroke:#008000;stroke-width:0.25;}
	.st1{fill:#FFFFFF;stroke:#008000;stroke-width:0.25;stroke-linejoin:round;}
	.st2{fill-rule:evenodd;clip-rule:evenodd;fill:#FFFFFF;stroke:#008000;stroke-width:0.25;}
	.st3{fill:none;stroke:#008000;stroke-width:0.25;stroke-linecap:round;stroke-linejoin:round;}
</style>
<g id="Page-1">
	<g id="Icons-1" transform="translate(-813.000000, -462.000000)">
		<g id="Icon_x2F_Crop-health-monitoring_x2F_Selected" transform="translate(814.000222, 462.000000)">
			<path id="Path" class="st0" d="M14,8.2c1.5,0,2.7-1.2,2.7-2.7S15.5,2.8,14,2.8S11.3,4,11.3,5.5C11.3,7,12.5,8.2,14,8.2z"/>
			<g id="Clipped" transform="translate(12.999778, 0.000000)">
				<g id="Path_00000021092078464511398600000012401167884496727169_">
				</g>
				<path id="Path_00000173850931179750000010000003998653347653250998_" class="st1" d="M0.7,0.7c0-0.2,0.2-0.3,0.3-0.3
					c0.1,0,0.3,0.1,0.3,0.3v0.5c0,0.1-0.1,0.3-0.3,0.3c-0.1,0-0.3-0.1-0.3-0.3V0.7z"/>
			</g>
			<g id="Clipped_00000121269241919734694340000017845407012020233647_" transform="translate(12.999778, 9.000000)">
				<g id="Path_00000105422207783068454810000013921391770301691046_">
				</g>
				<path id="Path_00000121979817688347409630000016671686099248246163_" class="st1" d="M0.7,0.8c0-0.1,0.1-0.3,0.3-0.3
					c0.1,0,0.3,0.1,0.3,0.3v0.6c0,0.1-0.1,0.3-0.3,0.3C0.9,1.6,0.7,1.5,0.7,1.4V0.8z"/>
			</g>
			<g id="Clipped_00000036248197026054954590000010526656076522095272_" transform="translate(15.999778, 1.000000)">
				<g id="Path_00000175280860052124918210000015286195172505139862_">
				</g>
				<path id="Path_00000073705090001557228040000007317837935212168867_" class="st1" d="M1.4,1c0.1-0.1,0.3-0.1,0.4,0
					s0.1,0.3,0,0.4L1.4,1.8C1.3,1.9,1.1,1.9,1,1.8C0.9,1.7,0.9,1.5,1,1.4L1.4,1z"/>
			</g>
			<g id="Clipped_00000033353457850663128330000018197053520441226664_" transform="translate(8.999778, 1.000000)">
				<g id="Path_00000022550208908389881420000016768223475486774658_">
				</g>
				<path id="Path_00000097494356881019328440000017417427621325750686_" class="st1" d="M1.6,1C1.5,0.9,1.3,0.9,1.2,1
					s-0.1,0.3,0,0.4l0.4,0.4c0.1,0.1,0.3,0.1,0.4,0c0.1-0.1,0.1-0.3,0-0.4L1.6,1z"/>
			</g>
			<g id="Clipped_00000078029529357911689250000007364100970984159117_" transform="translate(16.999778, 4.000000)">
				<g id="Path_00000150103531688999751700000011276841900789582002_">
				</g>
				<path id="Path_00000008114821121487844580000012498098374039976074_" class="st1" d="M1.6,1.1c0.1,0,0.3,0.1,0.3,0.3
					c0,0.1-0.1,0.3-0.3,0.3H1.1C1,1.7,0.8,1.6,0.8,1.4c0-0.1,0.1-0.3,0.3-0.3C1.1,1.1,1.6,1.1,1.6,1.1z"/>
			</g>
			<g id="Clipped_00000117659298776280183440000017616278314077122719_" transform="translate(7.999778, 4.000000)">
				<g id="Path_00000142860868202255200740000016051519193505068470_">
				</g>
				<path id="Path_00000175304355973201425860000016528807387635681710_" class="st1" d="M1.2,1C1.1,1,0.9,1.1,0.9,1.2
					c0,0.2,0.2,0.3,0.3,0.3h0.5C1.8,1.5,2,1.4,2,1.2c0-0.1-0.1-0.3-0.3-0.3H1.2V1z"/>
			</g>
			<g id="Clipped_00000067235136645840507540000000372748612365495437_" transform="translate(15.999778, 7.000000)">
				<g id="Path_00000163759832904003434210000007539710549667671480_">
				</g>
				<path id="Path_00000090257027467950497020000008345836160432255370_" class="st1" d="M1.8,1.4c0.1,0.1,0.1,0.3,0,0.4
					s-0.3,0.1-0.4,0L1,1.5C0.9,1.4,0.9,1.3,1,1.1C1.1,1,1.3,1,1.4,1.1L1.8,1.4z"/>
			</g>
			<g id="Clipped_00000145019437398280654480000016684421054744422790_" transform="translate(8.999778, 7.000000)">
				<g id="Path_00000012444634697572636660000004199740802341986215_">
				</g>
				<path id="Path_00000036232229904552763920000003654822969936690065_" class="st1" d="M0.9,1.4c-0.1,0.1-0.1,0.3,0,0.4
					s0.3,0.1,0.4,0l0.4-0.3c0.1-0.1,0.1-0.3,0-0.4S1.4,1,1.3,1.1L0.9,1.4z"/>
			</g>
			<path id="Shape" class="st2" d="M6.9,14c0.2,0.9,0,2.2-1.3,3.7c-0.9-0.9-1.4-2-1.5-3c0-1,0.5-2,1.5-2.7C6,12.4,6.7,13.1,6.9,14z
				 M5.4,11.6c-1.3,0.7-1.8,1.9-1.8,3.1s0.6,2.5,1.7,3.4v2.3c-0.2-0.6-0.6-1.1-1-1.6c-1-1-2.4-1.6-4.1-1.1H0.1L0,18
				c-0.1,0.7,0,1.8,0.8,2.7c0.8,0.9,2.2,1.7,4.5,1.7v-0.3l0,0v4.1c-0.2-0.6-0.6-1.1-1-1.6c-1-1-2.4-1.6-4.1-1.1H0.1v0.1
				c-0.1,0.7,0,1.8,0.8,2.7C1.7,27.2,3.1,28,5.4,28v1.3h0.4v-1.6l0,0V28c2.3,0,3.6-0.7,4.4-1.6c0.7-0.9,0.9-2,0.7-2.7v-0.1h-0.1
				C9.4,23.1,8,23.8,7,24.7c-0.5,0.5-0.9,1-1.2,1.6c0,0,0,0,0,0.1v-4c2.3,0,3.6-0.7,4.4-1.6c0.7-0.9,0.9-2,0.7-2.7V18h-0.1
				C9.4,17.5,8,18.2,7,19.1c-0.5,0.5-0.9,1-1.2,1.6c0,0,0,0,0,0.1v-2.5c1.5-1.7,1.8-3.1,1.5-4.2C7,12.8,6.2,12,5.7,11.6l-0.1-0.1
				L5.4,11.6z M6.2,20.7C6,21.2,5.9,21.6,5.9,22c2.1,0,3.2-0.7,3.9-1.5c0.6-0.7,0.7-1.6,0.7-2.2c-1.1-0.3-2.3,0.2-3.2,1
				C6.8,19.7,6.4,20.3,6.2,20.7z M5.9,27.7c0-0.3,0.1-0.8,0.3-1.2c0.2-0.5,0.6-1,1.1-1.4c0.9-0.8,2.1-1.3,3.2-1
				c0.1,0.6-0.1,1.5-0.7,2.2C9.2,27,8,27.7,5.9,27.7z M4.9,26.5c0.2,0.5,0.2,0.9,0.2,1.3c-2.1,0-3.3-0.7-3.9-1.5s-0.8-1.7-0.7-2.2
				c1.4-0.4,2.7,0.1,3.5,1C4.4,25.4,4.7,25.9,4.9,26.5z M5.1,22c0-0.4,0-0.8-0.2-1.3s-0.5-1-1-1.5c-0.9-0.9-2.1-1.4-3.5-1
				c-0.1,0.6,0.1,1.5,0.7,2.2C1.9,21.2,3.1,21.9,5.1,22z"/>
			<path id="Path_00000143578881701278480300000009658202542252607109_" class="st3" d="M3.5,30.1c0.6-0.3,2.6-0.7,4,0"/>
			<path id="Shape_00000019678095921924687680000000926578487004824748_" class="st2" d="M18.1,18.9c-0.2,0.6,0,1.5,0.9,2.6
				c0.7-0.6,1-1.4,1-2.1s-0.3-1.4-1-1.8C18.7,17.9,18.3,18.3,18.1,18.9z M19.2,17.2c0.9,0.5,1.4,1.4,1.4,2.3s-0.5,1.8-1.3,2.5v1.5
				c0.2-0.4,0.4-0.7,0.7-1c0.7-0.7,1.8-1.2,3.1-0.8h0.1v0.1c0.1,0.5,0,1.3-0.6,2C22,24.5,20.9,25,19.2,25v-0.3l0,0v2.8
				c0.2-0.4,0.4-0.7,0.7-1c0.7-0.7,1.8-1.2,3.1-0.8h0.1v0.1c0.1,0.5,0,1.3-0.6,2S20.8,29,19.1,29v1h-0.3v-0.9
				c-1.7,0-2.7-0.5-3.3-1.2c-0.6-0.7-0.6-1.5-0.6-2v-0.1H15c1.1-0.3,2.1,0.1,2.9,0.8c0.4,0.3,0.6,0.7,0.8,1.1V25
				c-1.7,0-2.7-0.5-3.3-1.2c-0.6-0.7-0.6-1.5-0.6-2v-0.1h0.1c1.1-0.3,2.1,0.1,2.9,0.8c0.4,0.3,0.6,0.7,0.8,1.1V22l0,0
				c-1.2-1.2-1.4-2.3-1.2-3.1c0.2-0.8,0.8-1.4,1.2-1.7l0.1-0.1L19.2,17.2z M18.5,23.8c0.1,0.3,0.2,0.6,0.2,0.8c-1.5,0-2.3-0.5-2.8-1
				c-0.4-0.5-0.5-1.1-0.5-1.5c0.8-0.2,1.6,0.2,2.3,0.7C18.1,23.1,18.3,23.4,18.5,23.8z M18.7,28.7c0-0.2-0.1-0.5-0.2-0.8
				c-0.2-0.3-0.4-0.7-0.8-1c-0.6-0.6-1.5-0.9-2.3-0.7c0,0.4,0.1,1,0.5,1.5C16.4,28.2,17.2,28.6,18.7,28.7z M19.5,27.9
				c-0.1,0.3-0.2,0.6-0.1,0.8c1.5,0,2.3-0.5,2.8-1.1c0.4-0.5,0.6-1.1,0.5-1.5c-1-0.3-1.9,0.1-2.5,0.7C19.9,27.1,19.7,27.5,19.5,27.9
				z M19.4,24.6c0-0.2,0-0.5,0.1-0.8c0.1-0.4,0.4-0.7,0.7-1c0.6-0.6,1.5-1,2.5-0.7c0,0.4-0.1,1-0.5,1.5
				C21.7,24.1,20.9,24.5,19.4,24.6z"/>
			<path id="Path_00000045592808493873399650000017123219448364400258_" class="st3" d="M21,30.2c-1.4-0.4-2.2-0.4-3.6,0"/>
		</g>
	</g>
</g>
</svg>
