<?xml version="1.0" encoding="UTF-8"?>
<svg width="25px" height="30px" viewBox="0 0 25 30" version="1.1" xmlns="http://www.w3.org/2000/svg" xmlns:xlink="http://www.w3.org/1999/xlink">
    <!-- Generator: Sketch 55.2 (78181) - https://sketchapp.com -->
    <title>Icon/Crop cutting experiments/Selected</title>
    <desc>Created with Sketch.</desc>
    <g id="Page-1" stroke="none" stroke-width="1" fill="none" fill-rule="evenodd">
        <g id="Icons-1" transform="translate(-1044.000000, -462.000000)" stroke="#FFFFFF">
            <g id="Icon/Crop-cutting-experiments/Selected" transform="translate(1044.998880, 463.203512)">
                <path d="M18.1211196,16.7244882 C17.9711196,17.3564882 18.1111196,18.2184882 19.0611196,19.2964882 C19.7311196,18.6984882 20.0711196,17.9414882 20.0911196,17.2344882 C20.1011196,16.5174882 19.7711196,15.8404882 19.0511196,15.4054882 C18.7011196,15.6614882 18.2711196,16.1114882 18.1211196,16.7244882 Z M19.1511196,14.9544882 C20.1011196,15.4664882 20.5511196,16.3314882 20.5411196,17.2424882 C20.5211196,18.1414882 20.0511196,19.0724882 19.2011196,19.7594882 L19.2011196,21.2174882 C19.3711196,20.8564882 19.6211196,20.4994882 19.9411196,20.1914882 C20.6711196,19.4794882 21.7711196,19.0154882 23.0411196,19.4034882 L23.1711196,19.4434882 L23.1911196,19.5754882 C23.2811196,20.0964882 23.1611196,20.9054882 22.5611196,21.5854882 C21.9611196,22.2734882 20.9111196,22.8044882 19.2011196,22.8044882 L19.2011196,22.5454882 L19.2011196,22.5454882 L19.2011196,25.3304882 C19.3711196,24.9694882 19.6211196,24.6124882 19.9411196,24.3054882 C20.6711196,23.5944882 21.7711196,23.1304882 23.0411196,23.5174882 L23.1711196,23.5574882 L23.1911196,23.6904882 C23.2811196,24.2104882 23.1611196,25.0194882 22.5611196,25.7004882 C21.9611196,26.3884882 20.9111196,26.9184882 19.2011196,26.9184882 L19.2011196,27.7944882 L18.8911196,27.7944882 L18.8911196,26.9184882 C17.1811196,26.9184882 16.1611196,26.4024882 15.5911196,25.7234882 C15.0311196,25.0514882 14.9411196,24.2554882 15.0311196,23.7434882 L15.0511196,23.6144882 L15.1811196,23.5724882 C16.2411196,23.2294882 17.3011196,23.6934882 18.0411196,24.3644882 C18.4011196,24.6854882 18.6911196,25.0624882 18.8911196,25.4444882 L18.8911196,22.8044882 C17.1811196,22.8044882 16.1611196,22.2884882 15.5911196,21.6094882 C15.0311196,20.9374882 14.9411196,20.1414882 15.0311196,19.6294882 L15.0511196,19.4994882 L15.1811196,19.4584882 C16.2411196,19.1154882 17.3011196,19.5794882 18.0411196,20.2494882 C18.4011196,20.5704882 18.6911196,20.9474882 18.8911196,21.3294882 L18.8911196,19.7604882 L18.8811196,19.7514882 C17.7211196,18.5264882 17.4811196,17.4684882 17.6811196,16.6254882 C17.8811196,15.7974882 18.4911196,15.2354882 18.9211196,14.9624882 L19.0311196,14.8904882 L19.1511196,14.9544882 Z M18.5111196,21.5794882 C18.6511196,21.8694882 18.7211196,22.1404882 18.7111196,22.3644882 C17.2111196,22.3304882 16.3811196,21.8624882 15.9411196,21.3334882 C15.5211196,20.8324882 15.4211196,20.2464882 15.4611196,19.8354882 C16.2611196,19.6394882 17.0911196,19.9894882 17.7411196,20.5704882 C18.0711196,20.8734882 18.3411196,21.2304882 18.5111196,21.5794882 Z M18.7111196,26.4794882 C18.7211196,26.2544882 18.6511196,25.9844882 18.5111196,25.6934882 C18.3411196,25.3444882 18.0711196,24.9884882 17.7411196,24.6844882 C17.0911196,24.1034882 16.2611196,23.7534882 15.4611196,23.9494882 C15.4211196,24.3614882 15.5211196,24.9474882 15.9411196,25.4474882 C16.3811196,25.9774882 17.2111196,26.4444882 18.7111196,26.4794882 Z M19.5511196,25.6574882 C19.4311196,25.9604882 19.3811196,26.2454882 19.4011196,26.4784882 C20.8911196,26.4394882 21.7511196,25.9614882 22.2211196,25.4174882 C22.6711196,24.9014882 22.7911196,24.3044882 22.7711196,23.8964882 C21.7511196,23.6404882 20.8711196,24.0174882 20.2611196,24.6144882 C19.9411196,24.9274882 19.6911196,25.2964882 19.5511196,25.6574882 Z M19.4011196,22.3644882 C19.3811196,22.1304882 19.4311196,21.8464882 19.5511196,21.5434882 C19.6911196,21.1824882 19.9411196,20.8134882 20.2611196,20.5004882 C20.8711196,19.9034882 21.7511196,19.5264882 22.7711196,19.7824882 C22.7911196,20.1894882 22.6711196,20.7874882 22.2211196,21.3034882 C21.7511196,21.8474882 20.8911196,22.3254882 19.4011196,22.3644882 Z" id="Shape" stroke-width="0.5" fill="#FFFFFF"></path>
                <path d="M20.9711196,28.0154882 C19.6211196,27.6324882 18.7211196,27.6324882 17.3711196,28.0154882" id="Path" stroke-width="0.9" stroke-linecap="round" stroke-linejoin="round"></path>
                <path d="M6.8611196,11.8324882 C7.0811196,12.7604882 6.8711196,14.0104882 5.5211196,15.5594882 C4.5711196,14.7014882 4.0811196,13.5984882 4.0611196,12.5654882 C4.0411196,11.5204882 4.5111196,10.5334882 5.5311196,9.91148817 C6.0311196,10.2704882 6.6611196,10.9254882 6.8611196,11.8324882 Z M5.4311196,9.45048817 C4.1811196,10.1504882 3.5911196,11.3294882 3.6111196,12.5724882 C3.6311196,13.7834882 4.2311196,15.0414882 5.3311196,15.9834882 L5.3311196,18.3314882 C5.1011196,17.7774882 4.7411196,17.2214882 4.2811196,16.7504882 C3.3111196,15.7724882 1.8611196,15.1404882 0.191119597,15.6694882 L0.0611195972,15.7104882 L0.0311195972,15.8464882 C-0.0788804028,16.5514882 0.0811195972,17.6574882 0.861119597,18.5874882 C1.6511196,19.5264882 3.0411196,20.2604882 5.3311196,20.2604882 L5.3311196,19.9804882 L5.3311196,19.9814882 L5.3311196,24.0744882 C5.1011196,23.5214882 4.7411196,22.9674882 4.2811196,22.4964882 C3.3111196,21.5184882 1.8611196,20.8864882 0.191119597,21.4154882 L0.0611195972,21.4574882 L0.0311195972,21.5924882 C-0.0788804028,22.2974882 0.0811195972,23.4034882 0.871119597,24.3344882 C1.6511196,25.2724882 3.0411196,26.0064882 5.3311196,26.0064882 L5.3311196,27.3124882 L5.7511196,27.3124882 L5.7511196,25.7204882 L5.7511196,25.7204882 L5.7511196,26.0074882 C8.0311196,26.0074882 9.3811196,25.2924882 10.1311196,24.3684882 C10.8711196,23.4514882 10.9811196,22.3634882 10.8711196,21.6674882 L10.8411196,21.5344882 L10.7211196,21.4924882 C9.3311196,21.0264882 7.9311196,21.6544882 6.9411196,22.5804882 C6.4511196,23.0464882 6.0411196,23.5984882 5.7811196,24.1514882 C5.7711196,24.1744882 5.7611196,24.1964882 5.7511196,24.2194882 L5.7511196,20.2604882 C8.0311196,20.2604882 9.3811196,19.5464882 10.1311196,18.6214882 C10.8711196,17.7044882 10.9811196,16.6174882 10.8711196,15.9214882 L10.8411196,15.7884882 L10.7211196,15.7454882 C9.3311196,15.2804882 7.9311196,15.9084882 6.9411196,16.8344882 C6.4511196,17.3004882 6.0411196,17.8514882 5.7811196,18.4054882 C5.7711196,18.4274882 5.7611196,18.4484882 5.7511196,18.4704882 L5.7511196,15.9704882 C7.2611196,14.2954882 7.5611196,12.8624882 7.3011196,11.7304882 C7.0411196,10.6024882 6.2311196,9.83348817 5.6611196,9.45848817 L5.5511196,9.38548817 L5.4311196,9.45048817 Z M6.1811196,18.5964882 C5.9811196,19.0424882 5.8811196,19.4644882 5.9211196,19.8114882 C8.0011196,19.7774882 9.1611196,19.1114882 9.7811196,18.3394882 C10.3811196,17.5974882 10.5111196,16.7264882 10.4411196,16.1314882 C9.3211196,15.8174882 8.1411196,16.3274882 7.2511196,17.1624882 C6.7911196,17.5924882 6.4211196,18.0994882 6.1811196,18.5964882 Z M5.9211196,25.5574882 C5.8811196,25.2104882 5.9811196,24.7894882 6.1911196,24.3434882 C6.4211196,23.8454882 6.7911196,23.3394882 7.2511196,22.9084882 C8.1411196,22.0734882 9.3211196,21.5634882 10.4511196,21.8774882 C10.5111196,22.4724882 10.3811196,23.3434882 9.7811196,24.0854882 C9.1611196,24.8574882 8.0011196,25.5244882 5.9211196,25.5574882 Z M4.9411196,24.2974882 C5.1211196,24.7614882 5.1811196,25.2004882 5.1311196,25.5564882 C3.0711196,25.5164882 1.8711196,24.8354882 1.2011196,24.0444882 C0.561119597,23.2824882 0.401119597,22.3944882 0.461119597,21.8034882 C1.8811196,21.4094882 3.1111196,21.9524882 3.9611196,22.8124882 C4.4011196,23.2574882 4.7411196,23.7834882 4.9411196,24.2974882 Z M5.1311196,19.8104882 C5.1811196,19.4544882 5.1111196,19.0144882 4.9411196,18.5514882 C4.7411196,18.0374882 4.4011196,17.5114882 3.9611196,17.0664882 C3.1111196,16.2054882 1.8811196,15.6624882 0.451119597,16.0574882 C0.401119597,16.6474882 0.561119597,17.5364882 1.2011196,18.2984882 C1.8711196,19.0894882 3.0711196,19.7704882 5.1311196,19.8104882 Z" id="Shape" stroke-width="0.5" fill="#FFFFFF"></path>
                <path d="M3.5111196,27.9514882 C4.1011196,27.6524882 6.0911196,27.2344882 7.5111196,27.9514882" id="Path" stroke-linecap="round" stroke-linejoin="round"></path>
                <path d="M14.0711196,9.93848817 C14.0011196,10.1084882 14.0711196,10.3094882 14.2411196,10.3864882 C14.4111196,10.4644882 14.6011196,10.3894882 14.6711196,10.2194882 L14.0711196,9.93848817 Z M18.2911196,2.28348817 L18.4311196,1.98248817 L17.8311196,1.67648817 L17.6911196,1.97748817 L18.2911196,2.28348817 Z M15.2011196,8.09248817 L14.9011196,7.93948817 L14.9011196,7.95248817 L15.2011196,8.09248817 Z M14.6711196,10.2194882 L15.5011196,8.23248817 L14.9011196,7.95248817 L14.0711196,9.93848817 L14.6711196,10.2194882 Z M15.5011196,8.24548817 L18.2911196,2.28348817 L17.6911196,1.97748817 L14.9011196,7.93948817 L15.5011196,8.24548817 Z" id="Shape" stroke-width="0.5" fill="#FFFFFF" fill-rule="nonzero"></path>
                <path d="M11.5411196,6.15348817 C11.3611196,6.19048817 11.2411196,6.36748817 11.2811196,6.54848817 C11.3111196,6.72848817 11.4911196,6.84448817 11.6711196,6.80648817 L11.5411196,6.15348817 Z M11.6711196,6.80648817 L20.6411196,4.92448817 L20.5111196,4.27148817 L11.5411196,6.15348817 L11.6711196,6.80648817 Z" id="Shape" stroke-width="0.5" fill="#FFFFFF" fill-rule="nonzero"></path>
                <path d="M18.7311196,1.92048817 C19.2311196,1.70448817 19.4711196,1.11648817 19.2511196,0.608488172 C19.0411196,0.100488172 18.4511196,-0.136511828 17.9411196,0.0804881722 C17.4311196,0.296488172 17.2011196,0.883488172 17.4111196,1.39248817 C17.6311196,1.90048817 18.2211196,2.13648817 18.7311196,1.92048817 Z" id="Path"></path>
                <path d="M21.5411196,5.35848817 C22.0911196,5.30648817 22.4911196,4.81948817 22.4411196,4.26948817 C22.3911196,3.71948817 21.9011196,3.31548817 21.3511196,3.36748817 C20.8011196,3.41848817 20.4011196,3.90648817 20.4511196,4.45648817 C20.5011196,5.00648817 20.9911196,5.41048817 21.5411196,5.35848817 Z" id="Path"></path>
            </g>
        </g>
    </g>
</svg>