<?xml version="1.0" encoding="UTF-8"?>
<svg width="27px" height="27px" viewBox="0 0 27 27" version="1.1" xmlns="http://www.w3.org/2000/svg" xmlns:xlink="http://www.w3.org/1999/xlink">
    <!-- Generator: Sketch 55.2 (78181) - https://sketchapp.com -->
    <title>Icon/Crop Loss Survey</title>
    <desc>Created with Sketch.</desc>
    <g id="Page-1" stroke="none" stroke-width="1" fill="none" fill-rule="evenodd" opacity="0.800000012">
        <g id="1.-Dashboard_Clients" transform="translate(-15.000000, -297.000000)" stroke="#FFFFFF">
            <g id="Navigation_Expanded">
                <g transform="translate(0.000000, 58.000000)">
                    <g id="Icon/Crop-Loss-Survey" transform="translate(16.000000, 240.000000)">
                        <g id="Group-5" transform="translate(0.000000, 7.700026)">
                            <path d="M3.95831948,2.3844 C3.75735948,3.2496 3.94855948,4.4216 5.21880948,5.8794 C6.10597948,5.0712 6.57034948,4.0397 6.58720948,3.0747 C6.60427948,2.0975 6.16438948,1.17459 5.20754948,0.5874 C4.73436948,0.92975 4.15390948,1.54223 3.95831948,2.3844 Z M5.31782948,0.07299 C6.53425948,0.74752 7.10806948,1.8847 7.08712948,3.0835 C7.06660948,4.2579 6.47731948,5.4765 5.40204948,6.3836 L5.40204948,8.4816 C5.62066948,7.9756 5.95622948,7.472 6.38584948,7.0414 C7.32307948,6.102 8.73067948,5.4918 10.3582595,6.002 L10.5048595,6.0479 L10.5300595,6.1994 C10.6437595,6.8812 10.4818595,7.9468 9.72305948,8.8433 C8.95676948,9.7486 7.60818948,10.4517 5.40313948,10.4517 L5.40313948,10.1486 L5.40204948,10.1488 L5.40204948,13.9595 C5.62069948,13.4544 5.95579948,12.9519 6.38459948,12.5221 C7.32181948,11.5827 8.72942948,10.9726 10.3570595,11.4827 L10.5035595,11.5286 L10.5288595,11.6802 C10.6424595,12.362 10.4806595,13.4276 9.72185948,14.324 C8.95552948,15.2293 7.60699948,15.9324 5.40204948,15.9324 L5.40204948,16.5243 L4.99259948,16.5243 L4.99259948,15.9325 C2.79006948,15.9325 1.48062948,15.2486 0.755339479,14.3559 C0.0369994789,13.4718 -0.0745405211,12.4234 0.0374194789,11.7517 L0.0621594789,11.6032 L0.204959479,11.5556 C1.55472948,11.1057 2.91549948,11.7138 3.87009948,12.6014 C4.34933948,13.0469 4.74069948,13.5747 4.99259948,14.1049 L4.99259948,10.4517 C2.79056948,10.4515 1.48136948,9.7677 0.756169479,8.8751 C0.0378294789,7.991 -0.0737055211,6.9426 0.0382494789,6.2709 L0.0629994789,6.1224 L0.205789479,6.0748 C1.55555948,5.6249 2.91632948,6.233 3.87093948,7.1206 C4.34963948,7.5657 4.74066948,8.0928 4.99259948,8.6224 L4.99259948,6.3769 C3.51749948,4.7609 3.21545948,3.3727 3.47127948,2.2713 C3.72413948,1.18257 4.50711948,0.44257 5.06008948,0.08218 L5.18618948,-8.8817842e-15 L5.31782948,0.07299 Z M4.54429948,8.8439 C4.73713948,9.2515 4.82374948,9.6341 4.80108948,9.9499 C2.82619948,9.9115 1.73083948,9.2818 1.14422948,8.5598 C0.584889479,7.8714 0.458709479,7.0639 0.511749479,6.505 C1.57460948,6.2239 2.68522948,6.7009 3.53047948,7.4868 C3.96901948,7.8945 4.32190948,8.3739 4.54429948,8.8439 Z M4.80024948,15.4306 C4.82290948,15.1148 4.73629948,14.7322 4.54345948,14.3247 C4.32106948,13.8547 3.96817948,13.3753 3.52963948,12.9675 C2.68438948,12.1816 1.57377948,11.7046 0.510919479,11.9858 C0.457879479,12.5446 0.584059479,13.3522 1.14338948,14.0406 C1.73000948,14.7626 2.82535948,15.3922 4.80024948,15.4306 Z M5.81118948,14.2788 C5.64525948,14.7034 5.58287948,15.1038 5.62123948,15.43 C7.57999948,15.3853 8.71303948,14.7419 9.34025948,14.001 C9.93985948,13.2925 10.0998595,12.4694 10.0544595,11.9154 C8.70893948,11.5559 7.54576948,12.0662 6.73855948,12.8753 C6.31876948,13.2961 6.00096948,13.7932 5.81118948,14.2788 Z M5.62248948,9.9492 C5.58412948,9.6231 5.64651948,9.2226 5.81243948,8.7981 C6.00222948,8.3124 6.32002948,7.8153 6.73981948,7.3945 C7.54701948,6.5854 8.71018948,6.0751 10.0556595,6.4346 C10.1011595,6.9886 9.94115948,7.8118 9.34145948,8.5202 C8.71428948,9.2612 7.58124948,9.9045 5.62248948,9.9492 Z" id="Shape" stroke-width="0.5" fill="#FFFFFF"></path>
                            <path d="M8.06284948,17.5999995 C6.82212948,17.0576995 3.82212948,17.0576995 2.56284948,17.5999995" id="Path" stroke-linecap="round" stroke-linejoin="round"></path>
                        </g>
                        <g id="Group-4" transform="translate(14.999859, 12.094626)">
                            <path d="M3.11946112,1.8332125 C2.96835112,2.4656625 3.10758112,3.3275375 4.06419112,4.4053625 C4.72767112,3.8070375 5.07354112,3.05025 5.08623112,2.3438625 C5.09910112,1.6268875 4.77060112,0.9499875 4.05438112,0.514675 C3.69636112,0.7709625 3.26580112,1.22045 3.11946112,1.8332125 Z M4.15356112,0.063875 C5.10351112,0.5760125 5.55252112,1.4405125 5.53614112,2.351475 C5.51994112,3.25045 5.05257112,4.1811 4.20306112,4.86885 L4.20306112,6.3268625 C4.37352112,5.9651375 4.62417112,5.60805 4.94007112,5.300225 C5.67006112,4.5887625 6.76887112,4.1250125 8.03949112,4.5122 L8.17143112,4.5523625 L8.19411112,4.684925 C8.28330112,5.2052 8.15622112,6.0144875 7.56393112,6.6948875 C6.96471112,7.3829875 5.91360112,7.913325 4.20387112,7.913325 L4.20387112,7.654675 L4.20306112,7.65485 L4.20306112,10.4391875 C4.37352112,10.078075 4.62381112,9.721775 4.93908112,9.414475 C5.66916112,8.7031 6.76788112,8.23935 8.03850112,8.6265375 L8.17044112,8.6667 L8.19321112,8.7992625 C8.28231112,9.3195375 8.15532112,10.128825 7.56294112,10.8091375 C6.96381112,11.497325 5.91270112,12.027575 4.20306112,12.027575 L4.20306112,12.9038 L3.88689112,12.9038 L3.88689112,12.0276625 C2.17950112,12.0276625 1.15809112,11.5119375 0.590371122,10.8325875 C0.0289511216,10.16085 -0.0583488784,9.3643375 0.0293111216,8.8529875 L0.0515411216,8.72305 L0.180061122,8.6814 C1.23783112,8.338575 2.30037112,8.80285 3.04197112,9.4731875 C3.39693112,9.79405 3.69015112,10.1714375 3.88689112,10.553725 L3.88689112,7.913325 C2.17986112,7.91315 1.15863112,7.3975125 0.591001122,6.7183375 C0.0295811216,6.0465125 -0.0577188784,5.2500875 0.0299411216,4.73865 L0.0522611216,4.6087125 L0.180781122,4.5670625 C1.23846112,4.224325 2.30100112,4.6885125 3.04260112,5.35885 C3.39711112,5.6793625 3.69015112,6.0563125 3.88689112,6.4381625 L3.88689112,4.8692875 L3.87861112,4.8605375 C2.72157112,3.6353625 2.47965112,2.577575 2.68107112,1.73425 C2.87889112,0.9064125 3.49062112,0.3450125 3.92154112,0.071925 L4.03503112,1.0658141e-14 L4.15356112,0.063875 Z M3.51186112,6.6885875 C3.65316112,6.9789125 3.71850112,7.2494625 3.70887112,7.4738125 C2.21028112,7.4393375 1.38273112,6.9719125 0.940291122,6.44245 C0.521881122,5.941775 0.422071122,5.355875 0.456901122,4.9441 C1.25655112,4.748625 2.09364112,5.09845 2.73615112,5.679275 C3.07212112,5.9829 3.34203112,6.3396375 3.51186112,6.6885875 Z M3.70824112,11.5880625 C3.71787112,11.3638 3.65253112,11.09325 3.51123112,10.802925 C3.34140112,10.4538875 3.07140112,10.0972375 2.73552112,9.793525 C2.09301112,9.2127875 1.25592112,8.8629625 0.456271122,9.0584375 C0.421351122,9.470125 0.521251122,10.0561125 0.939571122,10.5567 C1.38210112,11.08625 2.20956112,11.553675 3.70824112,11.5880625 Z M4.54875112,10.766525 C4.42680112,11.0698 4.37901112,11.35435 4.40106112,11.5875375 C5.88822112,11.5486 6.74547112,11.0709375 7.21941112,10.5265125 C7.66860112,10.0106125 7.79352112,9.4131625 7.76517112,9.0054125 C6.74889112,8.75 5.87031112,9.126425 5.25768112,9.723525 C4.93656112,10.036425 4.69365112,10.4059375 4.54875112,10.766525 Z M4.40196112,7.4732 C4.38000112,7.2400125 4.42779112,6.95555 4.54974112,6.6521875 C4.69464112,6.2916875 4.93755112,5.9220875 5.25858112,5.6091875 C5.87130112,5.0120875 6.74979112,4.6356625 7.76607112,4.891075 C7.79451112,5.298825 7.66959112,5.896275 7.22040112,6.412175 C6.74646112,6.9566 5.88921112,7.4342625 4.40196112,7.4732 Z" id="Shape" stroke-width="0.5" fill="#FFFFFF"></path>
                            <path d="M5.96985112,13.125 C4.61985112,12.741575 3.71985112,12.741575 2.36985112,13.125" id="Path" stroke-width="0.899999976" stroke-linecap="round" stroke-linejoin="round"></path>
                        </g>
                        <path d="M2.93700948,0.0296961507 C2.84293948,-0.0281938493 2.71974948,0.00113615066 2.66185948,0.0952161507 C2.60396948,0.189286151 2.63329948,0.312476151 2.72737948,0.370366151 L2.93700948,0.0296961507 Z M9.33215948,4.20003615 L9.22735948,4.37036615 L9.29905948,4.41447615 L9.38065948,4.39405615 L9.33215948,4.20003615 Z M17.3321595,2.20003615 L17.4302595,2.02571615 L17.3608595,1.98670615 L17.2836595,2.00600615 L17.3321595,2.20003615 Z M25.3861595,6.89262615 C25.4924595,6.86282615 25.5545595,6.75242615 25.5247595,6.64612615 L25.0394595,4.91272615 C25.0096595,4.80642615 24.8992595,4.74432615 24.7929595,4.77410615 C24.6865595,4.80392615 24.6244595,4.91422615 24.6542595,5.02062615 L25.0856595,6.56132615 L23.5449595,6.99272615 C23.4385595,7.02252615 23.3764595,7.13292615 23.4062595,7.23932615 C23.4360595,7.34562615 23.5464595,7.40772615 23.6527595,7.37792615 L25.3861595,6.89262615 Z M2.72737948,0.370366151 L9.22735948,4.37036615 L9.43705948,4.02969615 L2.93700948,0.0296961507 L2.72737948,0.370366151 Z M9.38065948,4.39405615 L17.3806595,2.39405615 L17.2836595,2.00600615 L9.28365948,4.00600615 L9.38065948,4.39405615 Z M17.2341595,2.37434615 L25.2341595,6.87432615 L25.4302595,6.52571615 L17.4302595,2.02571615 L17.2341595,2.37434615 Z" id="Shape" stroke-width="0.6" fill="#FFFFFF" fill-rule="nonzero" stroke-linejoin="round"></path>
                    </g>
                </g>
            </g>
        </g>
    </g>
</svg>