<?xml version="1.0" encoding="UTF-8"?>
<svg width="25px" height="30px" viewBox="0 0 25 30" version="1.1" xmlns="http://www.w3.org/2000/svg" xmlns:xlink="http://www.w3.org/1999/xlink">
    <!-- Generator: Sketch 55.2 (78181) - https://sketchapp.com -->
    <title>Icon/Crop Cutting Experiments</title>
    <desc>Created with Sketch.</desc>
    <g id="Page-1" stroke="none" stroke-width="1" fill="none" fill-rule="evenodd" opacity="0.800000012">
        <g id="1.-Dashboard_Clients" transform="translate(-16.000000, -436.000000)" stroke="#FFFFFF">
            <g id="Navigation_Expanded">
                <g transform="translate(0.000000, 58.000000)">
                    <g id="Icon/Crop-Cutting-Experiments" transform="translate(17.000000, 379.000000)">
                        <g id="Group-4" transform="translate(14.999859, 15.094626)">
                            <path d="M3.11946112,1.8332125 C2.96835112,2.4656625 3.10758112,3.3275375 4.06419112,4.4053625 C4.72767112,3.8070375 5.07354112,3.05025 5.08623112,2.3438625 C5.09910112,1.6268875 4.77060112,0.9499875 4.05438112,0.514675 C3.69636112,0.7709625 3.26580112,1.22045 3.11946112,1.8332125 Z M4.15356112,0.063875 C5.10351112,0.5760125 5.55252112,1.4405125 5.53614112,2.351475 C5.51994112,3.25045 5.05257112,4.1811 4.20306112,4.86885 L4.20306112,6.3268625 C4.37352112,5.9651375 4.62417112,5.60805 4.94007112,5.300225 C5.67006112,4.5887625 6.76887112,4.1250125 8.03949112,4.5122 L8.17143112,4.5523625 L8.19411112,4.684925 C8.28330112,5.2052 8.15622112,6.0144875 7.56393112,6.6948875 C6.96471112,7.3829875 5.91360112,7.913325 4.20387112,7.913325 L4.20387112,7.654675 L4.20306112,7.65485 L4.20306112,10.4391875 C4.37352112,10.078075 4.62381112,9.721775 4.93908112,9.414475 C5.66916112,8.7031 6.76788112,8.23935 8.03850112,8.6265375 L8.17044112,8.6667 L8.19321112,8.7992625 C8.28231112,9.3195375 8.15532112,10.128825 7.56294112,10.8091375 C6.96381112,11.497325 5.91270112,12.027575 4.20306112,12.027575 L4.20306112,12.9038 L3.88689112,12.9038 L3.88689112,12.0276625 C2.17950112,12.0276625 1.15809112,11.5119375 0.590371122,10.8325875 C0.0289511216,10.16085 -0.0583488784,9.3643375 0.0293111216,8.8529875 L0.0515411216,8.72305 L0.180061122,8.6814 C1.23783112,8.338575 2.30037112,8.80285 3.04197112,9.4731875 C3.39693112,9.79405 3.69015112,10.1714375 3.88689112,10.553725 L3.88689112,7.913325 C2.17986112,7.91315 1.15863112,7.3975125 0.591001122,6.7183375 C0.0295811216,6.0465125 -0.0577188784,5.2500875 0.0299411216,4.73865 L0.0522611216,4.6087125 L0.180781122,4.5670625 C1.23846112,4.224325 2.30100112,4.6885125 3.04260112,5.35885 C3.39711112,5.6793625 3.69015112,6.0563125 3.88689112,6.4381625 L3.88689112,4.8692875 L3.87861112,4.8605375 C2.72157112,3.6353625 2.47965112,2.577575 2.68107112,1.73425 C2.87889112,0.9064125 3.49062112,0.3450125 3.92154112,0.071925 L4.03503112,1.0658141e-14 L4.15356112,0.063875 Z M3.51186112,6.6885875 C3.65316112,6.9789125 3.71850112,7.2494625 3.70887112,7.4738125 C2.21028112,7.4393375 1.38273112,6.9719125 0.940291122,6.44245 C0.521881122,5.941775 0.422071122,5.355875 0.456901122,4.9441 C1.25655112,4.748625 2.09364112,5.09845 2.73615112,5.679275 C3.07212112,5.9829 3.34203112,6.3396375 3.51186112,6.6885875 Z M3.70824112,11.5880625 C3.71787112,11.3638 3.65253112,11.09325 3.51123112,10.802925 C3.34140112,10.4538875 3.07140112,10.0972375 2.73552112,9.793525 C2.09301112,9.2127875 1.25592112,8.8629625 0.456271122,9.0584375 C0.421351122,9.470125 0.521251122,10.0561125 0.939571122,10.5567 C1.38210112,11.08625 2.20956112,11.553675 3.70824112,11.5880625 Z M4.54875112,10.766525 C4.42680112,11.0698 4.37901112,11.35435 4.40106112,11.5875375 C5.88822112,11.5486 6.74547112,11.0709375 7.21941112,10.5265125 C7.66860112,10.0106125 7.79352112,9.4131625 7.76517112,9.0054125 C6.74889112,8.75 5.87031112,9.126425 5.25768112,9.723525 C4.93656112,10.036425 4.69365112,10.4059375 4.54875112,10.766525 Z M4.40196112,7.4732 C4.38000112,7.2400125 4.42779112,6.95555 4.54974112,6.6521875 C4.69464112,6.2916875 4.93755112,5.9220875 5.25858112,5.6091875 C5.87130112,5.0120875 6.74979112,4.6356625 7.76607112,4.891075 C7.79451112,5.298825 7.66959112,5.896275 7.22040112,6.412175 C6.74646112,6.9566 5.88921112,7.4342625 4.40196112,7.4732 Z" id="Shape" stroke-width="0.5" fill="#FFFFFF"></path>
                            <path d="M5.96985112,13.125 C4.61985112,12.741575 3.71985112,12.741575 2.36985112,13.125" id="Path" stroke-width="0.899999976" stroke-linecap="round" stroke-linejoin="round"></path>
                        </g>
                        <g id="Group-8" transform="translate(0.000000, 9.588796)">
                            <path d="M6.8641187,2.44702138 C7.07780759,3.37495241 6.8689187,4.62555241 5.52029648,6.1739869 C4.57274092,5.31652483 4.07505203,4.21367655 4.05709648,3.18004207 C4.03905203,2.13520069 4.50936314,1.14824966 5.53060759,0.52606069 C6.03078537,0.885497241 6.65522981,1.54006966 6.8641187,2.44702138 Z M5.43247426,0.0654482759 C4.18065203,0.765583448 3.59122981,1.94450414 3.61274092,3.18784207 C3.6337187,4.3981869 4.23176314,5.65622828 5.32669648,6.59868345 L5.32669648,8.94594552 C5.10296314,8.39214552 4.7441187,7.83664207 4.27762981,7.36496621 C3.31087426,6.38763517 1.8617187,5.75493862 0.186252033,6.28462138 L0.0559409221,6.32586276 L0.0335409221,6.46169034 C-0.0829035224,7.16620069 0.0828742554,8.27200759 0.864029811,9.20280759 C1.65185203,10.1415869 3.04198537,10.8756834 5.3257187,10.8756834 L5.3257187,10.5958697 L5.32669648,10.5961386 L5.32669648,14.6889869 C5.10287426,14.1362628 4.74447426,13.5819248 4.27887426,13.1112352 C3.3121187,12.1338145 1.86305203,11.5011179 0.187496478,12.0308007 L0.0572742554,12.0720421 L0.0347853665,12.2078697 C-0.0816590779,12.9124697 0.0841186998,14.0181869 0.865274255,14.9489869 C1.65309648,15.8877662 3.04314092,16.6218628 5.32669648,16.6218628 L5.32669648,17.9269731 L5.75238537,17.9269731 L5.75238537,16.3352352 L5.75238537,16.3351455 L5.75238537,16.6219524 C8.03398537,16.6219524 9.38287426,15.9077593 10.1277631,14.9829662 C10.8665187,14.0659731 10.9810965,12.9783662 10.8661631,12.2828214 L10.8441187,12.1496834 L10.7171854,12.1070076 C9.33247426,11.6414283 7.93194092,12.2696421 6.9449187,13.1952421 C6.4481187,13.66118 6.04305203,14.2130076 5.78358537,14.7662697 C5.7729187,14.7889524 5.7625187,14.8116352 5.75238537,14.8344076 L5.75238537,10.8756834 C8.03327426,10.8755041 9.38198537,10.1614007 10.1267854,9.2367869 C10.865452,8.31979379 10.9800298,7.23209724 10.8650965,6.53664207 L10.843052,6.40350414 L10.7161187,6.36082828 C9.33140759,5.89524897 7.93087426,6.5233731 6.94385203,7.44906276 C6.44705203,7.91491103 6.04207426,8.46682828 5.7825187,9.02000069 C5.77220759,9.04196621 5.76216314,9.06384207 5.75238537,9.08580759 L5.75238537,6.58496621 C7.25585203,4.91029724 7.5577187,3.47787655 7.29700759,2.34553172 C7.03718537,1.2170869 6.23167426,0.448437241 5.66162981,0.0736875862 L5.54954092,7.10542736e-15 L5.43247426,0.0654482759 Z M6.18429648,9.2117731 C5.97505203,9.65771793 5.88322981,10.0792766 5.91682981,10.4261524 C7.99985203,10.3926214 9.15976314,9.72630414 9.78180759,8.95410414 C10.3791409,8.21265586 10.5072298,7.34111793 10.4449187,6.7459869 C9.31522981,6.43210414 8.13682981,6.94242138 7.2465187,7.77729034 C6.78740759,8.20781448 6.41762981,8.71427655 6.18429648,9.2117731 Z M5.91789648,16.1723317 C5.88420759,15.8254559 5.9761187,15.4039869 6.18527426,14.9579524 C6.41869648,14.4604559 6.78847426,13.9540834 7.24749648,13.5235593 C8.13789648,12.6886007 9.31629648,12.1782834 10.4458965,12.4921662 C10.5082965,13.0872972 10.3801187,13.9588352 9.78287426,14.7003731 C9.16082981,15.4724834 8.00082981,16.1388903 5.91789648,16.1723317 Z M4.93665203,14.9123179 C5.11629648,15.3759248 5.18145203,15.8155041 5.13202981,16.1717041 C3.06687426,16.131449 1.86847426,15.4506076 1.20447426,14.6594007 C0.564740922,13.8971524 0.400296478,13.0090283 0.455585367,12.4184697 C1.88074092,12.0238972 3.11282981,12.5670283 3.96420759,13.4278076 C4.40420759,13.8725869 4.73745203,14.3982352 4.93665203,14.9123179 Z M5.13078537,10.4255248 C5.18020759,10.0693248 5.11496314,9.62974552 4.9353187,9.16613862 C4.73620759,8.65205586 4.40296314,8.12640759 3.96296314,7.68162828 C3.11158537,6.82084897 1.87949648,6.27762828 0.454340922,6.67229034 C0.399052033,7.26284897 0.563496478,8.15088345 1.20322981,8.91313172 C1.86722981,9.70433862 3.06562981,10.3852697 5.13078537,10.4255248 Z" id="Shape" stroke-width="0.5" fill="#FFFFFF"></path>
                            <path d="M3.50740759,18.5661248 C4.10002981,18.2673041 6.08518537,17.8488834 7.50740759,18.5661248" id="Path" stroke-linecap="round" stroke-linejoin="round"></path>
                        </g>
                        <g id="Group-11" transform="translate(11.268375, 0.000000)">
                            <path d="M2.79870033,10.142364 C2.72763367,10.3120973 2.80550033,10.5126307 2.972567,10.5900973 C3.13963367,10.667564 3.33270033,10.592764 3.40363367,10.4230307 L2.79870033,10.142364 Z M7.016967,2.48729733 L7.15790033,2.185964 L6.56403367,1.88009733 L6.42310033,2.18143067 L7.016967,2.48729733 Z M3.93203367,8.29583067 L3.63483367,8.14289733 L3.62950033,8.155564 L3.93203367,8.29583067 Z M3.40363367,10.4230307 L4.234567,8.43623067 L3.62950033,8.155564 L2.79870033,10.142364 L3.40363367,10.4230307 Z M4.228967,8.448764 L7.016967,2.48729733 L6.42310033,2.18143067 L3.63510033,8.14303067 L4.228967,8.448764 Z" id="Shape" stroke-width="0.5" fill="#FFFFFF" fill-rule="nonzero"></path>
                            <path d="M0.266833667,6.35689733 C0.0867003341,6.39463067 -0.0298329992,6.571564 0.00670033414,6.75209733 C0.0432336675,6.93249733 0.218833667,7.04809733 0.399100334,7.010364 L0.266833667,6.35689733 Z M0.399100334,7.010364 L9.36950033,5.12849733 L9.23723367,4.47503067 L0.266833667,6.35689733 L0.399100334,7.010364 Z" id="Shape" stroke-width="0.5" fill="#FFFFFF" fill-rule="nonzero"></path>
                            <circle id="Oval" transform="translate(7.065634, 1.203964) rotate(-23.062900) translate(-7.065634, -1.203964) " cx="7.06563367" cy="1.203964" r="1"></circle>
                            <circle id="Oval" transform="translate(10.178567, 4.566497) rotate(-5.366470) translate(-10.178567, -4.566497) " cx="10.178567" cy="4.56649733" r="1"></circle>
                        </g>
                    </g>
                </g>
            </g>
        </g>
    </g>
</svg>