<?xml version="1.0" encoding="UTF-8"?>
<svg width="27px" height="27px" viewBox="0 0 27 27" version="1.1" xmlns="http://www.w3.org/2000/svg" xmlns:xlink="http://www.w3.org/1999/xlink">
    <!-- Generator: Sketch 55.2 (78181) - https://sketchapp.com -->
    <title>Icon/Crop loss survey/Selected</title>
    <desc>Created with Sketch.</desc>
    <g id="Page-1" stroke="none" stroke-width="1" fill="none" fill-rule="evenodd">
        <g id="Icons-1" transform="translate(-614.000000, -464.000000)" stroke="#FFFFFF">
            <g id="Icon/Crop-loss-survey/Selected" transform="translate(614.999610, 465.000129)">
                <path d="M3.95838994,10.0838711 C3.75738994,10.9498711 3.94938994,12.1218711 5.21938994,13.5788711 C6.10638994,12.7708711 6.57038994,11.7398711 6.58738994,10.7748711 C6.60438994,9.79687115 6.16438994,8.87487115 5.20838994,8.28687115 C4.73438994,8.62987115 4.15438994,9.24187115 3.95838994,10.0838711 Z M5.31838994,7.77287115 C6.53438994,8.44687115 7.10838994,9.58487115 7.08738994,10.7828711 C7.06738994,11.9578711 6.47738994,13.1758711 5.40238994,14.0838711 L5.40238994,16.1818711 C5.62138994,15.6758711 5.95638994,15.1718711 6.38638994,14.7408711 C7.32338994,13.8018711 8.73138994,13.1918711 10.3583899,13.7018711 L10.5053899,13.7478711 L10.5303899,13.8988711 C10.6443899,14.5808711 10.4823899,15.6468711 9.72338994,16.5428711 C8.95738994,17.4488711 7.60838994,18.1518711 5.40338994,18.1518711 L5.40338994,17.8488711 L5.40238994,17.8488711 L5.40238994,21.6588711 C5.62138994,21.1538711 5.95638994,20.6518711 6.38538994,20.2218711 C7.32238994,19.2828711 8.72938994,18.6728711 10.3573899,19.1828711 L10.5043899,19.2288711 L10.5293899,19.3798711 C10.6423899,20.0618711 10.4813899,21.1278711 9.72238994,22.0238711 C8.95638994,22.9288711 7.60738994,23.6318711 5.40238994,23.6318711 L5.40238994,24.2238711 L4.99338994,24.2238711 L4.99338994,23.6318711 C2.79038994,23.6318711 1.48138994,22.9488711 0.755389939,22.0558711 C0.0373899385,21.1718711 -0.0746100615,20.1228711 0.0373899385,19.4518711 L0.0623899385,19.3028711 L0.205389939,19.2558711 C1.55538994,18.8058711 2.91538994,19.4138711 3.87038994,20.3008711 C4.34938994,20.7468711 4.74138994,21.2748711 4.99338994,21.8048711 L4.99338994,18.1518711 C2.79138994,18.1508711 1.48138994,17.4678711 0.756389939,16.5748711 C0.0383899385,15.6908711 -0.0736100615,14.6428711 0.0383899385,13.9708711 L0.0633899385,13.8218711 L0.206389939,13.7748711 C1.55638994,13.3248711 2.91638994,13.9328711 3.87138994,14.8208711 C4.35038994,15.2658711 4.74138994,15.7928711 4.99338994,16.3218711 L4.99338994,14.0768711 C3.51738994,12.4608711 3.21538994,11.0728711 3.47138994,9.97087115 C3.72438994,8.88287115 4.50738994,8.14287115 5.06038994,7.78187115 L5.18638994,7.69987115 L5.31838994,7.77287115 Z M4.54438994,16.5438711 C4.73738994,16.9508711 4.82438994,17.3338711 4.80138994,17.6498711 C2.82638994,17.6108711 1.73138994,16.9818711 1.14438994,16.2598711 C0.585389939,15.5708711 0.459389939,14.7638711 0.512389939,14.2048711 C1.57538994,13.9238711 2.68538994,14.4008711 3.53038994,15.1868711 C3.96938994,15.5938711 4.32238994,16.0738711 4.54438994,16.5438711 Z M4.80038994,23.1308711 C4.82338994,22.8148711 4.73638994,22.4318711 4.54338994,22.0248711 C4.32138994,21.5548711 3.96838994,21.0748711 3.53038994,20.6668711 C2.68438994,19.8818711 1.57438994,19.4048711 0.511389939,19.6858711 C0.458389939,20.2448711 0.584389939,21.0518711 1.14338994,21.7408711 C1.73038994,22.4628711 2.82538994,23.0918711 4.80038994,23.1308711 Z M5.81138994,21.9788711 C5.64538994,22.4028711 5.58338994,22.8038711 5.62138994,23.1298711 C7.58038994,23.0848711 8.71338994,22.4418711 9.34038994,21.7008711 C9.94038994,20.9918711 10.1003899,20.1688711 10.0543899,19.6148711 C8.70938994,19.2558711 7.54638994,19.7658711 6.73938994,20.5748711 C6.31938994,20.9958711 6.00138994,21.4928711 5.81138994,21.9788711 Z M5.62238994,17.6488711 C5.58438994,17.3228711 5.64738994,16.9228711 5.81238994,16.4978711 C6.00238994,16.0118711 6.32038994,15.5148711 6.74038994,15.0938711 C7.54738994,14.2848711 8.71038994,13.7748711 10.0563899,14.1348711 C10.1013899,14.6888711 9.94138994,15.5118711 9.34138994,16.2198711 C8.71438994,16.9608711 7.58138994,17.6038711 5.62238994,17.6488711 Z" id="Shape" stroke-width="0.5" fill="#FFFFFF"></path>
                <path d="M8.06338994,25.2998711 C6.82238994,24.7578711 3.82238994,24.7578711 2.56338994,25.2998711" id="Path" stroke-linecap="round" stroke-linejoin="round"></path>
                <path d="M18.1193899,13.9278711 C17.9683899,14.5598711 18.1073899,15.4218711 19.0643899,16.4998711 C19.7283899,15.9018711 20.0733899,15.1448711 20.0863899,14.4388711 C20.0993899,13.7218711 19.7703899,13.0448711 19.0543899,12.6088711 C18.6963899,12.8658711 18.2663899,13.3148711 18.1193899,13.9278711 Z M19.1533899,12.1588711 C20.1033899,12.6708711 20.5523899,13.5348711 20.5363899,14.4458711 C20.5203899,15.3448711 20.0523899,16.2758711 19.2033899,16.9638711 L19.2033899,18.4218711 C19.3733899,18.0598711 19.6243899,17.7028711 19.9403899,17.3948711 C20.6703899,16.6828711 21.7693899,16.2198711 23.0393899,16.6068711 L23.1713899,16.6468711 L23.1943899,16.7798711 C23.2833899,17.2998711 23.1563899,18.1088711 22.5643899,18.7898711 C21.9653899,19.4778711 20.9133899,20.0078711 19.2043899,20.0078711 L19.2043899,19.7488711 L19.2033899,19.7498711 L19.2033899,22.5338711 C19.3733899,22.1728711 19.6243899,21.8168711 19.9393899,21.5088711 C20.6693899,20.7978711 21.7683899,20.3338711 23.0383899,20.7208711 L23.1703899,20.7608711 L23.1933899,20.8938711 C23.2823899,21.4138711 23.1553899,22.2238711 22.5633899,22.9038711 C21.9643899,23.5918711 20.9133899,24.1218711 19.2033899,24.1218711 L19.2033899,24.9988711 L18.8873899,24.9988711 L18.8873899,24.1218711 C17.1793899,24.1218711 16.1583899,23.6068711 15.5903899,22.9268711 C15.0293899,22.2558711 14.9423899,21.4588711 15.0293899,20.9478711 L15.0513899,20.8178711 L15.1803899,20.7758711 C16.2383899,20.4328711 17.3003899,20.8978711 18.0423899,21.5678711 C18.3973899,21.8888711 18.6903899,22.2658711 18.8873899,22.6478711 L18.8873899,20.0078711 C17.1803899,20.0078711 16.1593899,19.4918711 15.5913899,18.8128711 C15.0293899,18.1408711 14.9423899,17.3448711 15.0303899,16.8328711 L15.0523899,16.7028711 L15.1813899,16.6618711 C16.2383899,16.3188711 17.3013899,16.7828711 18.0423899,17.4538711 C18.3973899,17.7738711 18.6903899,18.1508711 18.8873899,18.5328711 L18.8873899,16.9638711 L18.8783899,16.9548711 C17.7213899,15.7298711 17.4803899,14.6718711 17.6813899,13.8288711 C17.8793899,13.0008711 18.4903899,12.4398711 18.9213899,12.1668711 L19.0353899,12.0948711 L19.1533899,12.1588711 Z M18.5123899,18.7828711 C18.6533899,19.0738711 18.7183899,19.3438711 18.7093899,19.5688711 C17.2103899,19.5338711 16.3833899,19.0668711 15.9403899,18.5368711 C15.5223899,18.0368711 15.4223899,17.4508711 15.4573899,17.0388711 C16.2563899,16.8428711 17.0943899,17.1928711 17.7363899,17.7738711 C18.0723899,18.0778711 18.3423899,18.4338711 18.5123899,18.7828711 Z M18.7083899,23.6828711 C18.7183899,23.4588711 18.6523899,23.1878711 18.5113899,22.8978711 C18.3413899,22.5488711 18.0713899,22.1918711 17.7353899,21.8878711 C17.0933899,21.3078711 16.2563899,20.9578711 15.4563899,21.1528711 C15.4213899,21.5648711 15.5213899,22.1508711 15.9393899,22.6508711 C16.3823899,23.1808711 17.2093899,23.6478711 18.7083899,23.6828711 Z M19.5493899,22.8608711 C19.4273899,23.1648711 19.3793899,23.4488711 19.4013899,23.6818711 C20.8883899,23.6428711 21.7453899,23.1658711 22.2193899,22.6208711 C22.6683899,22.1048711 22.7933899,21.5078711 22.7653899,21.0998711 C21.7493899,20.8448711 20.8703899,21.2208711 20.2583899,21.8178711 C19.9363899,22.1308711 19.6943899,22.5008711 19.5493899,22.8608711 Z M19.4023899,19.5678711 C19.3803899,19.3348711 19.4283899,19.0498711 19.5503899,18.7468711 C19.6953899,18.3858711 19.9373899,18.0168711 20.2583899,17.7038711 C20.8713899,17.1068711 21.7503899,16.7298711 22.7663899,16.9858711 C22.7943899,17.3938711 22.6693899,17.9908711 22.2203899,18.5068711 C21.7463899,19.0508711 20.8893899,19.5288711 19.4023899,19.5678711 Z" id="Shape" stroke-width="0.5" fill="#FFFFFF"></path>
                <path d="M20.9703899,25.2198711 C19.6203899,24.8358711 18.7203899,24.8358711 17.3703899,25.2198711" id="Path" stroke-width="0.9" stroke-linecap="round" stroke-linejoin="round"></path>
                <path d="M2.93738994,0.0298711474 C2.84338994,-0.0281288526 2.72038994,0.000871147415 2.66238994,0.0948711474 C2.60438994,0.188871147 2.63338994,0.311871147 2.72738994,0.369871147 L2.93738994,0.0298711474 Z M9.33238994,4.19987115 L9.22738994,4.36987115 L9.29938994,4.41387115 L9.38138994,4.39387115 L9.33238994,4.19987115 Z M17.3323899,2.19987115 L17.4303899,2.02587115 L17.3613899,1.98687115 L17.2843899,2.00587115 L17.3323899,2.19987115 Z M25.3863899,6.89287115 C25.4923899,6.86287115 25.5553899,6.75187115 25.5253899,6.64587115 L25.0393899,4.91287115 C25.0103899,4.80587115 24.8993899,4.74387115 24.7933899,4.77387115 C24.6873899,4.80387115 24.6243899,4.91387115 24.6543899,5.02087115 L25.0863899,6.56087115 L23.5453899,6.99287115 C23.4393899,7.02287115 23.3763899,7.13287115 23.4063899,7.23887115 C23.4363899,7.34587115 23.5463899,7.40787115 23.6533899,7.37787115 L25.3863899,6.89287115 Z M2.72738994,0.369871147 L9.22738994,4.36987115 L9.43738994,4.02987115 L2.93738994,0.0298711474 L2.72738994,0.369871147 Z M9.38138994,4.39387115 L17.3813899,2.39387115 L17.2843899,2.00587115 L9.28438994,4.00587115 L9.38138994,4.39387115 Z M17.2343899,2.37387115 L25.2343899,6.87387115 L25.4303899,6.52587115 L17.4303899,2.02587115 L17.2343899,2.37387115 Z" id="Shape" stroke-width="0.6" fill="#FFFFFF" fill-rule="nonzero" stroke-linejoin="round"></path>
            </g>
        </g>
    </g>
</svg>