<?xml version="1.0" encoding="UTF-8"?>
<svg width="26px" height="23px" viewBox="0 0 26 23" version="1.1" xmlns="http://www.w3.org/2000/svg" xmlns:xlink="http://www.w3.org/1999/xlink">
    <!-- Generator: Sketch 55.2 (78181) - https://sketchapp.com -->
    <title>Icon/Dashboard</title>
    <desc>Created with Sketch.</desc>
    <g id="Page-1" stroke="none" stroke-width="1" fill="none" fill-rule="evenodd">
        <g id="1.-Dashboard_Clients" transform="translate(-16.000000, -103.000000)">
            <g id="Navigation_Expanded">
                <g transform="translate(0.000000, 58.000000)">
                    <g id="Icon/Dashboard" transform="translate(17.000000, 46.000000)">
                        <rect id="Rectangle" stroke="#FFFFFF" stroke-width="1.2" x="0" y="0" width="24" height="17.64" rx="1"></rect>
                        <path d="M14.6301627,6.67530076 L14.349806,6.36312105 C14.3452924,6.36693722 14.3409491,6.37083636 14.3366058,6.37481845 L14.6301627,6.67530076 Z M18.4615617,3.79928191 C18.4772317,3.57070132 18.2996668,3.37304834 18.0650427,3.35780853 L14.241138,3.10947509 C14.0065139,3.09423528 13.8036556,3.26719097 13.7879856,3.49577156 C13.7723156,3.72435215 13.9498805,3.92200512 14.1845046,3.93724494 L17.583531,4.15797748 L17.3569122,7.46906517 C17.3412422,7.69762087 17.5188071,7.89531533 17.7534312,7.91049707 C17.9881405,7.92576177 18.1909988,7.75278949 18.2066688,7.52423379 L18.4615617,3.79928191 Z M12.0831072,9.03676647 L11.790487,9.33816134 C11.955022,9.48972986 12.2125549,9.48939802 12.3766641,9.33724878 L12.0831072,9.03676647 Z M5.40543238,9.68369111 C5.22967294,9.83592331 5.21384965,10.0980779 5.37009824,10.2693081 C5.52634683,10.4405382 5.79548751,10.4559688 5.97125547,10.3037366 L5.40543238,9.68369111 Z M9.52038164,6.67530076 L9.81300176,6.37398885 C9.65246948,6.22607059 9.40251602,6.22233737 9.23747009,6.36527802 L9.52038164,6.67530076 Z M14.9106045,6.98748047 L18.3171252,4.08386072 L17.7563267,3.45951789 L14.349806,6.36312105 L14.9106045,6.98748047 Z M12.3766641,9.33724878 L14.9237196,6.97578307 L14.3366058,6.37481845 L11.7895502,8.73636713 L12.3766641,9.33724878 Z M5.97125547,10.3037366 L9.80329318,6.9853235 L9.23747009,6.36527802 L5.40543238,9.68369111 L5.97125547,10.3037366 Z M9.22776151,6.97661267 L11.790487,9.33816134 L12.3757273,8.73545457 L9.81300176,6.37398885 L9.22776151,6.97661267 Z" id="Shape" fill="#FFFFFF" fill-rule="nonzero"></path>
                        <rect id="Rectangle" fill="#FFFFFF" fill-rule="nonzero" x="7.61428571" y="11.76" width="1.37142857" height="3.36" rx="0.685714286"></rect>
                        <rect id="Rectangle" fill="#FFFFFF" fill-rule="nonzero" x="11.4714286" y="10.92" width="1.37142857" height="4.2" rx="0.685714286"></rect>
                        <rect id="Rectangle" fill="#FFFFFF" fill-rule="nonzero" x="15.3285714" y="10.08" width="1.37142857" height="5.04" rx="0.685714286"></rect>
                        <rect id="Rectangle" fill="#FFFFFF" fill-rule="nonzero" x="11.4" y="17.7" width="1.2" height="3.5" rx="0.428571"></rect>
                        <path d="M11.996,15.16 L12.004,15.16 C12.2801424,15.16 12.504,15.3838576 12.504,15.66 L12.504,26.66 C12.504,26.9361424 12.2801424,27.16 12.004,27.16 L11.996,27.16 C11.7198576,27.16 11.496,26.9361424 11.496,26.66 L11.496,15.66 C11.496,15.3838576 11.7198576,15.16 11.996,15.16 Z" id="Rectangle" fill="#FFFFFF" fill-rule="nonzero" transform="translate(12.000000, 21.160000) rotate(-90.000000) translate(-12.000000, -21.160000) "></path>
                    </g>
                </g>
            </g>
        </g>
    </g>
</svg>