<?xml version="1.0" encoding="UTF-8"?>
<svg width="26px" height="23px" viewBox="0 0 26 23" version="1.1" xmlns="http://www.w3.org/2000/svg" xmlns:xlink="http://www.w3.org/1999/xlink">
    <!-- Generator: Sketch 55.2 (78181) - https://sketchapp.com -->
    <title>Icon/Dashboard/Selected</title>
    <desc>Created with Sketch.</desc>
    <g id="Page-1" stroke="none" stroke-width="1" fill="none" fill-rule="evenodd">
        <g id="Icons-1" transform="translate(-66.000000, -465.000000)">
            <g id="Icon/Dashboard/Selected" transform="translate(67.000000, 466.000000)">
                <path d="M23,0 L1,0 C0.4477,0 0,0.448 0,1 L0,16.64 C0,17.192 0.4477,17.64 1,17.64 L23,17.64 C23.5523,17.64 24,17.192 24,16.64 L24,1 C24,0.448 23.5523,0 23,0 Z" id="Path" stroke="#FFFFFF" stroke-width="1.2"></path>
                <path d="M14.6301,6.675 L14.3497,6.363 C14.3452,6.367 14.3409,6.371 14.3365,6.375 L14.6301,6.675 Z M18.4615,3.799 C18.4772,3.571 18.2996,3.373 18.065,3.358 L14.2411,3.11 C14.0064,3.094 13.8036,3.267 13.7879,3.496 C13.7722,3.724 13.9498,3.922 14.1844,3.937 L17.5835,4.158 L17.3568,7.469 C17.3412,7.698 17.5187,7.895 17.7534,7.911 C17.9881,7.926 18.1909,7.753 18.2066,7.524 L18.4615,3.799 Z M12.083,9.037 L11.7904,9.338 C11.9549,9.49 12.2125,9.49 12.3766,9.337 L12.083,9.037 Z M5.4054,9.684 C5.2296,9.836 5.2138,10.098 5.37,10.269 C5.5263,10.441 5.7954,10.456 5.9712,10.304 L5.4054,9.684 Z M9.5203,6.675 L9.8129,6.374 C9.6524,6.226 9.4024,6.222 9.2374,6.365 L9.5203,6.675 Z M14.9105,6.988 L18.3171,4.084 L17.7563,3.46 L14.3497,6.363 L14.9105,6.988 Z M12.3766,9.337 L14.9236,6.976 L14.3365,6.375 L11.7895,8.736 L12.3766,9.337 Z M5.9712,10.304 L9.8032,6.985 L9.2374,6.365 L5.4054,9.684 L5.9712,10.304 Z M9.2277,6.977 L11.7904,9.338 L12.3757,8.736 L9.8129,6.374 L9.2277,6.977 Z" id="Shape" fill="#FFFFFF" fill-rule="nonzero"></path>
                <path d="M8.9857,12.446 C8.9857,12.067 8.6787,11.76 8.3,11.76 C7.9213,11.76 7.6143,12.067 7.6143,12.446 L7.6143,14.434 C7.6143,14.813 7.9213,15.12 8.3,15.12 C8.6787,15.12 8.9857,14.813 8.9857,14.434 L8.9857,12.446 Z" id="Path" fill="#FFFFFF" fill-rule="nonzero"></path>
                <path d="M12.8429,11.606 C12.8429,11.227 12.5359,10.92 12.1571,10.92 C11.7784,10.92 11.4714,11.227 11.4714,11.606 L11.4714,14.434 C11.4714,14.813 11.7784,15.12 12.1571,15.12 C12.5359,15.12 12.8429,14.813 12.8429,14.434 L12.8429,11.606 Z" id="Path" fill="#FFFFFF" fill-rule="nonzero"></path>
                <path d="M16.7,10.766 C16.7,10.387 16.393,10.08 16.0143,10.08 C15.6356,10.08 15.3286,10.387 15.3286,10.766 L15.3286,14.434 C15.3286,14.813 15.6356,15.12 16.0143,15.12 C16.393,15.12 16.7,14.813 16.7,14.434 L16.7,10.766 Z" id="Path" fill="#FFFFFF" fill-rule="nonzero"></path>
                <path d="M12.1713,17.7 L11.8285,17.7 C11.5918,17.7 11.3999,17.892 11.3999,18.129 L11.3999,20.771 C11.3999,21.008 11.5918,21.2 11.8285,21.2 L12.1713,21.2 C12.408,21.2 12.5999,21.008 12.5999,20.771 L12.5999,18.129 C12.5999,17.892 12.408,17.7 12.1713,17.7 Z" id="Path" fill="#FFFFFF" fill-rule="nonzero"></path>
                <path d="M6,21.164 L6,21.156 C6,20.88 6.2239,20.656 6.5,20.656 L17.5,20.656 C17.7761,20.656 18,20.88 18,21.156 L18,21.164 C18,21.44 17.7761,21.664 17.5,21.664 L6.5,21.664 C6.2239,21.664 6,21.44 6,21.164 Z" id="Path" fill="#FFFFFF" fill-rule="nonzero"></path>
            </g>
        </g>
    </g>
</svg>