<?xml version="1.0" encoding="UTF-8"?>
<svg width="19px" height="22px" viewBox="0 0 19 22" version="1.1" xmlns="http://www.w3.org/2000/svg" xmlns:xlink="http://www.w3.org/1999/xlink">
    <!-- Generator: Sketch 55.2 (78181) - https://sketchapp.com -->
    <title>Icon/Data/Selected</title>
    <desc>Created with Sketch.</desc>
    <g id="Page-1" stroke="none" stroke-width="1" fill="none" fill-rule="evenodd">
        <g id="Icons-1" transform="translate(-1205.000000, -466.000000)" fill="#FFFFFF" fill-rule="nonzero">
            <path d="M1223.86,470.714 C1223.86,469.265 1222.66,468.081 1220.95,467.277 C1219.25,466.473 1216.95,466 1214.43,466 C1211.9,466 1209.61,466.473 1207.9,467.277 C1206.2,468.081 1205,469.265 1205,470.714 C1205,474.327 1205,479.63 1205,483.286 C1205,484.735 1206.2,485.911 1207.9,486.715 C1209.61,487.519 1211.9,488 1214.43,488 C1216.95,488 1219.25,487.519 1220.95,486.715 C1222.66,485.911 1223.86,484.735 1223.86,483.286 L1223.86,470.714 Z M1214.43,467.048 C1216.81,467.048 1218.97,467.505 1220.48,468.218 C1221.99,468.931 1222.78,469.849 1222.78,470.714 C1222.78,471.58 1221.99,472.49 1220.48,473.202 C1218.97,473.915 1216.81,474.381 1214.43,474.381 C1212.04,474.381 1209.89,473.915 1208.38,473.202 C1206.86,472.49 1206.08,471.58 1206.08,470.714 C1206.08,469.849 1206.86,468.931 1208.38,468.218 C1209.89,467.505 1212.04,467.048 1214.43,467.048 Z M1206.08,472.94 C1206.56,473.403 1207.19,473.806 1207.9,474.144 C1209.61,474.948 1211.9,475.429 1214.43,475.429 C1216.95,475.429 1219.25,474.948 1220.95,474.144 C1221.67,473.806 1222.29,473.403 1222.78,472.94 C1222.78,473.421 1222.78,474.425 1222.78,474.905 C1222.78,475.77 1221.99,476.68 1220.48,477.393 C1218.97,478.106 1216.81,478.571 1214.43,478.571 C1212.04,478.571 1209.89,478.106 1208.38,477.393 C1206.86,476.68 1206.08,475.77 1206.08,474.905 C1206.08,474.425 1206.08,473.421 1206.08,472.94 Z M1206.08,477.131 C1206.56,477.593 1207.19,477.996 1207.9,478.334 C1209.61,479.138 1211.9,479.619 1214.43,479.619 C1216.95,479.619 1219.25,479.138 1220.95,478.334 C1221.67,477.996 1222.29,477.593 1222.78,477.131 C1222.78,477.611 1222.78,478.615 1222.78,479.095 C1222.78,479.96 1221.99,480.871 1220.48,481.583 C1218.97,482.296 1216.81,482.762 1214.43,482.762 C1212.04,482.762 1209.89,482.296 1208.38,481.583 C1206.86,480.871 1206.08,479.96 1206.08,479.095 C1206.08,478.615 1206.08,477.611 1206.08,477.131 Z M1206.08,481.321 C1206.56,481.784 1207.19,482.187 1207.9,482.525 C1209.61,483.329 1211.9,483.81 1214.43,483.81 C1216.95,483.81 1219.25,483.329 1220.95,482.525 C1221.67,482.187 1222.29,481.784 1222.78,481.321 L1222.78,483.286 C1222.78,484.151 1221.99,485.061 1220.48,485.774 C1218.97,486.487 1216.81,486.952 1214.43,486.952 C1212.04,486.952 1209.89,486.487 1208.38,485.774 C1206.86,485.061 1206.08,484.151 1206.08,483.286 L1206.08,481.321 Z" id="Icon/Data/Selected"></path>
        </g>
    </g>
</svg>