<?xml version="1.0" encoding="UTF-8"?>
<svg width="14px" height="18px" viewBox="0 0 14 18" version="1.1" xmlns="http://www.w3.org/2000/svg" xmlns:xlink="http://www.w3.org/1999/xlink">
    <!-- Generator: Sketch 55.2 (78181) - https://sketchapp.com -->
    <title>Icon/Delete</title>
    <desc>Created with Sketch.</desc>
    <defs>
        <path d="M3.1,0 C2.77,0 2.5,0.269 2.5,0.6 C2.5,0.931 2.77,1.2 3.1,1.2 L12.1,1.2 C12.43,1.2 12.7,0.931 12.7,0.6 C12.7,0.269 12.43,0 12.1,0 L3.1,0 Z M1.6,3 C1.43,3 1.26,3.073 1.15,3.202 C1.04,3.33 0.98,3.501 1,3.672 L2.63,17.172 C2.67,17.473 2.92,17.7 3.23,17.7 L11.89,17.7 C12.19,17.7 12.45,17.475 12.49,17.175 L14.2,3.675 C14.22,3.504 14.16,3.332 14.05,3.203 C13.94,3.074 13.77,3 13.6,3 L1.6,3 Z M3.76,16.5 L2.28,4.2 L12.92,4.2 L11.36,16.5 L3.76,16.5 Z" id="path-1"></path>
    </defs>
    <g id="Page-1" stroke="none" stroke-width="1" fill="none" fill-rule="evenodd">
        <g id="Icons-2" transform="translate(-1187.000000, -335.000000)">
            <g id="Icon/Delete" transform="translate(1186.000000, 335.000000)">
                <g id="Clipped">
                    <mask id="mask-2" fill="white">
                        <use xlink:href="#path-1"></use>
                    </mask>
                    <g id="Shape"></g>
                    <path d="M1,3.672 L2,3.552 L2,3.552 L1,3.672 Z M2.63,17.172 L1.64,17.291 L1.64,17.291 L2.63,17.172 Z M12.49,17.175 L13.48,17.301 L13.48,17.301 L12.49,17.175 Z M14.2,3.675 L15.19,3.801 L15.19,3.801 L14.2,3.675 Z M2.28,4.2 L2.28,3.2 C1.99,3.2 1.72,3.322 1.53,3.536 C1.34,3.75 1.25,4.036 1.28,4.32 L2.28,4.2 Z M3.76,16.5 L2.76,16.62 C2.82,17.122 3.25,17.5 3.76,17.5 L3.76,16.5 Z M12.92,4.2 L13.91,4.326 C13.95,4.041 13.86,3.754 13.67,3.539 C13.48,3.323 13.21,3.2 12.92,3.2 L12.92,4.2 Z M11.36,16.5 L11.36,17.5 C11.87,17.5 12.29,17.125 12.36,16.626 L11.36,16.5 Z M3.5,0.6 C3.5,0.821 3.32,1 3.1,1 L3.1,-1 C2.22,-1 1.5,-0.284 1.5,0.6 L3.5,0.6 Z M3.1,0.2 C3.32,0.2 3.5,0.379 3.5,0.6 L1.5,0.6 C1.5,1.484 2.22,2.2 3.1,2.2 L3.1,0.2 Z M12.1,0.2 L3.1,0.2 L3.1,2.2 L12.1,2.2 L12.1,0.2 Z M11.7,0.6 C11.7,0.379 11.88,0.2 12.1,0.2 L12.1,2.2 C12.98,2.2 13.7,1.484 13.7,0.6 L11.7,0.6 Z M12.1,1 C11.88,1 11.7,0.821 11.7,0.6 L13.7,0.6 C13.7,-0.284 12.98,-1 12.1,-1 L12.1,1 Z M3.1,1 L12.1,1 L12.1,-1 L3.1,-1 L3.1,1 Z M1.9,3.865 C1.82,3.951 1.71,4 1.6,4 L1.6,2 C1.14,2 0.71,2.196 0.4,2.538 L1.9,3.865 Z M2,3.552 C2.01,3.666 1.98,3.78 1.9,3.865 L0.4,2.538 C0.1,2.881 -0.04,3.337 0.01,3.791 L2,3.552 Z M3.62,17.052 L2,3.552 L0.01,3.791 L1.64,17.291 L3.62,17.052 Z M3.23,16.7 C3.43,16.7 3.6,16.851 3.62,17.052 L1.64,17.291 C1.73,18.095 2.42,18.7 3.23,18.7 L3.23,16.7 Z M11.89,16.7 L3.23,16.7 L3.23,18.7 L11.89,18.7 L11.89,16.7 Z M11.49,17.05 C11.52,16.85 11.69,16.7 11.89,16.7 L11.89,18.7 C12.7,18.7 13.38,18.1 13.48,17.301 L11.49,17.05 Z M13.2,3.55 L11.49,17.05 L13.48,17.301 L15.19,3.801 L13.2,3.55 Z M13.3,3.864 C13.22,3.778 13.19,3.664 13.2,3.55 L15.19,3.801 C15.25,3.345 15.1,2.887 14.8,2.542 L13.3,3.864 Z M13.6,4 C13.49,4 13.38,3.951 13.3,3.864 L14.8,2.542 C14.5,2.197 14.06,2 13.6,2 L13.6,4 Z M1.6,4 L13.6,4 L13.6,2 L1.6,2 L1.6,4 Z M1.28,4.32 L2.76,16.62 L4.75,16.38 L3.27,4.08 L1.28,4.32 Z M12.92,3.2 L2.28,3.2 L2.28,5.2 L12.92,5.2 L12.92,3.2 Z M12.36,16.626 L13.91,4.326 L11.93,4.074 L10.37,16.374 L12.36,16.626 Z M3.76,17.5 L11.36,17.5 L11.36,15.5 L3.76,15.5 L3.76,17.5 Z" id="Shape" fill="#272B2E" fill-rule="nonzero" mask="url(#mask-2)"></path>
                </g>
            </g>
        </g>
    </g>
</svg>