<?xml version="1.0" encoding="UTF-8"?>
<svg width="24px" height="24px" viewBox="0 0 24 24" version="1.1" xmlns="http://www.w3.org/2000/svg" xmlns:xlink="http://www.w3.org/1999/xlink">
    <!-- Generator: Sketch 55.2 (78181) - https://sketchapp.com -->
    <title>Icon/Edit</title>
    <desc>Created with Sketch.</desc>
    <defs>
        <rect id="path-1" x="0.77" y="0.64" width="17.877" height="24.6486"></rect>
        <path d="M10.99,5.106 L11.38,4.324 C11.59,3.899 12.17,3.732 12.67,3.95 L15.39,5.133 C15.89,5.351 16.13,5.872 15.91,6.296 L9.86,18.419 C9.8,18.538 9.71,18.641 9.59,18.721 L5.58,21.459 L5.25,16.832 C5.24,16.698 5.27,16.566 5.32,16.446 C5.32,16.446 9.43,8.238 10.99,5.106" id="path-3"></path>
    </defs>
    <g id="Page-1" stroke="none" stroke-width="1" fill="none" fill-rule="evenodd">
        <g id="Icons-2" transform="translate(-1498.000000, -332.000000)">
            <g id="Icon/Edit" transform="translate(1498.000000, 331.000000)">
                <rect id="Rectangle" fill-opacity="0.01" fill="#D8D8D8" fill-rule="nonzero" x="0" y="1" width="24" height="24"></rect>
                <g id="Clipped" transform="translate(2.000000, 0.000000)">
                    <mask id="mask-2" fill="white">
                        <use xlink:href="#path-1"></use>
                    </mask>
                    <g id="Rectangle"></g>
                    <path d="M9.92,4.57 C9.62,5.163 9.86,5.883 10.45,6.179 C11.05,6.476 11.77,6.235 12.06,5.642 L9.92,4.57 Z M11.38,4.324 L12.45,4.86 L11.38,4.324 Z M12.67,3.95 L13.15,2.849 L12.67,3.95 Z M15.39,5.133 L14.91,6.233 L15.39,5.133 Z M15.91,6.296 L14.84,5.76 L15.91,6.296 Z M9.86,18.419 L8.78,17.882 L9.86,18.419 Z M9.59,18.721 L10.27,19.712 L10.27,19.712 L9.59,18.721 Z M5.58,21.459 L4.38,21.544 C4.41,21.973 4.67,22.352 5.06,22.539 C5.44,22.726 5.9,22.692 6.26,22.45 L5.58,21.459 Z M5.25,16.832 L6.45,16.746 L6.45,16.746 L5.25,16.832 Z M5.32,16.446 L4.25,15.91 L5.32,16.446 Z M12.06,5.642 C12.36,5.049 12.12,4.329 11.53,4.033 C10.93,3.736 10.21,3.977 9.92,4.57 L12.06,5.642 Z M12.06,5.642 L12.45,4.86 L10.31,3.788 L9.92,4.57 L12.06,5.642 Z M12.45,4.86 C12.39,4.992 12.29,5.038 12.25,5.048 C12.22,5.059 12.2,5.052 12.19,5.05 L13.15,2.849 C12.2,2.437 10.87,2.667 10.31,3.788 L12.45,4.86 Z M12.19,5.05 L14.91,6.233 L15.87,4.033 L13.15,2.849 L12.19,5.05 Z M14.91,6.233 C14.91,6.23 14.86,6.207 14.82,6.128 C14.79,6.043 14.77,5.9 14.84,5.76 L16.99,6.833 C17.58,5.646 16.84,4.454 15.87,4.033 L14.91,6.233 Z M14.84,5.76 L8.78,17.882 L10.93,18.955 L16.99,6.833 L14.84,5.76 Z M8.78,17.882 C8.82,17.809 8.87,17.759 8.91,17.73 L10.27,19.712 C10.54,19.524 10.77,19.267 10.93,18.955 L8.78,17.882 Z M8.91,17.73 L4.9,20.468 L6.26,22.45 L10.27,19.712 L8.91,17.73 Z M6.78,21.374 L6.45,16.746 L4.05,16.917 L4.38,21.544 L6.78,21.374 Z M6.45,16.746 C6.45,16.825 6.44,16.908 6.4,16.983 L4.25,15.91 C4.09,16.223 4.03,16.57 4.05,16.917 L6.45,16.746 Z M5.32,16.446 C6.4,16.983 6.4,16.983 6.4,16.983 C6.4,16.983 6.4,16.982 6.4,16.982 C6.4,16.982 6.4,16.982 6.4,16.981 C6.4,16.98 6.4,16.979 6.4,16.977 C6.4,16.973 6.41,16.967 6.41,16.959 C6.42,16.943 6.43,16.92 6.44,16.89 C6.48,16.829 6.52,16.739 6.58,16.624 C6.69,16.393 6.86,16.06 7.06,15.651 C7.47,14.833 8.03,13.709 8.64,12.487 C9.87,10.043 11.28,7.208 12.06,5.642 L9.92,4.57 C9.13,6.136 7.72,8.971 6.5,11.414 C5.89,12.636 5.33,13.76 4.92,14.579 C4.71,14.988 4.55,15.321 4.43,15.551 C4.37,15.667 4.33,15.756 4.3,15.817 C4.28,15.848 4.27,15.871 4.26,15.886 C4.26,15.894 4.26,15.9 4.25,15.904 C4.25,15.906 4.25,15.908 4.25,15.909 C4.25,15.909 4.25,15.909 4.25,15.909 C4.25,15.909 4.25,15.91 4.25,15.91 C4.25,15.91 4.25,15.91 4.25,15.91 C4.25,15.91 4.25,15.91 5.32,16.446 Z" id="Shape" fill="#272B2E" fill-rule="nonzero" mask="url(#mask-2)"></path>
                    <mask id="mask-4" fill="white">
                        <use xlink:href="#path-3"></use>
                    </mask>
                    <g id="Path"></g>
                </g>
            </g>
        </g>
    </g>
</svg>