<?xml version="1.0" encoding="UTF-8"?>
<svg width="16px" height="16px" viewBox="0 0 16 16" version="1.1" xmlns="http://www.w3.org/2000/svg" xmlns:xlink="http://www.w3.org/1999/xlink">
    <!-- Generator: Sketch 55.2 (78181) - https://sketchapp.com -->
    <title>Icon/Filter</title>
    <desc>Created with Sketch.</desc>
    <defs>
        <path d="M6,9.493 L0.09,0.7808 C-0.14,0.4488 0.1,0 0.5,0 L15.5,0 C15.91,0 16.14,0.4559 15.91,0.7872 L10,9.2077 L10,13.4953 C10,13.6623 9.92,13.8183 9.78,13.9111 L6.78,15.9157 C6.45,16.1377 6,15.8996 6,15.5 L6,9.493 Z M1.44,1 L6.91,9.0585 C6.97,9.1413 7,9.2392 7,9.3393 L7,14.5645 L9,13.2281 L9,9.0497 C9,8.9469 9.03,8.8466 9.09,8.7625 L14.54,1 L1.44,1 Z" id="path-1"></path>
    </defs>
    <g id="Page-1" stroke="none" stroke-width="1" fill="none" fill-rule="evenodd">
        <g id="Icons-2" transform="translate(-1117.000000, -75.000000)">
            <g id="Icon/Filter" transform="translate(1117.000000, 75.000000)">
                <mask id="mask-2" fill="white">
                    <use xlink:href="#path-1"></use>
                </mask>
                <g id="Shape"></g>
                <g id="Group" mask="url(#mask-2)" fill="#272B2E" fill-rule="nonzero">
                    <g transform="translate(-4.000000, -4.000000)">
                        <path d="M10,13.493 L4.09,4.7808 C3.86,4.4488 4.1,4 4.5,4 L19.5,4 C19.91,4 20.14,4.4559 19.91,4.7872 L14,13.2077 L14,17.4953 C14,17.6623 13.92,17.8183 13.78,17.9111 L10.78,19.9157 C10.45,20.1377 10,19.8996 10,19.5 L10,13.493 Z M5.44,5 L10.91,13.0585 C10.97,13.1413 11,13.2392 11,13.3393 L11,18.5645 L13,17.2281 L13,13.0497 C13,12.9469 13.03,12.8466 13.09,12.7625 L18.54,5 L5.44,5 Z" id="Shape" stroke="none"></path>
                        <polygon id="Path" stroke="#000000" stroke-width="1" points="0.5 0.5 23.5 0.5 23.5 23.5 0.5 23.5"></polygon>
                    </g>
                </g>
            </g>
        </g>
    </g>
</svg>