<?xml version="1.0" encoding="UTF-8"?>
<svg width="24px" height="27px" viewBox="0 0 24 27" version="1.1" xmlns="http://www.w3.org/2000/svg" xmlns:xlink="http://www.w3.org/1999/xlink">
    <!-- Generator: Sketch 55.2 (78181) - https://sketchapp.com -->
    <title>Icon/Manpower Attendance</title>
    <desc>Created with Sketch.</desc>
    <g id="Page-1" stroke="none" stroke-width="1" fill="none" fill-rule="evenodd" opacity="0.800000012">
        <g id="1.-Dashboard_Clients" transform="translate(-18.000000, -231.000000)">
            <g id="Navigation_Expanded">
                <g transform="translate(0.000000, 58.000000)">
                    <g id="Icon/Manpower-Attendance" transform="translate(18.000000, 174.000000)">
                        <ellipse id="Oval" stroke="#FFFFFF" stroke-width="1.2" cx="10.7412449" cy="4.5" rx="4.69565217" ry="4.5"></ellipse>
                        <path d="M10.1390536,21.76325 C10.4272623,21.76325 10.6607927,21.53945 10.6607927,21.26325 C10.6607927,20.98715 10.4272623,20.76325 10.1390536,20.76325 L10.1390536,21.76325 Z M1.18054228,16.67115 L1.68033706,16.81465 L1.18054228,16.67115 Z M11.0364449,9.39255 L11.0182884,8.89285 L11.0364449,9.39255 Z M18.8957145,13.20265 C19.0878188,13.40845 19.4176623,13.42605 19.6324101,13.24195 C19.8472623,13.05785 19.8656275,12.74175 19.6735231,12.53595 L18.8957145,13.20265 Z M10.1390536,20.76325 C7.58159271,20.76325 6.59112315,20.84605 5.04454228,20.87705 C3.46377706,20.90865 2.44526924,20.88255 1.80927967,20.70375 C1.5068275,20.61875 1.34060141,20.51155 1.24212837,20.39945 C1.14618054,20.29015 1.07076837,20.12645 1.04935619,19.84565 C1.00355793,19.24485 1.21369358,18.30725 1.68033706,16.81465 L0.680757932,16.52765 C0.223505758,17.99015 -0.053433372,19.10415 0.00865358455,19.91845 C0.0411996715,20.34525 0.16848315,20.72995 0.44376315,21.04335 C0.716507498,21.35395 1.09002054,21.54375 1.51561358,21.66335 C2.33569358,21.89385 3.5264588,21.90755 5.06633011,21.87675 C6.64037532,21.84525 7.59494924,21.76325 10.1390536,21.76325 L10.1390536,20.76325 Z M1.68033706,16.81465 C2.01163098,15.75495 2.55489706,14.09465 3.90374924,12.66275 C5.23564489,11.24875 7.39616663,10.01415 11.0546014,9.89225 L11.0182884,8.89285 C7.09856663,9.02345 4.66421532,10.36305 3.12917532,11.99265 C1.61108141,13.60425 1.01545358,15.45705 0.680757932,16.52765 L1.68033706,16.81465 Z M11.0546014,9.89225 C12.0715753,9.85835 13.2467405,9.86155 14.5545318,10.27605 C15.8570014,10.68895 17.3273666,11.52225 18.8957145,13.20265 L19.6735231,12.53595 C17.9967579,10.73955 16.3760275,9.80015 14.882184,9.32665 C13.3936623,8.85485 12.0671927,8.85795 11.0182884,8.89285 L11.0546014,9.89225 Z" id="Shape" fill="#FFFFFF" fill-rule="nonzero"></path>
                        <g id="Group-3" transform="translate(12.000000, 14.400000)" stroke="#FFFFFF">
                            <circle id="Oval" cx="5.27075154" cy="5.27075154" r="5.27075154"></circle>
                            <polyline id="Path" stroke-linecap="round" points="3.99111308 5.42610538 5.56859769 5.42610538 6.64575154 3.51591308"></polyline>
                        </g>
                    </g>
                </g>
            </g>
        </g>
    </g>
</svg>