<?xml version="1.0" encoding="UTF-8"?>
<svg width="24px" height="27px" viewBox="0 0 24 27" version="1.1" xmlns="http://www.w3.org/2000/svg" xmlns:xlink="http://www.w3.org/1999/xlink">
    <!-- Generator: Sketch 55.2 (78181) - https://sketchapp.com -->
    <title>Icon/Manpower attendance/Selected</title>
    <desc>Created with Sketch.</desc>
    <g id="Page-1" stroke="none" stroke-width="1" fill="none" fill-rule="evenodd">
        <g id="Icons-1" transform="translate(-422.000000, -464.000000)">
            <g id="Icon/Manpower-attendance/Selected" transform="translate(422.000370, 465.000000)">
                <path d="M10.7406301,9 C13.3346301,9 15.4366301,6.985 15.4366301,4.5 C15.4366301,2.015 13.3346301,0 10.7406301,0 C8.1476301,0 6.0456301,2.015 6.0456301,4.5 C6.0456301,6.985 8.1476301,9 10.7406301,9 Z" id="Path" stroke="#FFFFFF" stroke-width="1.2"></path>
                <path d="M10.1386301,21.763 C10.4266301,21.763 10.6606301,21.539 10.6606301,21.263 C10.6606301,20.987 10.4266301,20.763 10.1386301,20.763 L10.1386301,21.763 Z M1.1806301,16.671 L1.6796301,16.815 L1.1806301,16.671 Z M11.0356301,9.393 L11.0176301,8.893 L11.0356301,9.393 Z M18.8956301,13.203 C19.0876301,13.408 19.4176301,13.426 19.6316301,13.242 C19.8466301,13.058 19.8656301,12.742 19.6736301,12.536 L18.8956301,13.203 Z M10.1386301,20.763 C7.5816301,20.763 6.5906301,20.846 5.0446301,20.877 C3.4636301,20.909 2.4446301,20.883 1.8086301,20.704 C1.5066301,20.619 1.3406301,20.512 1.2416301,20.399 C1.1456301,20.29 1.0706301,20.126 1.0486301,19.846 C1.0036301,19.245 1.2136301,18.307 1.6796301,16.815 L0.680630098,16.528 C0.223630098,17.99 -0.0533699016,19.104 0.00863009843,19.918 C0.0406300984,20.345 0.167630098,20.73 0.443630098,21.043 C0.716630098,21.354 1.0896301,21.544 1.5156301,21.663 C2.3356301,21.894 3.5256301,21.908 5.0656301,21.877 C6.6396301,21.845 7.5946301,21.763 10.1386301,21.763 L10.1386301,20.763 Z M1.6796301,16.815 C2.0116301,15.755 2.5546301,14.095 3.9036301,12.663 C5.2356301,11.249 7.3956301,10.014 11.0546301,9.892 L11.0176301,8.893 C7.0986301,9.023 4.6636301,10.363 3.1286301,11.993 C1.6106301,13.604 1.0146301,15.457 0.680630098,16.528 L1.6796301,16.815 Z M11.0546301,9.892 C12.0716301,9.858 13.2466301,9.862 14.5546301,10.276 C15.8566301,10.689 17.3266301,11.522 18.8956301,13.203 L19.6736301,12.536 C17.9966301,10.74 16.3756301,9.8 14.8816301,9.327 C13.3936301,8.855 12.0666301,8.858 11.0176301,8.893 L11.0546301,9.892 Z" id="Shape" fill="#FFFFFF" fill-rule="nonzero"></path>
                <path d="M17.2706301,24.941 C20.1816301,24.941 22.5416301,22.582 22.5416301,19.671 C22.5416301,16.76 20.1816301,14.4 17.2706301,14.4 C14.3596301,14.4 11.9996301,16.76 11.9996301,19.671 C11.9996301,22.582 14.3596301,24.941 17.2706301,24.941 Z" id="Path" stroke="#FFFFFF"></path>
                <polyline id="Path" stroke="#FFFFFF" stroke-linecap="round" points="15.9906301 19.826 17.5686301 19.826 18.6456301 17.916"></polyline>
            </g>
        </g>
    </g>
</svg>