<?xml version="1.0" encoding="utf-8"?>
<!-- Generator: Adobe Illustrator 26.4.0, SVG Export Plug-In . SVG Version: 6.00 Build 0)  -->
<svg version="1.1" id="Layer_1" xmlns="http://www.w3.org/2000/svg" xmlns:xlink="http://www.w3.org/1999/xlink" x="0px" y="0px"
	 viewBox="0 0 24 27" style="enable-background:new 0 0 24 27;" xml:space="preserve">
<style type="text/css">
	.st0{fill:none;stroke:#000000;stroke-width:0.25;}
	.st1{fill:#FFFFFF;stroke:#000000;stroke-width:0.25;stroke-miterlimit:10;}
	.st2{fill:none;stroke:#000000;stroke-width:0.25;stroke-linecap:round;}
</style>
<g id="Page-1">
	<g id="Icons-1" transform="translate(-422.000000, -464.000000)">
		<g id="Icon_x2F_Manpower-attendance_x2F_Selected" transform="translate(422.000370, 465.000000)">
			<path id="Path" class="st0" d="M10.7,9c2.6,0,4.7-2,4.7-4.5S13.3,0,10.7,0C8.1,0,6,2,6,4.5S8.1,9,10.7,9z"/>
			<path id="Shape" class="st1" d="M10.1,21.8c0.3,0,0.5-0.2,0.5-0.5c0-0.3-0.2-0.5-0.5-0.5V21.8z M1.2,16.7l0.5,0.1L1.2,16.7z
				 M11,9.4l0-0.5L11,9.4z M18.9,13.2c0.2,0.2,0.5,0.2,0.7,0c0.2-0.2,0.2-0.5,0-0.7L18.9,13.2z M10.1,20.8c-2.6,0-3.5,0.1-5.1,0.1
				c-1.6,0-2.6,0-3.2-0.2c-0.3-0.1-0.5-0.2-0.6-0.3c-0.1-0.1-0.2-0.3-0.2-0.6c0-0.6,0.2-1.5,0.6-3l-1-0.3C0.2,18-0.1,19.1,0,19.9
				c0,0.4,0.2,0.8,0.4,1.1c0.3,0.3,0.6,0.5,1.1,0.6c0.8,0.2,2,0.2,3.5,0.2c1.6,0,2.5-0.1,5.1-0.1V20.8z M1.7,16.8
				c0.3-1.1,0.9-2.7,2.2-4.2c1.3-1.4,3.5-2.6,7.2-2.8l0-1C7.1,9,4.7,10.4,3.1,12c-1.5,1.6-2.1,3.5-2.4,4.5L1.7,16.8z M11.1,9.9
				c1,0,2.2,0,3.5,0.4c1.3,0.4,2.8,1.2,4.3,2.9l0.8-0.7c-1.7-1.8-3.3-2.7-4.8-3.2c-1.5-0.5-2.8-0.5-3.9-0.4L11.1,9.9z"/>
			<path id="Path_00000108996243280974781430000000090252130155076234_" class="st0" d="M17.3,24.9c2.9,0,5.3-2.4,5.3-5.3
				s-2.4-5.3-5.3-5.3S12,16.8,12,19.7S14.4,24.9,17.3,24.9z"/>
			<polyline id="Path_00000013908279291697220630000003746313382510492560_" class="st2" points="16,19.8 17.6,19.8 18.6,17.9 			
				"/>
		</g>
	</g>
</g>
</svg>
