<?xml version="1.0" encoding="UTF-8"?>
<svg width="23px" height="14px" viewBox="0 0 23 14" version="1.1" xmlns="http://www.w3.org/2000/svg" xmlns:xlink="http://www.w3.org/1999/xlink">
    <!-- Generator: Sketch 55.2 (78181) - https://sketchapp.com -->
    <title>Icon/Sort</title>
    <desc>Created with Sketch.</desc>
    <g id="Page-1" stroke="none" stroke-width="1" fill="none" fill-rule="evenodd">
        <g id="Icons-2" transform="translate(-375.000000, -209.000000)">
            <g id="Icon/Sort" transform="translate(376.000000, 210.000000)">
                <path d="M4.819,0 L4.819,11.997 L4.819,0 Z" id="Path" fill="#FFFFFF" fill-rule="nonzero"></path>
                <path d="M4.819,0 L4.819,11.997" id="Path" stroke="#272B2E" stroke-width="1.2"></path>
                <path d="M9.219,8.178 L4.191,11.995 L9.219,8.178 Z" id="Path" fill="#FFFFFF" fill-rule="nonzero"></path>
                <path d="M9.219,8.178 L4.191,11.995" id="Path" stroke="#272B2E" stroke-width="1.2"></path>
                <path d="M0,8.178 L5.029,11.995 L0,8.178 Z" id="Path" fill="#FFFFFF" fill-rule="nonzero"></path>
                <path d="M0,8.178 L5.029,11.995" id="Path" stroke="#272B2E" stroke-width="1.2"></path>
                <path d="M16.075,12 L16.075,0.003 L16.075,12 Z" id="Path" fill="#FFFFFF" fill-rule="nonzero"></path>
                <path d="M16.075,12 L16.075,0.003" id="Path" stroke="#272B2E" stroke-width="1.2"></path>
                <path d="M11.674,3.822 L16.703,0.005 L11.674,3.822 Z" id="Path" fill="#FFFFFF" fill-rule="nonzero"></path>
                <path d="M11.674,3.822 L16.703,0.005" id="Path" stroke="#272B2E" stroke-width="1.2"></path>
                <path d="M20.894,3.822 L15.865,0.005 L20.894,3.822 Z" id="Path" fill="#FFFFFF" fill-rule="nonzero"></path>
                <path d="M20.894,3.822 L15.865,0.005" id="Path" stroke="#272B2E" stroke-width="1.2"></path>
            </g>
        </g>
    </g>
</svg>