<?xml version="1.0" encoding="utf-8"?>
<!-- Generator: Adobe Illustrator 17.0.0, SVG Export Plug-In . SVG Version: 6.00 Build 0)  -->
<!DOCTYPE svg PUBLIC "-//W3C//DTD SVG 1.1//EN" "http://www.w3.org/Graphics/SVG/1.1/DTD/svg11.dtd">
<svg version="1.1" id="Layer_1" xmlns="http://www.w3.org/2000/svg" xmlns:xlink="http://www.w3.org/1999/xlink" x="0px" y="0px"
	 width="800px" height="800px" viewBox="0 0 800 800" enable-background="new 0 0 800 800" xml:space="preserve">
<g>
	<g>
		<path fill="#205A8B" d="M21,489.8c-5.3,0-9.7,0-14.4,0c0-29.6,0-59,0-88.9c7.3,0,14.5-0.2,21.6,0.2c1.1,0.1,2.7,2.1,3.2,3.5
			c6,17.1,11.9,34.2,17.8,51.3c0.3,0.9,0.7,1.8,1.2,3.1c5.5-15.9,11-31.5,16.4-47.1c3.8-11,3.9-11,15.6-11c3.8,0,7.6,0,11.6,0
			c0,29.9,0,59.2,0,88.9c-4.9,0-9.6,0-14.9,0c0-23.6,0-47.3,0-70.9c-0.3-0.1-0.7-0.1-1-0.2c-0.9,2.6-1.7,5.2-2.6,7.7
			c-5.8,16.8-11.7,33.6-17.3,50.4c-1,3.1-2.4,4.1-5.6,4c-9.8-0.1-9.8,0-13-9.1c-6.1-17.5-12.1-35.1-18.7-54
			C21,442.5,21,466,21,489.8z"/>
		<path fill="#205A8B" d="M430.5,404c14.1,0,27.8-1.1,41.4,0.3c16.6,1.6,25.1,15.5,21,31.5c-2.2,8.5-8.3,13.4-16.4,16.5
			c6.4,12.6,12.6,24.8,19.1,37.8c-5.5,0-10.3,0.2-15-0.1c-1.3-0.1-2.9-1.8-3.6-3.1c-4.7-9.2-9.3-18.4-13.6-27.8
			c-1.3-2.8-2.8-4.1-6-3.8c-3.6,0.3-7.3,0.1-11.3,0.1c0,11.7,0,22.9,0,34.5c-5.3,0-10.3,0-15.5,0C430.5,461.1,430.5,432.4,430.5,404
			z M446.1,443c7.2-0.3,14-0.2,20.7-1.1c7.1-0.9,10.7-5.8,11-13.2c0.2-7.2-3.4-12.6-10.4-13.7c-7-1-14.1-0.9-21.3-1.3
			C446.1,423.8,446.1,432.9,446.1,443z"/>
		<path fill="#1B598A" d="M559.8,453.3c-12.3,0-24.1,0-36.3,0c0,7.9,0,15.6,0,23.6c13.3,0,26.6,0,40.2,0c0,4.4,0,8.4,0,12.8
			c-18.5,0-37,0-55.8,0c0-28.7,0-57.3,0-86.3c18.1,0,36.2,0,54.6,0c0,3.8,0,7.8,0,12.3c-13,0-25.9,0-39.1,0c0,8.4,0,16.3,0,24.8
			c12,0,24.1,0,36.4,0C559.8,444.9,559.8,448.8,559.8,453.3z"/>
		<path fill="#1D5A8A" d="M337.4,400.5c4.9,0,9.5,0,14.5,0c0,12.6,0,25,0,38.7c6.8-9.6,15.2-12.5,25.4-10.4
			c8,1.6,13.2,6.3,13.5,14.4c0.5,15.4,0.2,30.9,0.2,46.6c-4.8,0-9.5,0-14.8,0c0-10.3,0-20.4,0-30.6c0-3,0-6-0.1-9
			c-0.2-6.7-2.3-9.6-7.5-10.7c-5.9-1.3-12.2,1.1-14.4,6.3c-1.3,3.1-2,6.7-2,10.1c-0.2,11.1-0.1,22.3-0.1,33.8c-4.9,0-9.6,0-14.7,0
			C337.4,460.2,337.4,430.6,337.4,400.5z"/>
		<path fill="#275C8C" d="M615.1,415.7c0-4.5,0-8.3,0-12.4c57.6,0,114.9,0,173.3,0c-6,6-9.5,12.8-20,12.7c-49-0.7-98-0.3-147-0.3
			C619.6,415.7,617.6,415.7,615.1,415.7z"/>
		<path fill="#205A8B" d="M147.2,429.8c5.2,0,9.9,0,15,0c0,20.1,0,39.9,0,60c-4.7,0-9.1,0-14,0c0-2.7,0-5.4,0-8.2
			c-6.3,8.1-14.4,10.5-23.9,9.4c-8.6-1-14.8-6-15.1-14.5c-0.6-15.4-0.2-30.9-0.2-46.7c4.5,0,9.3,0,14.6,0c0,6,0,11.7,0,17.5
			c0,7.5-0.1,15,0.3,22.5c0.3,6.5,2.7,9.4,7.5,10.2c6.6,1.1,11.8-1.2,14-6.8c1.1-2.7,1.7-5.8,1.8-8.7c0.2-9.8,0.1-19.7,0.2-29.5
			C147.2,433.4,147.2,431.7,147.2,429.8z"/>
		<path fill="#1C598A" d="M191.3,489.8c-4.4,0-9,0-14,0c0-19.8,0-39.7,0-59.9c4.4,0,8.8,0,13.7,0c0,2.6,0,5.3,0,9.3
			c1.7-1.9,2.5-2.8,3.2-3.7c6.7-7.7,20.1-9.9,28.8-4.7c5,3,7.6,7.8,7.7,13.2c0.3,15.1,0.1,30.3,0.1,45.7c-4.8,0-9.6,0-14.9,0
			c0-9.5,0-19,0-28.4c0-3.7,0-7.3-0.1-11c-0.2-6.6-2-9.3-6.9-10.7c-5.9-1.6-12.3,0.5-14.7,5.5c-1.5,3-2.2,6.7-2.3,10
			c-0.3,11.3-0.2,22.7-0.2,34C191.8,489.3,191.6,489.4,191.3,489.8z"/>
		<path fill="#19588A" d="M795.4,384.4c0,3.8,0,7.4,0,11.4c-57.4,0-114.7,0-173.1,0c3.8-4.1,7.1-7.7,10.5-11.1
			c0.7-0.7,2.1-0.8,3.2-0.8c52.6,0,105.2,0,157.8,0C794.2,384,794.5,384.2,795.4,384.4z"/>
		<path fill="#245B8C" d="M795.4,422.4c0,4,0,7.8,0,12.3c-2.1,0-4.1,0-6,0c-44.3,0-88.7-0.1-133,0.1c-5.3,0-9.3-1.2-12.7-5.1
			c-2.2-2.5-4.8-4.6-7.8-7.3C689.3,422.4,742.1,422.4,795.4,422.4z"/>
		<path fill="#185889" d="M774.4,377.2c-53.7,0-106.2,0-159.1,0c0-3.8,0-7.7,0-12.2c1.7,0,3.5,0,5.2,0c44.3,0,88.6,0.1,132.9-0.1
			c5.6,0,9.9,1,13.6,5.4C768.9,372.4,771.3,374.3,774.4,377.2z"/>
		<path fill="#215A8B" d="M325.7,449.6c-4.8,0-9.3,0-14,0c-0.2-0.5-0.5-1-0.7-1.6c-2-6.7-5.1-9.5-10.9-9.8c-5.6-0.3-10.3,2.8-12.4,9
			c-2.9,8.4-2.8,17,0,25.5c1.9,5.8,6.2,8.5,12.2,8.4c6-0.1,9.5-3,11.4-9.2c0.3-0.9,0.6-1.8,0.9-2.8c4.6,0,9.1,0,13.5,0
			c0.6,10.9-7.7,20.2-19.8,21.9c-26.9,3.9-38-14.3-35.4-36c2.6-21.6,20.9-32.4,41.2-25C320.6,433.2,325.5,439.9,325.7,449.6z"/>
		<path fill="#215B8B" d="M656.5,358.6c3.9-4.2,7.2-7.9,10.7-11.4c0.8-0.8,2.4-1.1,3.6-1.1c41,0,81.9,0,122.9,0
			c0.5,0,0.9,0.2,1.7,0.4c0,3.9,0,7.8,0,12.1C749.3,358.6,703.4,358.6,656.5,358.6z"/>
		<path fill="#185889" d="M615.2,453.3c0-4.3,0-8.2,0-12.4c46,0,91.7,0,138.9,0c-6.5,5.6-9.2,12.8-19.4,12.6
			c-38-0.7-75.9-0.3-113.9-0.3C619.1,453.3,617.3,453.3,615.2,453.3z"/>
		<path fill="#205A8B" d="M675.5,459.2c40.6,0,80,0,119.7,0c0,4.2,0,8.3,0,12.7c-2.8,0-5.3,0-7.8,0c-30.7,0-61.3-0.1-92,0.1
			c-4.5,0-8-1-11-4.3C682,464.9,679.1,462.4,675.5,459.2z"/>
		<path fill="#265C8C" d="M795.4,309.8c0,4.2,0,8,0,12.3c-34.9,0-69.7,0-105.3,0c3.9-4.2,7.3-8,10.9-11.5c0.8-0.8,2.4-1.1,3.6-1.1
			c29.5-0.1,58.9,0,88.4,0C793.7,309.4,794.3,309.6,795.4,309.8z"/>
		<path fill="#185889" d="M734.6,340.2c-40.4,0-79.6,0-119.2,0c0-4,0-8,0-12.4c1.9,0,3.6,0,5.4,0c31.3,0,62.6,0.1,93.9-0.1
			c4.7,0,8.3,0.9,11.4,4.5C728.3,334.8,731.1,337,734.6,340.2z"/>
		<path fill="#1A598A" d="M720.4,477.4c-3.9,4.2-7.2,7.9-10.7,11.4c-0.8,0.8-2.4,1.2-3.6,1.2c-30.2,0.1-60.3,0-90.8,0
			c0-4.2,0-8.2,0-12.6C650,477.4,684.7,477.4,720.4,477.4z"/>
		<path fill="#1C598A" d="M245.4,429.8c4.7,0,9.3,0,14.4,0c0,19.8,0,39.6,0,59.8c-4.5,0-9.3,0-14.4,0
			C245.4,469.9,245.4,450,245.4,429.8z"/>
		<path fill="#245B8C" d="M260.1,417.6c-5.1,0-9.7,0-14.7,0c0-4.5,0-8.9,0-13.6c4.7,0,9.5,0,14.7,0
			C260.1,408.3,260.1,412.7,260.1,417.6z"/>
	</g>
</g>
<g>
	<path fill="#1D5B8B" d="M10.5,339.7c2.1,1.2,5.1,2.2,8.4,2.2c4.1,0,6.3-1.9,6.3-4.7c0-2.6-1.7-4.2-6.2-5.7
		c-5.7-2.1-9.3-5.1-9.3-10.1c0-5.6,4.7-9.9,12.2-9.9c3.7,0,6.5,0.8,8.3,1.7l-1.5,5.1c-1.2-0.7-3.6-1.6-6.9-1.6c-4,0-5.7,2.2-5.7,4.2
		c0,2.7,2,3.9,6.6,5.7c6,2.3,8.9,5.3,8.9,10.3c0,5.5-4.2,10.4-13.1,10.4c-3.6,0-7.4-1-9.3-2.2L10.5,339.7z"/>
	<path fill="#1D5B8B" d="M59.4,339.1c0,3,0.1,5.4,0.2,7.5H54l-0.3-3.8h-0.1c-1.1,1.8-3.5,4.4-8,4.4c-4.6,0-8.7-2.7-8.7-10.9v-14.7
		h6.3v13.6c0,4.2,1.3,6.8,4.7,6.8c2.5,0,4.2-1.8,4.8-3.4c0.2-0.6,0.4-1.2,0.4-1.9v-15.1h6.3V339.1z"/>
	<path fill="#1D5B8B" d="M66.2,329.9c0-3.3-0.1-5.9-0.2-8.3h5.5l0.3,3.8h0.1c1.8-2.8,4.8-4.4,8.6-4.4c5.7,0,10.5,4.9,10.5,12.7
		c0,9-5.7,13.4-11.4,13.4c-3.1,0-5.7-1.3-7-3.3h-0.1v12.9h-6.3V329.9z M72.5,336.1c0,0.6,0.1,1.2,0.2,1.7c0.6,2.6,2.9,4.4,5.5,4.4
		c4,0,6.4-3.3,6.4-8.3c0-4.4-2.2-8-6.2-8c-2.6,0-5,1.9-5.6,4.7c-0.2,0.5-0.3,1.1-0.3,1.6V336.1z"/>
	<path fill="#1D5B8B" d="M96.2,329.9c0-3.3-0.1-5.9-0.2-8.3h5.5l0.3,3.8h0.1c1.8-2.8,4.8-4.4,8.6-4.4c5.7,0,10.5,4.9,10.5,12.7
		c0,9-5.7,13.4-11.4,13.4c-3.1,0-5.7-1.3-7-3.3h-0.1v12.9h-6.3V329.9z M102.5,336.1c0,0.6,0.1,1.2,0.2,1.7c0.6,2.6,2.9,4.4,5.5,4.4
		c4,0,6.4-3.3,6.4-8.3c0-4.4-2.2-8-6.2-8c-2.6,0-5,1.9-5.6,4.7c-0.2,0.5-0.3,1.1-0.3,1.6V336.1z"/>
	<path fill="#1D5B8B" d="M149.9,333.8c0,9.2-6.5,13.3-12.8,13.3c-7.1,0-12.5-4.9-12.5-12.9c0-8.2,5.4-13.2,12.9-13.2
		C145,321,149.9,326.2,149.9,333.8z M131.1,334.1c0,4.8,2.4,8.5,6.2,8.5c3.6,0,6.1-3.5,6.1-8.6c0-3.9-1.7-8.4-6.1-8.4
		C132.9,325.6,131.1,329.9,131.1,334.1z"/>
	<path fill="#1D5B8B" d="M155.1,329.6c0-3.4-0.1-5.8-0.2-8.1h5.5l0.2,4.8h0.2c1.2-3.5,4.2-5.3,6.8-5.3c0.6,0,1,0.1,1.5,0.2v5.9
		c-0.5-0.1-1.1-0.2-1.8-0.2c-3,0-5.1,1.9-5.6,4.8c-0.1,0.6-0.2,1.2-0.2,1.9v12.9h-6.3V329.6z"/>
	<path fill="#1D5B8B" d="M181.8,314.4v7.1h6v4.7h-6v11c0,3,0.8,4.6,3.2,4.6c1.1,0,1.9-0.2,2.5-0.3l0.1,4.8c-0.9,0.4-2.6,0.6-4.6,0.6
		c-2.3,0-4.3-0.8-5.4-2.1c-1.3-1.4-1.9-3.7-1.9-7v-11.7h-3.6v-4.7h3.6v-5.6L181.8,314.4z"/>
	<path fill="#1D5B8B" d="M196.7,335.8c0.2,4.5,3.7,6.5,7.7,6.5c2.9,0,5-0.4,6.9-1.1l0.9,4.4c-2.2,0.9-5.1,1.5-8.7,1.5
		c-8.1,0-12.9-5-12.9-12.6c0-6.9,4.2-13.4,12.2-13.4c8.1,0,10.8,6.7,10.8,12.2c0,1.2-0.1,2.1-0.2,2.7H196.7z M207.7,331.4
		c0.1-2.3-1-6.1-5.2-6.1c-3.9,0-5.5,3.5-5.8,6.1H207.7z"/>
	<path fill="#1D5B8B" d="M241.8,310.1v29.4c0,2.6,0.1,5.3,0.2,7h-5.6l-0.3-3.9H236c-1.5,2.8-4.5,4.5-8.2,4.5
		c-5.9,0-10.7-5.1-10.7-12.8c-0.1-8.4,5.2-13.3,11.2-13.3c3.4,0,5.9,1.4,7,3.3h0.1v-14.2H241.8z M235.4,332c0-0.5-0.1-1.1-0.2-1.6
		c-0.6-2.5-2.6-4.5-5.4-4.5c-4.1,0-6.3,3.6-6.3,8.3c0,4.6,2.3,7.9,6.3,7.9c2.6,0,4.8-1.7,5.4-4.5c0.2-0.6,0.2-1.2,0.2-1.8V332z"/>
	<path fill="#1D5B8B" d="M259.4,312.4c2-0.4,5.6-0.7,9.2-0.7c4.7,0,7.5,0.6,9.9,2.2c2.2,1.3,3.6,3.5,3.6,6.5c0,3.2-2,6.1-5.7,7.5
		v0.1c3.6,0.9,7,3.8,7,8.6c0,3.1-1.3,5.5-3.3,7.1c-2.5,2.2-6.5,3.2-12.8,3.2c-3.5,0-6.2-0.3-7.7-0.5V312.4z M265.7,326.1h3.2
		c4.4,0,6.8-2.1,6.8-5c0-3.2-2.5-4.7-6.5-4.7c-1.8,0-2.9,0.1-3.6,0.3V326.1z M265.7,342c0.8,0.1,1.9,0.2,3.3,0.2
		c4.1,0,7.6-1.5,7.6-5.8c0-4-3.5-5.6-7.8-5.6h-3.1V342z"/>
	<path fill="#1D5B8B" d="M292.6,321.6l4.5,13.4c0.5,1.5,1,3.4,1.4,4.9h0.2c0.4-1.4,0.9-3.3,1.3-4.9l3.9-13.3h6.8l-6.3,17
		c-3.4,9.3-5.7,13.5-8.7,16.1c-2.5,2.2-5,3-6.6,3.2l-1.4-5.3c1.1-0.3,2.4-0.8,3.7-1.7c1.2-0.8,2.6-2.3,3.4-3.9
		c0.3-0.5,0.4-0.8,0.4-1.1c0-0.3-0.1-0.6-0.4-1.2l-9.1-22.9H292.6z"/>
</g>
</svg>
