<?xml version="1.0" encoding="UTF-8"?>
<svg width="29px" height="24px" viewBox="0 0 29 24" version="1.1" xmlns="http://www.w3.org/2000/svg" xmlns:xlink="http://www.w3.org/1999/xlink">
    <!-- Generator: Sketch 55.2 (78181) - https://sketchapp.com -->
    <title>Icon/Table view_Unselected</title>
    <desc>Created with Sketch.</desc>
    <g id="Page-1" stroke="none" stroke-width="1" fill="none" fill-rule="evenodd">
        <g id="Icons-2" transform="translate(-182.000000, -828.000000)">
            <g id="Icon/Table-view_Unselected" transform="translate(183.000000, 829.000000)">
                <path d="M1.995,0 L24.941,0 C26.043,0 26.937,0.895 26.937,2 L26.937,20 C26.937,21.105 26.043,22 24.941,22 L1.995,22 C0.893,22 -5.68434189e-14,21.105 -5.68434189e-14,20 L-5.68434189e-14,2 C-5.68434189e-14,0.895 0.893,0 1.995,0 Z" id="Path" stroke="#3C3C3C" stroke-width="1.2" stroke-linecap="round" stroke-linejoin="round"></path>
                <path d="M1.995,0 L24.941,0 C26.043,0 26.937,0.895 26.937,2 L26.937,4 L-5.68434189e-14,4 L-5.68434189e-14,2 C-5.68434189e-14,0.895 0.893,0 1.995,0 Z" id="Path" fill="#3C3C3C"></path>
                <path d="M7.983,7 L2.994,7 C2.443,7 1.997,7.448 1.997,8 C1.997,8.552 2.443,9 2.994,9 L7.983,9 C8.534,9 8.981,8.552 8.981,8 C8.981,7.448 8.534,7 7.983,7 Z" id="Path" fill="#3C3C3C" fill-rule="nonzero"></path>
                <path d="M15.963,7 L10.974,7 C10.423,7 9.977,7.448 9.977,8 C9.977,8.552 10.423,9 10.974,9 L15.963,9 C16.514,9 16.961,8.552 16.961,8 C16.961,7.448 16.514,7 15.963,7 Z" id="Path" fill="#3C3C3C" fill-rule="nonzero"></path>
                <path d="M23.943,7 L18.954,7 C18.403,7 17.957,7.448 17.957,8 C17.957,8.552 18.403,9 18.954,9 L23.943,9 C24.494,9 24.941,8.552 24.941,8 C24.941,7.448 24.494,7 23.943,7 Z" id="Path" fill="#3C3C3C" fill-rule="nonzero"></path>
                <path d="M7.983,12 L2.994,12 C2.443,12 1.997,12.448 1.997,13 C1.997,13.552 2.443,14 2.994,14 L7.983,14 C8.534,14 8.981,13.552 8.981,13 C8.981,12.448 8.534,12 7.983,12 Z" id="Path" fill="#3C3C3C" fill-rule="nonzero"></path>
                <path d="M15.963,12 L10.974,12 C10.423,12 9.977,12.448 9.977,13 C9.977,13.552 10.423,14 10.974,14 L15.963,14 C16.514,14 16.961,13.552 16.961,13 C16.961,12.448 16.514,12 15.963,12 Z" id="Path" fill="#3C3C3C" fill-rule="nonzero"></path>
                <path d="M23.943,12 L18.954,12 C18.403,12 17.957,12.448 17.957,13 C17.957,13.552 18.403,14 18.954,14 L23.943,14 C24.494,14 24.941,13.552 24.941,13 C24.941,12.448 24.494,12 23.943,12 Z" id="Path" fill="#3C3C3C" fill-rule="nonzero"></path>
                <path d="M7.983,17 L2.994,17 C2.443,17 1.997,17.448 1.997,18 C1.997,18.552 2.443,19 2.994,19 L7.983,19 C8.534,19 8.981,18.552 8.981,18 C8.981,17.448 8.534,17 7.983,17 Z" id="Path" fill="#3C3C3C" fill-rule="nonzero"></path>
                <path d="M15.963,17 L10.974,17 C10.423,17 9.977,17.448 9.977,18 C9.977,18.552 10.423,19 10.974,19 L15.963,19 C16.514,19 16.961,18.552 16.961,18 C16.961,17.448 16.514,17 15.963,17 Z" id="Path" fill="#3C3C3C" fill-rule="nonzero"></path>
                <path d="M23.943,17 L18.954,17 C18.403,17 17.957,17.448 17.957,18 C17.957,18.552 18.403,19 18.954,19 L23.943,19 C24.494,19 24.941,18.552 24.941,18 C24.941,17.448 24.494,17 23.943,17 Z" id="Path" fill="#3C3C3C" fill-rule="nonzero"></path>
            </g>
        </g>
    </g>
</svg>