<?xml version="1.0" encoding="UTF-8"?>
<svg width="14px" height="14px" viewBox="0 0 14 14" version="1.1" xmlns="http://www.w3.org/2000/svg" xmlns:xlink="http://www.w3.org/1999/xlink">
    <!-- Generator: Sketch 55.2 (78181) - https://sketchapp.com -->
    <title>Icon/Upload</title>
    <desc>Created with Sketch.</desc>
    <defs>
        <path d="M5,1.3999 C5.331,1.3999 5.6,1.6685 5.6,1.9999 L5.6,4.2499 L5.6,7.9999 C5.6,8.3313 5.331,8.5999 5,8.5999 C4.669,8.5999 4.4,8.3313 4.4,7.9999 L4.4,4.2499 L4.4,1.9999 C4.4,1.6685 4.669,1.3999 5,1.3999 Z M4.625,0.2814 C4.844,0.1061 5.156,0.1061 5.375,0.2814 L9.75,3.7814 C10.009,3.9884 10.051,4.366 9.844,4.6247 C9.637,4.8835 9.259,4.9254 9,4.7184 L5,1.5183 L1,4.7184 C0.741,4.9254 0.364,4.8835 0.157,4.6247 C-0.05,4.366 -0.009,3.9884 0.25,3.7814 L4.625,0.2814 Z M0.625,8.0249 C0.956,8.0249 1.225,8.2935 1.225,8.6249 L1.225,10.6499 L8.775,10.6499 L8.775,8.6249 C8.775,8.2935 9.044,8.0249 9.375,8.0249 C9.706,8.0249 9.975,8.2935 9.975,8.6249 L9.975,11.2499 C9.975,11.5813 9.706,11.8499 9.375,11.8499 L0.625,11.8499 C0.294,11.8499 0.025,11.5813 0.025,11.2499 L0.025,8.6249 C0.025,8.2935 0.294,8.0249 0.625,8.0249 Z" id="path-1"></path>
    </defs>
    <g id="Page-1" stroke="none" stroke-width="1" fill="none" fill-rule="evenodd">
        <g id="Icons-1" transform="translate(-910.000000, -67.000000)">
            <g id="Icon/Upload" transform="translate(910.000000, 67.000000)">
                <rect id="Rectangle" fill-opacity="0.01" fill="#D8D8D8" fill-rule="nonzero" x="0" y="0" width="14" height="14"></rect>
                <g id="Clipped" transform="translate(2.000000, 1.000000)">
                    <mask id="mask-2" fill="white">
                        <use xlink:href="#path-1"></use>
                    </mask>
                    <g id="Shape"></g>
                    <path d="M5.375,0.2814 L4.75,1.0622 L4.75,1.0622 L5.375,0.2814 Z M4.625,0.2814 L5.25,1.0622 L5.25,1.0622 L4.625,0.2814 Z M9.75,3.7814 L9.125,4.5622 L9.125,4.5623 L9.75,3.7814 Z M9.844,4.6247 L10.624,5.2494 L10.624,5.2494 L9.844,4.6247 Z M9,4.7184 L9.625,3.9376 L9.625,3.9376 L9,4.7184 Z M5,1.5183 L5.625,0.7374 C5.26,0.4452 4.741,0.4452 4.375,0.7374 L5,1.5183 Z M1,4.7184 L1.625,5.4993 L1.625,5.4993 L1,4.7184 Z M0.157,4.6247 L-0.624,5.2494 L-0.624,5.2494 L0.157,4.6247 Z M0.25,3.7814 L-0.374,3.0005 L-0.374,3.0005 L0.25,3.7814 Z M1.225,10.6499 L0.225,10.6499 C0.225,11.2022 0.673,11.6499 1.225,11.6499 L1.225,10.6499 Z M8.775,10.6499 L8.775,11.6499 C9.327,11.6499 9.775,11.2022 9.775,10.6499 L8.775,10.6499 Z M6.6,1.9999 C6.6,1.1162 5.884,0.3999 5,0.3999 L5,2.3999 C4.779,2.3999 4.6,2.2208 4.6,1.9999 L6.6,1.9999 Z M6.6,4.2499 L6.6,1.9999 L4.6,1.9999 L4.6,4.2499 L6.6,4.2499 Z M6.6,7.9999 L6.6,4.2499 L4.6,4.2499 L4.6,7.9999 L6.6,7.9999 Z M5,9.5999 C5.884,9.5999 6.6,8.8836 6.6,7.9999 L4.6,7.9999 C4.6,7.779 4.779,7.5999 5,7.5999 L5,9.5999 Z M3.4,7.9999 C3.4,8.8836 4.116,9.5999 5,9.5999 L5,7.5999 C5.221,7.5999 5.4,7.779 5.4,7.9999 L3.4,7.9999 Z M3.4,4.2499 L3.4,7.9999 L5.4,7.9999 L5.4,4.2499 L3.4,4.2499 Z M3.4,1.9999 L3.4,4.2499 L5.4,4.2499 L5.4,1.9999 L3.4,1.9999 Z M5,0.3999 C4.116,0.3999 3.4,1.1162 3.4,1.9999 L5.4,1.9999 C5.4,2.2208 5.221,2.3999 5,2.3999 L5,0.3999 Z M6,-0.4995 C5.415,-0.967 4.585,-0.967 4.001,-0.4995 L5.25,1.0622 C5.104,1.1791 4.896,1.1791 4.75,1.0622 L6,-0.4995 Z M10.375,3.0005 L6,-0.4995 L4.75,1.0622 L9.125,4.5622 L10.375,3.0005 Z M10.624,5.2494 C11.176,4.5594 11.065,3.5525 10.375,3.0005 L9.125,4.5623 C8.953,4.4242 8.925,4.1725 9.063,4 L10.624,5.2494 Z M8.376,5.4993 C9.066,6.0513 10.072,5.9394 10.624,5.2494 L9.063,4 C9.201,3.8275 9.452,3.7996 9.625,3.9376 L8.376,5.4993 Z M4.375,2.2991 L8.376,5.4993 L9.625,3.9376 L5.625,0.7374 L4.375,2.2991 Z M1.625,5.4993 L5.625,2.2991 L4.375,0.7374 L0.375,3.9376 L1.625,5.4993 Z M-0.624,5.2494 C-0.072,5.9394 0.935,6.0513 1.625,5.4993 L0.375,3.9376 C0.548,3.7996 0.799,3.8275 0.937,4 L-0.624,5.2494 Z M-0.374,3.0005 C-1.064,3.5525 -1.176,4.5594 -0.624,5.2494 L0.937,4 C1.075,4.1725 1.047,4.4242 0.875,4.5622 L-0.374,3.0005 Z M4.001,-0.4995 L-0.374,3.0005 L0.875,4.5622 L5.25,1.0622 L4.001,-0.4995 Z M2.225,8.6249 C2.225,7.7412 1.509,7.0249 0.625,7.0249 L0.625,9.0249 C0.404,9.0249 0.225,8.8458 0.225,8.6249 L2.225,8.6249 Z M2.225,10.6499 L2.225,8.6249 L0.225,8.6249 L0.225,10.6499 L2.225,10.6499 Z M8.775,9.6499 L1.225,9.6499 L1.225,11.6499 L8.775,11.6499 L8.775,9.6499 Z M7.775,8.6249 L7.775,10.6499 L9.775,10.6499 L9.775,8.6249 L7.775,8.6249 Z M9.375,7.0249 C8.491,7.0249 7.775,7.7412 7.775,8.6249 L9.775,8.6249 C9.775,8.8458 9.596,9.0249 9.375,9.0249 L9.375,7.0249 Z M10.975,8.6249 C10.975,7.7412 10.259,7.0249 9.375,7.0249 L9.375,9.0249 C9.154,9.0249 8.975,8.8458 8.975,8.6249 L10.975,8.6249 Z M10.975,11.2499 L10.975,8.6249 L8.975,8.6249 L8.975,11.2499 L10.975,11.2499 Z M9.375,12.8499 C10.259,12.8499 10.975,12.1336 10.975,11.2499 L8.975,11.2499 C8.975,11.029 9.154,10.8499 9.375,10.8499 L9.375,12.8499 Z M0.625,12.8499 L9.375,12.8499 L9.375,10.8499 L0.625,10.8499 L0.625,12.8499 Z M-0.975,11.2499 C-0.975,12.1336 -0.259,12.8499 0.625,12.8499 L0.625,10.8499 C0.846,10.8499 1.025,11.029 1.025,11.2499 L-0.975,11.2499 Z M-0.975,8.6249 L-0.975,11.2499 L1.025,11.2499 L1.025,8.6249 L-0.975,8.6249 Z M0.625,7.0249 C-0.259,7.0249 -0.975,7.7412 -0.975,8.6249 L1.025,8.6249 C1.025,8.8458 0.846,9.0249 0.625,9.0249 L0.625,7.0249 Z" id="Shape" fill="#FFFFFF" fill-rule="nonzero" mask="url(#mask-2)"></path>
                </g>
            </g>
        </g>
    </g>
</svg>