<?xml version="1.0" encoding="UTF-8"?>
<svg width="25px" height="28px" viewBox="0 0 25 28" version="1.1" xmlns="http://www.w3.org/2000/svg" xmlns:xlink="http://www.w3.org/1999/xlink">
    <!-- Generator: Sketch 55.2 (78181) - https://sketchapp.com -->
    <title>Icon/User Management Copy 2</title>
    <desc>Created with Sketch.</desc>
    <g id="Page-1" stroke="none" stroke-width="1" fill="none" fill-rule="evenodd" opacity="0.800000012">
        <g id="1.-Dashboard_Clients" transform="translate(-17.000000, -165.000000)">
            <g id="Navigation_Expanded">
                <g transform="translate(0.000000, 58.000000)">
                    <g id="Icon/User-Management-Copy-2" transform="translate(17.000000, 108.000000)">
                        <ellipse id="Oval" stroke="#FFFFFF" stroke-width="1.2" cx="11.2270957" cy="5.06225" rx="4.69565217" ry="4.5"></ellipse>
                        <path d="M10.6249043,22.3255 C10.913113,22.3255 11.1466435,22.1017 11.1466435,21.8255 C11.1466435,21.5494 10.913113,21.3255 10.6249043,21.3255 L10.6249043,22.3255 Z M1.66639304,17.2334 L2.16618783,17.3769 L1.66639304,17.2334 Z M11.5222957,9.9548 L11.5041391,9.4551 L11.5222957,9.9548 Z M19.3815652,13.7649 C19.5736696,13.9707 19.903513,13.9883 20.1182609,13.8042 C20.333113,13.6201 20.3514783,13.304 20.1593739,13.0982 L19.3815652,13.7649 Z M10.6249043,21.3255 C8.06744348,21.3255 7.07697391,21.4083 5.53039304,21.4393 C3.94962783,21.4709 2.93112,21.4448 2.29513043,21.266 C1.99267826,21.181 1.82645217,21.0738 1.72797913,20.9617 C1.6320313,20.8524 1.55661913,20.6887 1.53520696,20.4079 C1.4894087,19.8071 1.69954435,18.8695 2.16618783,17.3769 L1.1666087,17.0899 C0.709356522,18.5524 0.432417391,19.6664 0.494504348,20.4807 C0.527050435,20.9075 0.654333913,21.2922 0.929613913,21.6056 C1.20235826,21.9162 1.5758713,22.106 2.00146435,22.2256 C2.82154435,22.4561 4.01230957,22.4698 5.55218087,22.439 C7.12622609,22.4075 8.0808,22.3255 10.6249043,22.3255 L10.6249043,21.3255 Z M2.16618783,17.3769 C2.49748174,16.3172 3.04074783,14.6569 4.3896,13.225 C5.72149565,11.811 7.88201739,10.5764 11.5404522,10.4545 L11.5041391,9.4551 C7.58441739,9.5857 5.15006609,10.9253 3.61502609,12.5549 C2.09693217,14.1665 1.50130435,16.0193 1.1666087,17.0899 L2.16618783,17.3769 Z M11.5404522,10.4545 C12.5574261,10.4206 13.7325913,10.4238 15.0403826,10.8383 C16.3428522,11.2512 17.8132174,12.0845 19.3815652,13.7649 L20.1593739,13.0982 C18.4826087,11.3018 16.8618783,10.3624 15.3680348,9.8889 C13.879513,9.4171 12.5530435,9.4202 11.5041391,9.4551 L11.5404522,10.4545 Z" id="Shape" fill="#FFFFFF" fill-rule="nonzero"></path>
                        <g id="Group-2" transform="translate(12.521739, 14.847000)" stroke="#FFFFFF" stroke-linecap="round" stroke-linejoin="round" stroke-width="1.2">
                            <path d="M5.74633043,6.9595 C6.61078088,6.9595 7.31154783,6.28791538 7.31154783,5.4595 C7.31154783,4.63108462 6.61078088,3.9595 5.74633043,3.9595 C4.8819769,3.9595 4.18111304,4.63108462 4.18111304,5.4595 C4.18111304,6.28791538 4.8819769,6.9595 5.74633043,6.9595 Z" id="Path"></path>
                            <path d="M9.60002467,6.99992262 C9.53053933,7.15079265 9.50980033,7.31804772 9.54052118,7.48030217 C9.57114513,7.64245021 9.65187217,7.79214988 9.77213898,7.90993065 L9.8034413,7.93993442 C9.90044943,8.03281844 9.97739693,8.14315146 10.0299228,8.2645497 C10.0824487,8.38594794 10.1094869,8.51607069 10.1094869,8.64747018 C10.1094869,8.77886968 10.0824487,8.90899243 10.0299228,9.03039067 C9.97739693,9.15178891 9.90044943,9.26212193 9.8034413,9.35489955 C9.70653009,9.44788997 9.59149648,9.52172904 9.46483353,9.57205451 C9.33807366,9.62237999 9.20230105,9.6482343 9.06517169,9.6482343 C8.92804232,9.6482343 8.79226972,9.62237999 8.66560676,9.57205451 C8.53894381,9.52172904 8.42381329,9.44788997 8.32690208,9.35489955 L8.29559975,9.32500218 C8.17271634,9.20966853 8.01649546,9.13231838 7.84728849,9.10295298 C7.6779846,9.07358759 7.50344751,9.09337731 7.3460637,9.15998143 C7.19178105,9.22328726 7.06017562,9.32861965 6.96743159,9.46267906 C6.87478447,9.59684486 6.82497211,9.75409868 6.82429373,9.91496997 L6.82429373,9.99998066 C6.82429373,10.2651204 6.71439642,10.5195141 6.51873268,10.7070908 C6.32297203,10.8945612 6.05762913,11 5.78085071,11 C5.50407229,11 5.23872939,10.8945612 5.04296874,10.7070908 C4.84730501,10.5195141 4.73740769,10.2651204 4.73740769,9.99998066 L4.73740769,9.954975 C4.73333742,9.78942227 4.67741965,9.62897656 4.57692272,9.49427878 C4.4764258,9.35968739 4.33600145,9.2571213 4.17386899,9.19998646 C4.0165821,9.13338234 3.84194809,9.11359262 3.67274112,9.14295801 C3.50343723,9.17232341 3.34731327,9.24967356 3.22433294,9.36490081 L3.19303062,9.39490458 C3.0961194,9.487895 2.98108579,9.56173407 2.85432593,9.61205954 C2.72766298,9.66238502 2.59189037,9.68823933 2.454761,9.68823933 C2.31763164,9.68823933 2.18185903,9.66238502 2.05519607,9.61205954 C1.92853312,9.56173407 1.8134026,9.487895 1.71649139,9.39490458 C1.61948327,9.30212696 1.54253576,9.19179394 1.49000989,9.0703957 C1.43748401,8.94899746 1.41044578,8.81887471 1.41044578,8.68747521 C1.41044578,8.55607572 1.43748401,8.42595297 1.49000989,8.30455473 C1.54253576,8.18315649 1.61948327,8.07282347 1.71649139,7.97993945 L1.74779371,7.94993568 C1.86806052,7.83215491 1.94878756,7.68245524 1.97950842,7.5202008 C2.01013236,7.35805275 1.98949027,7.19079768 1.92000493,7.03992765 C1.85381458,6.89203672 1.74401417,6.76595704 1.60407438,6.67711608 C1.46413459,6.58827512 1.30006391,6.54060955 1.13221369,6.53997118 L1.04344302,6.53997118 C0.76676151,6.53997118 0.5013217,6.43463878 0.305657963,6.24706201 C0.109897314,6.05948524 0,5.80519795 0,5.53995183 C0,5.27470572 0.109897314,5.02041843 0.305657963,4.83284165 C0.5013217,4.64537127 0.76676151,4.53993249 1.04344302,4.53993249 L1.09044496,4.53993249 C1.26314074,4.53610222 1.43060331,4.48247845 1.57112457,4.38618975 C1.71164583,4.28990105 1.81863581,4.15530966 1.8782362,3.99997098 C1.94772154,3.84920735 1.96846054,3.68184588 1.93773969,3.51969783 C1.90701883,3.35744339 1.8263887,3.20785012 1.70612189,3.08996295 L1.67481957,3.05995918 C1.57771453,2.96707516 1.50076703,2.85684854 1.44824115,2.7354503 C1.39581219,2.61405206 1.36877396,2.48392931 1.36877396,2.35242342 C1.36877396,2.22102392 1.39581219,2.09090118 1.44824115,1.96950294 C1.50076703,1.84810469 1.57771453,1.73787807 1.67481957,1.64499405 C1.77173078,1.55200364 1.88676439,1.47827096 2.01342734,1.42794549 C2.1400903,1.37762001 2.2758629,1.3516593 2.41299227,1.3516593 C2.55012163,1.3516593 2.68599115,1.37762001 2.81265411,1.42794549 C2.93931706,1.47827096 3.05435067,1.55200364 3.15126188,1.64499405 L3.1825642,1.67499782 C3.30554453,1.79022508 3.46176541,1.86757523 3.63097238,1.89694062 C3.80027627,1.92641241 3.97481336,1.90651629 4.13219717,1.84001857 L4.17386899,1.84001857 C4.32824855,1.77660634 4.45985398,1.67138035 4.5525011,1.53721454 C4.64524513,1.40304874 4.69496058,1.24590132 4.69563896,1.08492364 L4.69563896,1.00001934 C4.69563896,0.734773231 4.80553627,0.480379545 5.00129692,0.292909167 C5.19696066,0.105332392 5.46240047,0 5.73908198,0 C6.0158604,0 6.28130021,0.105332392 6.47696395,0.292909167 C6.67262769,0.480379545 6.78262191,0.734773231 6.78262191,1.00001934 L6.78262191,1.045025 C6.78330029,1.20589629 6.83301574,1.36304371 6.92575977,1.49720951 C7.01840689,1.63137532 7.15001232,1.73660131 7.30429497,1.80001354 C7.46167877,1.86651126 7.63621587,1.88640738 7.80551975,1.85693559 C7.97472673,1.8275702 8.1309476,1.75022005 8.25392793,1.63499279 L8.28523025,1.60498902 C8.38214147,1.51199861 8.49717507,1.43826593 8.62383803,1.38794046 C8.75050098,1.33761498 8.8863705,1.31165427 9.02349987,1.31165427 C9.16062923,1.31165427 9.29640184,1.33761498 9.4230648,1.38794046 C9.54972775,1.43826593 9.66476136,1.51199861 9.76167257,1.60498902 C9.8587776,1.69787304 9.93572511,1.80809966 9.98825098,1.92949791 C10.0407769,2.05089615 10.0677182,2.18101889 10.0677182,2.31241839 C10.0677182,2.44392428 10.0407769,2.57404703 9.98825098,2.69544527 C9.93572511,2.81684351 9.8587776,2.92707013 9.76167257,3.01995415 L9.73037025,3.04995793 C9.61010343,3.16784509 9.52947331,3.31743836 9.49875245,3.4796928 C9.4680316,3.64184085 9.4887706,3.80920232 9.55825594,3.95996595 L9.55825594,3.99997098 C9.62434938,4.14786192 9.73414979,4.2739416 9.87418649,4.36278255 C10.0141263,4.45162351 10.178197,4.49928908 10.3460472,4.49992746 L10.4347209,4.49992746 C10.7114994,4.49992746 10.9769392,4.60536625 11.1726029,4.79283662 C11.3682666,4.9804134 11.4782609,5.23470069 11.4782609,5.4999468 C11.4782609,5.76519292 11.3682666,6.01948021 11.1726029,6.20705698 C10.9769392,6.39463375 10.7114994,6.49996615 10.4347209,6.49996615 L10.3878159,6.49996615 C10.2199657,6.50060452 10.055895,6.54827009 9.91595522,6.63711105 C9.77591852,6.72595201 9.66611811,6.85203169 9.60002467,6.99992262 L9.60002467,6.99992262 Z" id="Path"></path>
                        </g>
                    </g>
                </g>
            </g>
        </g>
    </g>
</svg>