<?xml version="1.0" encoding="UTF-8"?>
<svg width="25px" height="27px" viewBox="0 0 25 27" version="1.1" xmlns="http://www.w3.org/2000/svg" xmlns:xlink="http://www.w3.org/1999/xlink">
    <!-- Generator: Sketch 55.2 (78181) - https://sketchapp.com -->
    <title>Icon/User management/Selected</title>
    <desc>Created with Sketch.</desc>
    <g id="Page-1" stroke="none" stroke-width="1" fill="none" fill-rule="evenodd">
        <g id="Icons-1" transform="translate(-222.000000, -463.000000)">
            <g id="Icon/User-management/Selected" transform="translate(222.000370, 464.000000)">
                <path d="M10.7406301,9 C13.3346301,9 15.4366301,6.985 15.4366301,4.5 C15.4366301,2.015 13.3346301,0 10.7406301,0 C8.1476301,0 6.0456301,2.015 6.0456301,4.5 C6.0456301,6.985 8.1476301,9 10.7406301,9 Z" id="Path" stroke="#FFFFFF" stroke-width="1.2"></path>
                <path d="M10.1386301,21.763 C10.4266301,21.763 10.6606301,21.539 10.6606301,21.263 C10.6606301,20.987 10.4266301,20.763 10.1386301,20.763 L10.1386301,21.763 Z M1.1806301,16.671 L1.6796301,16.815 L1.1806301,16.671 Z M11.0356301,9.393 L11.0176301,8.893 L11.0356301,9.393 Z M18.8956301,13.203 C19.0876301,13.408 19.4176301,13.426 19.6316301,13.242 C19.8466301,13.058 19.8656301,12.742 19.6736301,12.536 L18.8956301,13.203 Z M10.1386301,20.763 C7.5816301,20.763 6.5906301,20.846 5.0446301,20.877 C3.4636301,20.909 2.4446301,20.883 1.8086301,20.704 C1.5066301,20.619 1.3406301,20.512 1.2416301,20.399 C1.1456301,20.29 1.0706301,20.126 1.0486301,19.846 C1.0036301,19.245 1.2136301,18.307 1.6796301,16.815 L0.680630098,16.528 C0.223630098,17.99 -0.0533699016,19.104 0.00863009843,19.918 C0.0406300984,20.345 0.167630098,20.73 0.443630098,21.043 C0.716630098,21.354 1.0896301,21.544 1.5156301,21.663 C2.3356301,21.894 3.5256301,21.908 5.0656301,21.877 C6.6396301,21.845 7.5946301,21.763 10.1386301,21.763 L10.1386301,20.763 Z M1.6796301,16.815 C2.0116301,15.755 2.5546301,14.095 3.9036301,12.663 C5.2356301,11.249 7.3956301,10.014 11.0546301,9.892 L11.0176301,8.893 C7.0986301,9.023 4.6636301,10.363 3.1286301,11.993 C1.6106301,13.604 1.0146301,15.457 0.680630098,16.528 L1.6796301,16.815 Z M11.0546301,9.892 C12.0716301,9.858 13.2466301,9.862 14.5546301,10.276 C15.8566301,10.689 17.3266301,11.522 18.8956301,13.203 L19.6736301,12.536 C17.9966301,10.74 16.3756301,9.8 14.8816301,9.327 C13.3936301,8.855 12.0666301,8.858 11.0176301,8.893 L11.0546301,9.892 Z" id="Shape" fill="#FFFFFF" fill-rule="nonzero"></path>
                <path d="M17.7816301,21.246 C18.6456301,21.246 19.3466301,20.574 19.3466301,19.746 C19.3466301,18.917 18.6456301,18.246 17.7816301,18.246 C16.9166301,18.246 16.2166301,18.917 16.2166301,19.746 C16.2166301,20.574 16.9166301,21.246 17.7816301,21.246 Z" id="Path" stroke="#FFFFFF" stroke-width="1.2" stroke-linecap="round" stroke-linejoin="round"></path>
                <path d="M21.6356301,21.285 C21.5656301,21.435 21.5456301,21.603 21.5756301,21.765 C21.6066301,21.927 21.6876301,22.077 21.8076301,22.195 L21.8386301,22.225 C21.9356301,22.317 22.0126301,22.428 22.0656301,22.549 C22.1176301,22.671 22.1446301,22.801 22.1446301,22.932 C22.1446301,23.064 22.1176301,23.194 22.0656301,23.315 C22.0126301,23.436 21.9356301,23.547 21.8386301,23.64 C21.7416301,23.733 21.6266301,23.806 21.5006301,23.857 C21.3736301,23.907 21.2376301,23.933 21.1006301,23.933 C20.9636301,23.933 20.8276301,23.907 20.7006301,23.857 C20.5746301,23.806 20.4596301,23.733 20.3626301,23.64 L20.3306301,23.61 C20.2086301,23.494 20.0516301,23.417 19.8826301,23.388 C19.7136301,23.358 19.5386301,23.378 19.3816301,23.445 C19.2276301,23.508 19.0956301,23.613 19.0026301,23.747 C18.9106301,23.882 18.8606301,24.039 18.8596301,24.2 L18.8596301,24.285 C18.8596301,24.55 18.7496301,24.804 18.5546301,24.992 C18.3586301,25.179 18.0936301,25.285 17.8166301,25.285 C17.5396301,25.285 17.2746301,25.179 17.0786301,24.992 C16.8826301,24.804 16.7726301,24.55 16.7726301,24.285 L16.7726301,24.24 C16.7686301,24.074 16.7126301,23.914 16.6126301,23.779 C16.5116301,23.644 16.3716301,23.542 16.2096301,23.485 C16.0516301,23.418 15.8776301,23.398 15.7086301,23.428 C15.5386301,23.457 15.3826301,23.534 15.2596301,23.65 L15.2286301,23.68 C15.1316301,23.773 15.0166301,23.846 14.8896301,23.897 C14.7636301,23.947 14.6276301,23.973 14.4906301,23.973 C14.3536301,23.973 14.2176301,23.947 14.0906301,23.897 C13.9636301,23.846 13.8486301,23.773 13.7516301,23.68 C13.6546301,23.587 13.5776301,23.476 13.5256301,23.355 C13.4726301,23.234 13.4456301,23.104 13.4456301,22.972 C13.4456301,22.841 13.4726301,22.711 13.5256301,22.589 C13.5776301,22.468 13.6546301,22.357 13.7516301,22.265 L13.7836301,22.235 C13.9036301,22.117 13.9846301,21.967 14.0146301,21.805 C14.0456301,21.643 14.0246301,21.475 13.9556301,21.325 C13.8896301,21.177 13.7796301,21.051 13.6396301,20.962 C13.4996301,20.873 13.3356301,20.825 13.1676301,20.825 L13.0786301,20.825 C12.8026301,20.825 12.5366301,20.719 12.3416301,20.532 C12.1456301,20.344 12.0356301,20.09 12.0356301,19.825 C12.0356301,19.559 12.1456301,19.305 12.3416301,19.118 C12.5366301,18.93 12.8026301,18.825 13.0786301,18.825 L13.1256301,18.825 C13.2986301,18.821 13.4656301,18.767 13.6066301,18.671 C13.7476301,18.575 13.8546301,18.44 13.9136301,18.285 C13.9836301,18.134 14.0036301,17.967 13.9736301,17.804 C13.9426301,17.642 13.8616301,17.493 13.7416301,17.375 L13.7106301,17.345 C13.6136301,17.252 13.5366301,17.142 13.4836301,17.02 C13.4316301,16.899 13.4046301,16.769 13.4046301,16.637 C13.4046301,16.506 13.4316301,16.376 13.4836301,16.254 C13.5366301,16.133 13.6136301,16.023 13.7106301,15.93 C13.8076301,15.837 13.9226301,15.763 14.0486301,15.713 C14.1756301,15.662 14.3116301,15.636 14.4486301,15.636 C14.5856301,15.636 14.7216301,15.662 14.8486301,15.713 C14.9746301,15.763 15.0896301,15.837 15.1866301,15.93 L15.2176301,15.96 C15.3406301,16.075 15.4976301,16.152 15.6666301,16.182 C15.8356301,16.211 16.0106301,16.191 16.1676301,16.125 L16.2096301,16.125 C16.3636301,16.061 16.4956301,15.956 16.5876301,15.822 C16.6806301,15.688 16.7306301,15.531 16.7316301,15.37 L16.7316301,15.285 C16.7316301,15.019 16.8406301,14.765 17.0366301,14.578 C17.2326301,14.39 17.4976301,14.285 17.7746301,14.285 C18.0516301,14.285 18.3166301,14.39 18.5126301,14.578 C18.7086301,14.765 18.8186301,15.019 18.8186301,15.285 L18.8186301,15.33 C18.8186301,15.491 18.8686301,15.648 18.9616301,15.782 C19.0536301,15.916 19.1856301,16.021 19.3396301,16.085 C19.4976301,16.151 19.6716301,16.171 19.8406301,16.142 C20.0106301,16.112 20.1666301,16.035 20.2896301,15.92 L20.3206301,15.89 C20.4176301,15.797 20.5326301,15.723 20.6596301,15.673 C20.7856301,15.622 20.9216301,15.596 21.0586301,15.596 C21.1966301,15.596 21.3316301,15.622 21.4586301,15.673 C21.5856301,15.723 21.7006301,15.797 21.7976301,15.89 C21.8946301,15.983 21.9716301,16.093 22.0236301,16.214 C22.0766301,16.336 22.1036301,16.466 22.1036301,16.597 C22.1036301,16.729 22.0766301,16.859 22.0236301,16.98 C21.9716301,17.102 21.8946301,17.212 21.7976301,17.305 L21.7656301,17.335 C21.6456301,17.453 21.5646301,17.602 21.5346301,17.764 C21.5036301,17.927 21.5246301,18.094 21.5936301,18.245 L21.5936301,18.285 C21.6596301,18.433 21.7696301,18.559 21.9096301,18.647 C22.0496301,18.736 22.2136301,18.784 22.3816301,18.785 L22.4706301,18.785 C22.7466301,18.785 23.0126301,18.89 23.2076301,19.078 C23.4036301,19.265 23.5136301,19.519 23.5136301,19.785 C23.5136301,20.05 23.4036301,20.304 23.2076301,20.492 C23.0126301,20.679 22.7466301,20.785 22.4706301,20.785 L22.4236301,20.785 C22.2556301,20.785 22.0916301,20.833 21.9516301,20.922 C21.8116301,21.011 21.7016301,21.137 21.6356301,21.285 Z" id="Path" stroke="#FFFFFF" stroke-width="1.2" stroke-linecap="round" stroke-linejoin="round"></path>
            </g>
        </g>
    </g>
</svg>